<?xml version="1.0" encoding="utf-8"?>
<!-- Generator: Adobe Illustrator 24.0.0, SVG Export Plug-In . SVG Version: 6.00 Build 0)  -->
<svg version="1.1" id="Layer_1" xmlns="http://www.w3.org/2000/svg" xmlns:xlink="http://www.w3.org/1999/xlink" x="0px" y="0px"
	 viewBox="0 0 512 512" style="enable-background:new 0 0 512 512;" xml:space="preserve">
<style type="text/css">
	.st0{fill:#FFFFFF;}
</style>
<g id="Apartment">
	<path class="st0" d="M464,456h-32V248c0-4.4-3.6-8-8-8H320v-96c0-4.4-3.6-8-8-8h-8v-24c0-4.4-3.6-8-8-8H184c-4.4,0-8,3.6-8,8v24h-8
		c-4.4,0-8,3.6-8,8v312H96v-40.6c30.6-4.4,51.8-32.8,47.4-63.4c-2.1-14.2-9.5-27.1-20.8-36c11-19.1,4.5-43.6-14.7-54.6
		s-43.6-4.5-54.6,14.7c-7.1,12.4-7.1,27.6,0,40c-24.3,19.1-28.5,54.4-9.3,78.6c8.9,11.3,21.8,18.7,36,20.8v11.6l-20.4-10.2
		c-3.9-2-8.8-0.4-10.8,3.5c-2,3.9-0.4,8.8,3.5,10.8c0,0,0.1,0,0.1,0.1L80,444.9V456H16c-4.4,0-8,3.6-8,8s3.6,8,8,8h448
		c4.4,0,8-3.6,8-8S468.4,456,464,456z M48,360c0-14.5,7.9-27.9,20.6-35c3.9-2.1,5.3-7,3.1-10.9c-0.3-0.6-0.7-1.1-1.2-1.6
		c-9.1-9.6-8.7-24.8,0.9-33.9s24.8-8.7,33.9,0.9c8.7,9.3,8.7,23.7,0,33c-3,3.2-2.9,8.3,0.3,11.3c0.5,0.5,1,0.9,1.6,1.2
		c19.3,10.7,26.3,35,15.6,54.4c-5.7,10.2-15.5,17.5-27,19.8V368c0-4.4-3.6-8-8-8s-8,3.6-8,8v31.2C61.4,395.4,48,379,48,360z
		 M416,256v199.9l-96-1.7V256H416z M192,120h96v16h-96V120z M176,152h128v304h-8v-88c0-4.4-3.6-8-8-8h-96c-4.4,0-8,3.6-8,8v88h-8
		V152z M200,456v-80h32v80H200z M248,456v-80h32v80H248z"/>
	<path class="st0" d="M496,456h-8c-4.4,0-8,3.6-8,8s3.6,8,8,8h8c4.4,0,8-3.6,8-8S500.4,456,496,456z"/>
	<path class="st0" d="M192,344h96c4.4,0,8-3.6,8-8v-40c0-4.4-3.6-8-8-8h-96c-4.4,0-8,3.6-8,8v40C184,340.4,187.6,344,192,344z
		 M280,304v24h-32v-24H280z M200,304h32v24h-32V304z"/>
	<path class="st0" d="M88,352c4.4,0,8-3.6,8-8v-8c0-4.4-3.6-8-8-8s-8,3.6-8,8v8C80,348.4,83.6,352,88,352z"/>
	<path class="st0" d="M40,120h96c13.3,0,24-10.7,24-24s-10.7-24-24-24h-19.5C112.1,50.4,91,36.4,69.3,40.8
		c-15.7,3.2-28,15.5-31.2,31.3c-13.2,1-23.1,12.6-22.1,25.8C17,110.4,27.5,120,40,120z M34.3,90.4c1.5-1.5,3.5-2.4,5.7-2.4h5.3
		c4.4,0,8-3.6,8-8c0-13.3,10.7-24,24-24s24,10.7,24,24c0,4.4,3.6,8,8,8H136c4.4,0,8,3.6,8,8s-3.6,8-8,8H40c-4.4,0-8-3.6-8-8
		C32,93.9,32.8,91.9,34.3,90.4z"/>
	<path class="st0" d="M504,164c0-15.5-12.5-28-28-28h-26c-4.4-26.1-29.2-43.7-55.3-39.3c-20.1,3.4-35.9,19.2-39.3,39.3
		c-15.5,0.4-27.7,13.2-27.3,28.7c0.4,15.2,12.8,27.3,28,27.3h120C491.5,192,504,179.5,504,164z M484.5,172.5
		c-2.2,2.3-5.3,3.5-8.5,3.5H356c-6.6,0-12-5.4-12-12s5.4-12,12-12h6.7c4.4,0,8-3.6,8-8c0-17.7,14.3-32,32-32s32,14.3,32,32
		c0,4.4,3.6,8,8,8H476c6.6,0,12,5.4,12,12C488,167.2,486.7,170.2,484.5,172.5z"/>
	<path class="st0" d="M192,280h96c4.4,0,8-3.6,8-8v-40c0-4.4-3.6-8-8-8h-96c-4.4,0-8,3.6-8,8v40C184,276.4,187.6,280,192,280z
		 M280,240v24h-32v-24H280z M200,240h32v24h-32V240z"/>
	<path class="st0" d="M192,216h96c4.4,0,8-3.6,8-8v-40c0-4.4-3.6-8-8-8h-96c-4.4,0-8,3.6-8,8v40C184,212.4,187.6,216,192,216z
		 M280,176v24h-32v-24H280z M200,176h32v24h-32V176z"/>
	<path class="st0" d="M336,320h64c4.4,0,8-3.6,8-8v-40c0-4.4-3.6-8-8-8h-64c-4.4,0-8,3.6-8,8v40C328,316.4,331.6,320,336,320z
		 M344,280h48v24h-48V280z"/>
	<path class="st0" d="M336,384h64c4.4,0,8-3.6,8-8v-40c0-4.4-3.6-8-8-8h-64c-4.4,0-8,3.6-8,8v40C328,380.4,331.6,384,336,384z
		 M344,344h48v24h-48V344z"/>
</g>
</svg>
