<svg height="512pt" viewBox="0 -26 512.04806 512" width="512pt" xmlns="http://www.w3.org/2000/svg"><path d="m296.289062 23.542969c-8.195312-14.53125-23.585937-23.5195315-40.265624-23.5195315-16.683594 0-32.074219 8.9882815-40.269532 23.5195315l-209.421875 366.605469c-8.503906 14.691406-8.4375 32.820312.167969 47.449218 8.203125 14.402344 23.523438 23.277344 40.097656 23.226563h418.847656c16.578126.050781 31.898438-8.820313 40.101563-23.226563 8.605469-14.628906 8.671875-32.757812.171875-47.449218zm194.5 405.488281c-5.175781 9.117188-14.859374 14.746094-25.34375 14.726562h-418.847656c-10.484375.019532-20.167968-5.609374-25.34375-14.726562-5.515625-9.375-5.558594-21-.105468-30.414062l209.421874-366.609376c5.160157-9.210937 14.894532-14.917968 25.453126-14.917968 10.554687 0 20.289062 5.707031 25.449218 14.917968l209.425782 366.609376c5.449218 9.417968 5.40625 21.039062-.109376 30.414062zm0 0"/><path d="m266.613281 40.410156c-2.132812-3.867187-6.207031-6.265625-10.625-6.253906s-8.476562 2.433594-10.589843 6.3125l-209.445313 366.628906c-2.421875 4.125-2.402344 9.238282.050781 13.34375 2.101563 3.878906 6.171875 6.28125 10.585938 6.25h418.867187c4.394531.035156 8.453125-2.351562 10.558594-6.207031 2.472656-4.121094 2.5-9.261719.066406-13.40625zm-220.023437 377.746094-.035156-8.53125h.035156zm7.574218-8.53125 201.859376-353.351562 201.855468 353.351562zm0 0"/><path d="m213.355469 187.757812c0 19.808594 31.117187 104.328126 34.667969 113.898438 1.238281 3.347656 4.429687 5.566406 8 5.566406 3.566406 0 6.757812-2.21875 8-5.566406 3.546874-9.570312 34.664062-94.089844 34.664062-113.898438 0-23.5625-19.101562-42.667968-42.664062-42.667968-23.566407 0-42.667969 19.105468-42.667969 42.667968zm68.265625 0c0 10.230469-13.550782 51.804688-25.597656 85.855469-12.050782-34.050781-25.601563-75.625-25.601563-85.855469 0-14.136718 11.460937-25.601562 25.601563-25.601562 14.136718 0 25.597656 11.464844 25.597656 25.601562zm0 0"/><path d="m256.023438 324.292969c-18.851563 0-34.136719 15.28125-34.136719 34.132812 0 18.851563 15.285156 34.132813 34.136719 34.132813 18.851562 0 34.132812-15.28125 34.132812-34.132813-.019531-18.84375-15.292969-34.113281-34.132812-34.132812zm0 51.199219c-9.425782 0-17.066407-7.640626-17.066407-17.066407s7.640625-17.066406 17.066407-17.066406c9.425781 0 17.066406 7.640625 17.066406 17.066406-.011719 9.417969-7.648438 17.054688-17.066406 17.066407zm0 0"/></svg>