<?xml version="1.0" encoding="iso-8859-1"?>
<!-- Generator: Adobe Illustrator 19.0.0, SVG Export Plug-In . SVG Version: 6.00 Build 0)  -->
<svg version="1.1" id="Capa_1" xmlns="http://www.w3.org/2000/svg" xmlns:xlink="http://www.w3.org/1999/xlink" x="0px" y="0px"
	 viewBox="0 0 512.001 512.001" style="enable-background:new 0 0 512.001 512.001;" xml:space="preserve">
<g>
	<g>
		<path d="M284.048,419.858l-24.297-14.028c-2.32-1.34-5.18-1.34-7.5,0l-24.297,14.028c-2.32,1.34-3.75,3.815-3.75,6.495v28.057
			c0,2.68,1.43,5.155,3.75,6.495l24.297,14.028c1.16,0.67,2.455,1.005,3.75,1.005c1.295,0,2.59-0.335,3.75-1.005l24.297-14.028
			c2.32-1.34,3.75-3.815,3.75-6.495v-28.057C287.798,423.673,286.368,421.198,284.048,419.858z M272.798,450.081l-16.797,9.698
			l-16.797-9.698v-19.396l16.797-9.698l16.797,9.698V450.081z"/>
	</g>
</g>
<g>
	<g>
		<path d="M298.882,383.073c-2.077-1.555-3.317-4.053-3.317-6.684V139.314c0-2.853,1.453-5.504,3.887-7.091
			c22.663-14.78,36.194-39.716,36.194-66.703c0-24.299-10.921-46.957-29.963-62.163c-4.641-3.706-10.87-4.397-16.259-1.805
			c-5.464,2.629-8.859,8.012-8.859,14.047v43.11l-24.564,14.182l-24.564-14.182V15.632c0-6.043-3.4-11.433-8.874-14.064
			c-5.392-2.593-11.627-1.9-16.268,1.809c-18.94,15.137-29.854,37.684-29.939,61.855c-0.095,26.68,13.46,51.618,36.262,66.707
			c2.391,1.583,3.819,4.217,3.819,7.047v237.403c0,2.63-1.254,5.139-3.355,6.714c-21.273,15.945-31.933,42.275-27.818,68.714
			c4.844,31.14,31.17,56.265,62.595,59.743c2.663,0.295,5.324,0.44,7.975,0.44c17.638,0,34.762-6.444,47.935-18.238
			c15.166-13.579,23.863-33.036,23.863-53.38C327.63,417.637,317.152,396.749,298.882,383.073z M293.76,482.587
			c-12.154,10.883-27.867,15.874-44.253,14.064c-24.815-2.747-45.602-22.572-49.424-47.141
			c-3.259-20.947,5.168-41.794,21.993-54.405c5.861-4.392,9.359-11.389,9.359-18.717V138.985c0-7.877-3.94-15.188-10.541-19.556
			c-18.574-12.292-29.618-32.533-29.541-54.144c0.07-19.609,8.928-37.903,24.303-50.191c0.051-0.041,0.096-0.077,0.172-0.077
			c0.056,0,0.128,0.019,0.231,0.068c0.374,0.18,0.374,0.438,0.374,0.547V63.04c0,2.68,1.43,5.155,3.75,6.495l32.065,18.512
			c2.32,1.34,5.18,1.34,7.5,0l32.065-18.512c2.32-1.34,3.75-3.815,3.75-6.495V15.601c0-0.106,0-0.356,0.363-0.53
			c0.241-0.114,0.309-0.061,0.395,0.009c15.458,12.343,24.323,30.729,24.323,50.441c0,21.898-10.986,42.138-29.388,54.138
			c-6.696,4.367-10.694,11.714-10.694,19.656V376.39c0,7.333,3.487,14.321,9.329,18.693c14.449,10.815,22.736,27.326,22.736,45.299
			C312.63,456.466,305.753,471.849,293.76,482.587z"/>
	</g>
</g>
<g>
	<g>
		<path d="M256,176.361c-4.142,0-7.5,3.358-7.5,7.5v192.39c0,4.143,3.358,7.501,7.5,7.501c4.142,0,7.5-3.358,7.5-7.5V183.861
			C263.5,179.719,260.142,176.361,256,176.361z"/>
	</g>
</g>
<g>
	<g>
		<path d="M256,130.166c-4.142,0-7.5,3.358-7.5,7.5v14.133c0,4.142,3.358,7.5,7.5,7.5c4.142,0,7.5-3.358,7.5-7.5v-14.133
			C263.5,133.524,260.142,130.166,256,130.166z"/>
	</g>
</g>
<g>
</g>
<g>
</g>
<g>
</g>
<g>
</g>
<g>
</g>
<g>
</g>
<g>
</g>
<g>
</g>
<g>
</g>
<g>
</g>
<g>
</g>
<g>
</g>
<g>
</g>
<g>
</g>
<g>
</g>
</svg>
