<?xml version="1.0" encoding="utf-8"?>
<!-- Generator: Adobe Illustrator 24.0.0, SVG Export Plug-In . SVG Version: 6.00 Build 0)  -->
<svg version="1.1" id="svg2" xmlns="http://www.w3.org/2000/svg" xmlns:xlink="http://www.w3.org/1999/xlink" x="0px" y="0px"
	 viewBox="0 0 235.9 307.6" style="enable-background:new 0 0 235.9 307.6;" xml:space="preserve">
<style type="text/css">
	.st0{fill:none;stroke:#FFFFFF;stroke-width:6;stroke-miterlimit:10;}
</style>
<title>nordeste</title>
<path id="path3100" class="st0" d="M204.4,175.4c-0.5-1.3-1.4-4-1.5-4.4c-0.1-0.8-0.4-1.5-0.8-2.2c-0.2-0.2-0.9-0.2-1.7-0.4
	c-0.4-0.1-0.7-0.2-1.1-0.3c-0.3-0.2-0.6-0.4-0.8-0.8c-0.2-0.6-0.3-1.1-0.4-1.7c-0.1-0.7-0.3-1.3-0.8-1.5c-0.2-0.1-0.6,0.2-0.8,0
	s0-0.7-0.3-0.9c-0.7-0.4-1.4-0.7-2.2-1.1c-0.8-0.4-1.5-0.9-2.2-1.5c-0.3-0.3-1-0.2-1.8-0.2s-1.4,0.1-1.7-0.1
	c-0.5-0.4-1.1-0.6-1.7-0.6c-0.7,0-1.4-0.1-2.1-0.3c-0.5-0.1-1-0.4-1.4-0.6c-0.3-0.2-0.5-0.4-0.7-0.7c-0.2-0.5-0.5-1-0.8-1.5
	c-0.1-0.1-0.5,0.1-0.6,0s0.1-0.5,0-0.6c-1.5-0.4-2.9-0.9-4.4-1.4c-0.1,0-0.1-0.3-0.2-0.4c0.4,0.8,0.8,1.6,0.9,1.9
	c0.3,1,0.5,2.1,0.6,3.1c0.1,1,0.4,1.9,0.8,2.8c0.2,0.5,0.6,0.8,1.1,1c0.3,0.1,0.6,0.2,0.9,0.4c0.6,0.9,1.1,2,1.3,3.1
	c0.2,0.6,0.3,1.1,0.3,1.7c0,0.4,0,0.8-0.2,0.8s-1.6,1.6-1.8,1.7c-0.2,0.3-0.2,0.6-0.1,0.9c0.1,0.4,0.2,0.8,0.4,1.2
	c0.2,0.4,0.3,0.8,0.3,1.2c0.1,0.4,0,0.7-0.2,1c-0.1,0.2-0.8,0-1.5-0.1c-0.6-0.2-1.3-0.2-2-0.2c0,0-2.8,2.4-2.9,2.6
	c-0.2,0.8-0.1,1.7,0.3,2.4c0.3,0.9,0.7,1.7,1.2,2.5c0.7,1.4,1.2,2.9,1.9,4.2c0.5,1.3,1.3,2.5,2.2,3.6c0.3,0.2,0.7,0.4,1.1,0.3
	c0.5,0,1.1-0.1,1.6-0.2c0.9-0.3,1.9-0.3,2.8-0.1c0.7,0.4,1.3,1.2,2,1.7c0.9,0.2,1.9,0.4,2.8,0.5
	C193.8,185.3,197.7,178.7,204.4,175.4L204.4,175.4z"/>
<path id="path3098" class="st0" d="M175.5,152.6c0.3,0.4,0.5,0.7,0.8,1.1c0.1,0.2,0.1,0.3,0.2,0.5s0.2,0.3,0.2,0.4
	c1.4,0.6,2.9,1.1,4.4,1.4c0.1,0.1-0.1,0.4,0,0.6s0.4-0.1,0.6,0c0.4,0.5,0.6,1,0.8,1.5c0.2,0.3,0.4,0.5,0.7,0.7
	c0.4,0.3,0.9,0.5,1.4,0.6c0.7,0.2,1.4,0.3,2.1,0.3c0.6,0,1.2,0.2,1.7,0.6c0.3,0.3,1,0.2,1.7,0.1s1.5-0.1,1.8,0.2
	c0.6,0.6,1.4,1.1,2.2,1.5c0.7,0.4,1.5,0.7,2.2,1.1c0.3,0.1,0.1,0.7,0.3,0.9s0.6-0.1,0.8,0c0.4,0.2,0.6,0.8,0.8,1.5
	c0.1,0.6,0.2,1.2,0.4,1.7c0.2,0.3,0.4,0.6,0.8,0.8c0.3,0.2,0.7,0.3,1.1,0.3c0.7,0.1,1.4,0.1,1.7,0.4c0.4,0.7,0.7,1.4,0.8,2.2
	c0.1,0.4,1,3.1,1.5,4.4c0.9-0.5,1.9-1,2.9-1.4c2.8-5.5,7.4-9.6,11-14.4c3.2-3.6,7.9-8.9,10.1-14.5c-2.1,0-5-0.1-5.4-0.1
	c-2,0.1-3.9,0.4-5.8,1c-1.8,0.6-3.5,1.3-5.1,2.2c-0.5,0.1-1.1,0.1-1.6-0.1c-0.7-0.1-1.3-0.2-1.6,0.1c-0.4,0.4-1,1.6-1.4,2
	c-0.2,0.2-0.8,0.2-1.3,0.2s-1.1-0.1-1.3,0.1c-0.9,0.8-2,1.4-3.2,1.8c-0.7,0.2-1.5,0.4-2.2,0.5c-0.7,0.1-1.4,0-2.1-0.2
	c-1.6-0.6-1.9-1.1-3.2-1.8c-0.5-0.2-1.2,0-1.7-0.3c-0.3-0.3-0.6-0.5-0.9-0.9c-0.4-0.3-1-0.4-1.5-0.3c-0.6,0-1.2,0-1.4-0.2
	c-0.6-0.5-1.2-1-1.9-1.4c-0.7-0.4-1.3-0.9-1.8-1.5c-0.3-0.4-0.7-0.8-1.2-1c-0.5-0.3-1.1-0.3-1.7-0.1c-0.9,0.5-1.8,1.2-2.4,2
	c-0.7,1-1.4,2.1-1.9,3.2C177.1,151.1,176.4,151.9,175.5,152.6L175.5,152.6z"/>
<path id="path3104" class="st0" d="M156.5,139.1c-0.4,0-0.7,0.1-1.1,0.2c-0.5,0.1-1.1,0.3-1.5,0.6c-0.2,0.2-3.8,0.7-4.6,1.2
	c-0.6,0.3-1.1,0.8-1.4,1.4c-0.4,0.7-0.7,1.4-1,2.1c-0.3,0.8-0.6,1.5-0.9,2.2c-0.3,0.7-0.6,1.3-1.1,1.8c-0.4,0.3-0.8,0.6-1.3,0.7
	c-0.5,0.2-1.1,0.3-1.6,0.3c-0.9,0-1.8,0.3-2.5,0.7c-0.3,0.3-0.4,1.3-0.6,1.7s-0.7,0.4-0.9,0.6s0.1,0.7,0,0.9c-0.5,0.5-1.1,0.8-1.8,1
	c-0.8,0.1-1.5,0.2-2.3,0.1c-0.2,0-1,0.1-1.2,0c-0.3-0.3-0.2-1.1,0-1.9s0.3-1.6,0-1.9s-1.1-0.2-1.4-0.6c-0.3-0.5-0.5-1.1-0.5-1.7
	c0-0.6-0.1-1.3-0.4-1.8c-0.1-0.3-0.4-0.4-0.7-0.4c-0.3,0-0.5,0-0.8-0.1c-0.5-0.3-0.9-1.2-1.2-1.4c-0.6-0.5-1.4-1-2.1-1.2
	c-0.3-0.2-0.6-0.4-0.9-0.8c-0.2-0.4-0.4-0.8-0.4-1.3c-0.5,0.9-1.1,1.7-1.8,2.4c-0.4,0.5-1.5,0.6-2.3,1.2c-1.4,1-2.6,2.2-3.8,3.5
	c-0.3,0.5-0.4,1-0.4,1.5c0,0.5-0.2,1-0.4,1.4c-1.1,0-2.2-0.1-3.3-0.3c-0.8-0.1-1.6-0.2-2.3-0.2c-0.4,0-0.9,0.1-1.3,0.3
	c-0.2,0.2-0.5,0.4-0.8,0.4c-0.6,0.2-1.1,0.6-1.5,1c-0.7,0.6-1,1.7-1.7,2.3c-0.8,0.7-1.6,1.2-2.5,1.6c-0.9,0.4-1.8,0.8-2.7,1.3
	c-0.4,0.2-0.8,0.3-1.2,0.1c-0.3-0.2-0.6-0.5-0.7-0.9c-0.2-0.8-0.5-1.6-0.8-2.4c-0.2-0.2-2.2,0.1-2.6,0c-1.6-0.4-3.1-0.7-4.6-1.2
	c-0.8-0.4-1.5-0.8-2.1-1.4c-0.3-0.3-0.7-0.5-1.2-0.6c-0.5-0.1-1,0-1.4,0.2c-0.4,0.2-0.7,0.9-0.8,1.6c-0.1,0.6-0.3,1.1-0.6,1.6
	c-0.1,0.1-0.5-0.1-0.6,0s0.1,0.5,0,0.6c-0.5,0.5-0.9,0.5-1.1,0.7s-0.3,0.6-0.3,1.9c0,0.1-0.1,0.8,0,0.9c0.6,0.8,1.1,1.7,1.5,2.6
	c0.3,0.6,0.5,1.2,0.7,1.8c0.1,0.5,0.1,0.9-0.1,1.1c-0.2,0.2-0.5,0.3-0.7,0.4c-0.3,0.2-0.6,0.4-0.8,0.7c-0.3,0.8-0.5,1.6-0.6,2.4
	c-0.1,0.8-0.4,1.6-0.8,2.3c-1.5,2.3-3.3,4.4-5.2,6.4c-0.3,0.3-1.5,0.1-2.9-0.1c-1.2-0.3-2.5-0.3-3.7-0.2c-0.8,0.2-1.6,0.5-2.4,0.8
	c-0.7,0.3-1.4,0.7-2,1.2c-0.8,0.2-1.7,0.2-2.6,0.1c-1.2-0.1-2.3-0.1-2.4-0.1c-0.8,0.1-1.6,0.1-2.3,0c-0.5-0.5-0.8-1.1-1.1-1.8
	c-0.4-0.9-0.9-2.2-1.5-3.4c-0.6-1.3-1.2-2.5-2-3.7c-0.6-1-1.4-1.8-2.4-2.4c-0.2-0.1-1.2,1.2-1.4,1.4c-0.3,0.3-0.8,0.4-1.2,0.3
	c-0.4,0-0.7,0-1.1,0c0,0.1,0,0.1,0,0.2l0.3,0.1c-1,1.2-3.2,3.4-5.3,5.6c-1.7,1.7-3.2,3.5-4.6,5.4c-0.5,1-0.8,2.1-1,3.2
	c-0.1,1.1-0.1,2.1,0.1,3.2c0.4,2.3,1.1,4.6,1.9,6.9c0.2,0.8,0.3,1.6,0.3,2.4c0,0.8-0.1,1.6-0.2,2.5c-0.1,0.8-0.1,1.7-0.2,2.5
	c0,0.8,0.1,1.6,0.3,2.4c0.9,2.9,1.3,3.4,1.5,3.6s0.3,0,0.4,0.1s0.3,0.3,0.6,0.9c0.2,1.2,0.3,2.5,0.2,3.7c0,0.8,0,1.7-0.2,2.5
	c-0.1,0.7-0.3,1.2-0.7,1.3c-0.7,0.2-1.5,0.3-2.2,0.3c0.3,1.1,0.5,2.2,0.8,2.6s1.3,1,1.5,1.2c0.2,0.3,0.3,0.7,0.3,1.1
	c0,0.5-0.1,1.1-0.2,1.6c-0.3,0.9-0.3,1.9-0.1,2.9c0.2,0.3,0.5,0.6,0.9,0.8c0.2,0.1,0.4,0.3,0.5,0.4c0.2,0.2,0.2,0.8,0.1,1.5
	s-0.3,1.6-0.5,2.6c-0.2,0.9-0.3,1.8-0.4,2.7c-0.1,0.7,0.1,1.4,0.6,2c0.1,0.1-0.2,0.7,0,0.9c0.4,0.4,1.1,0.8,1.4,1.2
	c0.1,0.1-0.1,0.4,0,0.6c0.4,0.4,0.9,0.6,1.5,0.7c0.5,0.1,1,0.4,1.4,0.7c0.2,0.2,0.3,0.6,0.2,0.9c0,0.4-0.1,0.7-0.3,1.1
	c-0.3,0.8-0.7,1.5-0.8,1.8c-0.3,1.2-0.4,2.4-0.2,3.6c0.1,1.3,0.2,2.7,0.2,3.7c0,0.2-0.2,1.3,0,1.4s0.9,0.6,1.2,0.9
	c0.8,0.2,1.7,0.2,2.5-0.1c0.7-0.1,1.5-0.3,2.2-0.5c0.4-0.5,0.8-1.2,1-1.8c0.2-0.7,0.6-1.3,1.3-1.7c0.3-0.1,0.8,0.2,1.2,0
	c1.1-0.7,2.1-1.6,2.9-2.6c0.2-0.1,0.7,0.1,0.9,0c0.8-0.7,1.7-1.2,2.8-1.5c1-0.3,2-0.7,3-1.1c0.3-0.1,0.7,0.2,0.9,0l2-2
	c0.2-0.2,0.5-0.4,0.8-0.5c0.3-0.2,0.4-0.6,0.4-0.9c0-0.4,0-0.3,0.2-0.3s0.2,0.1,0.4,0s0.6-0.9,0.9-1.2c0.8-0.3,1.7-0.4,2.6-0.2
	c1.2,0.1,2.4,0.2,2.9,0.2s1.6-0.1,2.8-0.2c0.8-0.1,1.7-0.1,2.5,0.2c0.2,0.2,0.2,0.7,0.1,1.2c-0.1,0.4-0.2,0.9-0.1,1.3
	c1.5,2.2,3.3,4,5.5,5.5c0.6,0.3,2,0,2.6,0c0.6,0,1.2-0.1,1.8-0.3c0.3-0.2,0.6-0.4,1-0.4c0.5-0.1,1-0.1,1.5,0
	c1.3,0.2,2.6,0.5,3.8,0.9c2.1,0.6,4,1.5,5.8,2.7c0.4,0.4,1.8,0.6,2,0.9s1.5,1,1.8,1.4c0.1,0.2-0.1,0.5,0,0.6s4,1.4,4.6,1.7
	c0.5,0.2,1,0.3,1.5,0.2c0.6,0,1.2-0.1,1.8-0.2c0.6-0.1,1.2-0.2,1.8-0.2c0.5,0,1,0,1.5,0.2c0.5,0.3,0.9,0.8,1.2,1.3
	c0.3,0.5,0.5,0.9,0.8,1.3c0.3,0.3,1.4-0.1,1.8,0.3s1.1,1.7,1.4,2s0.2,0.9,0.1,1.7s-0.1,1.5,0.2,1.8c1.4,0.2,2.8,0.2,4.2,0.2
	c1.6-0.1,3.2,0,4.8,0.1c1.3,0.4,2.6,0.6,3.9,0.8c1.2,0.1,2.5,0.4,3.6,0.9c0.4,0.1,0.9,0.1,1.4-0.1c0.5-0.1,1.1-0.1,1.3,0.1
	c1.2,1.2,2.8,1.7,4,2.9c0.2,0.2,0.7,0.7,1.1,1.3c0-0.2,0-0.4,0-0.7c0,0.2,0,0.4,0,0.7c0,0.2,0,0.3,0,0.5c0,0.4,0.3,2.6,0,2.9
	s-1.2-0.2-1.4,0c-0.1,0.1,0,0.2,0,0.3s-0.1,0.4-0.3,0.6c-1.6,1.2-3.2,2.3-5,3.2c-0.8,0.5-1.6,1.1-2.2,1.8c-0.7,0.6-1.2,1.4-1.5,2.3
	c-0.3,1.3-0.4,2.7-0.3,4.1c0.1,1.5,0.3,3.1,0.3,4.3v4.4c0,0.2-0.2,0.3-0.4,0.5c-0.2,0.2-0.3,0.4-0.2,0.6c0.1,0.4,0.2,0.9,0.3,1.2
	c0.1,0.4,0.3,0.8,0.6,1.1c0.9,0.6,1.8,1,2.8,1.3c0.6,0.2,1.1,0.4,1.6,0.7c0.4,0.2,0.8,0.5,1,0.9c0.3,0.5-0.3,1.5,0,2
	c0.6,0.7,1.3,1.2,2.2,1.5c1,0.4,2.1,0.8,2.7,1.1c0.3,0.2,0.6,0.5,0.8,0.8c0.3,0.4,0.8,0.7,1.3,0.9c1.1,0.3,2.2,0.4,3.2,0.3
	c0.7,0,1.1,0,1.7,0c0.9-1.5,2.2-2.7,3.6-3.6c6.5-2.1,0.1-10.7,3.4-15.8c0.6-5.1,1.5-10.7,3.4-14.2c3.4-6.7-2-13.5-1-21.1
	c-2.6-6.3,2.8-14.3,0.3-21.2c2.5-1.1,0.8-3.3,1.5-5.6c-3.7-2.5,5.5-6.9,5.7-7.6c3.4,2.8,8.9-6.1,11.4-9.8c3.1-4.2,5.6-9.3,8.1-14.2
	c-1-0.1-1.9-0.2-2.8-0.5c-0.6-0.6-1.3-1.1-2-1.6c-0.9-0.2-1.9-0.2-2.8,0.1c-0.5,0.1-1.1,0.2-1.6,0.2c-0.4,0-0.8-0.1-1.1-0.3
	c-0.9-1.1-1.7-2.3-2.2-3.6c-0.6-1.4-1.2-2.9-1.9-4.2c-0.1-0.3-0.4-0.8-0.6-1.2s-0.4-0.8-0.6-1.3c-0.4-0.7-0.5-1.6-0.3-2.4
	c0.1-0.2,2.8-2.6,2.9-2.6c0.7-0.1,1.4,0,2,0.2c0.7,0.1,1.4,0.3,1.5,0.1c0.2-0.3,0.3-0.6,0.2-1c-0.1-0.4-0.2-0.8-0.3-1.2
	c-0.2-0.4-0.3-0.8-0.4-1.2c-0.1-0.3,0-0.6,0.1-0.9c0.2-0.2,1.5-1.7,1.8-1.7s0.2-0.3,0.2-0.8c-0.1-0.6-0.2-1.2-0.3-1.7
	c-0.2-1.1-0.7-2.1-1.3-3.1c-0.3-0.2-0.6-0.3-0.9-0.4c-0.5-0.2-0.9-0.5-1.1-1c-0.4-0.9-0.6-1.9-0.8-2.8c-0.1-1-0.3-2.1-0.6-3.1
	c-0.3-0.7-0.6-1.3-0.9-1.9c-0.4-0.5-0.7-1.1-1.1-1.7c-0.1,0.1-0.4,0.6-0.5,0.5c-0.4-0.6-0.5-1.2-0.4-1.9c0.1-0.7-0.1-1.3-0.4-1.9
	c-0.5-0.4-1.1-0.5-1.8-0.5c-0.6,0.1-1.2-0.1-1.7-0.4c-0.3-0.5-0.5-1-0.6-1.5c-0.1-0.6-0.4-1.1-0.8-1.4c-1.1-0.6-2.2-1.2-3.2-2
	c-0.4-0.4-4.5-1.2-5.5-1.7c-0.7-0.4-1.3-0.8-1.8-1.4c-0.4-0.5-0.9-0.9-1.4-1.2c-0.3-0.1-0.6-0.2-0.9-0.2L156.5,139.1z M149.1,221.4
	c0,0.5-0.1,1.1-0.1,1.5C149,222.5,149.1,221.9,149.1,221.4L149.1,221.4z M163,247.8c0,0,0,0.1,0,0.2S163.1,247.9,163,247.8
	C163.1,247.7,163,247.8,163,247.8L163,247.8z"/>
<path id="path3087" class="st0" d="M149.2,117.5c-0.8,0-1.5,0.2-2.2,0.5c-0.2,0.1-0.4,0.4-0.4,0.6c-0.1,0.2-0.2,0.3-0.7,0.4
	c-1,0.2-2.1,0.2-3.1,0.2H135c-0.4,0.5-0.8,1.1-1.2,1.8c-0.3,0.8-0.4,1.6-0.4,2.4c0,1,0.1,2.2,0.2,3.3c0.1,1.2,0.1,2.3,0.1,3.4
	c0.1,1.7-0.6,3.4-1.9,4.6c-0.6,0.5-1.2,1-1.9,1.5c-1.4,0.8-2.7,1.8-3.9,3c-0.6,0.7-1.2,1.5-1.7,2.2c0.1,0.5,0.2,0.9,0.4,1.3
	c0.2,0.3,0.5,0.6,0.9,0.8c0.8,0.3,1.5,0.7,2.1,1.2c0.3,0.3,0.6,1.2,1.2,1.4c0.2,0.1,0.5,0.1,0.8,0.1c0.3,0,0.5,0.2,0.7,0.4
	c0.3,0.6,0.4,1.2,0.4,1.9c0,0.6,0.2,1.2,0.5,1.6c0.3,0.3,1.1,0.2,1.4,0.6s0.2,1.1,0,1.9s-0.3,1.6,0,1.9c0.1,0.1,1,0,1.2,0
	c0.8,0,1.5,0,2.3-0.1c0.7-0.1,1.3-0.5,1.8-1c0.1-0.1-0.1-0.7,0-0.9s0.7-0.2,0.9-0.6s0.3-1.4,0.6-1.7c0.8-0.4,1.6-0.7,2.5-0.7
	c0.6-0.1,1.1-0.2,1.6-0.4c0.5-0.1,0.9-0.4,1.3-0.7c0.5-0.5,0.9-1.1,1.1-1.8c0.3-0.7,0.6-1.4,0.9-2.2c0.3-0.7,0.6-1.4,1-2.1
	c0.3-0.6,0.8-1.1,1.4-1.4c0.8-0.4,4.4-0.9,4.6-1.1c0.5-0.3,1-0.5,1.5-0.6c0.7-0.2,1.3-0.2,2,0c0.5,0.3,1,0.8,1.4,1.2
	c0.5,0.6,1.1,1,1.8,1.4c1,0.5,5.1,1.3,5.5,1.7c1,0.8,2.1,1.4,3.2,2c0.4,0.3,0.7,0.8,0.8,1.4c0.1,0.5,0.3,1,0.6,1.5
	c0.3,0.3,1,0.3,1.7,0.4c0.6-0.1,1.3,0.1,1.8,0.5c0.4,0.6,0.5,1.2,0.4,1.9c-0.1,0.7,0.1,1.3,0.4,1.9c0.2,0.2,2.3-2.2,2.6-2.9
	c0.5-1.1,1.2-2.2,1.9-3.2c0.6-0.8,1.5-1.5,2.4-2c0.5-0.2,1.2-0.1,1.7,0.2c0.5,0.3,0.9,0.6,1.2,1.1c0.5,0.6,1.1,1.2,1.8,1.5
	c0.7,0.4,1.3,0.9,1.9,1.4c0.2,0.2,0.8,0.2,1.4,0.2c0.5-0.1,1,0.1,1.5,0.3c0.3,0.3,0.5,0.6,0.9,0.9c0.5,0.2,1.2,0,1.7,0.3
	c1.2,0.6,1.5,1.2,3.2,1.8c0.7,0.2,1.4,0.3,2.1,0.2c0.8-0.1,1.5-0.2,2.2-0.5c1.2-0.4,2.3-1,3.2-1.8c0.2-0.2,0.7-0.2,1.3-0.1
	s1.1,0.1,1.3-0.2c0.4-0.4,1-1.6,1.4-2c0.2-0.2,0.9-0.2,1.6-0.1c0.5,0.1,1.1,0.2,1.6,0.1c1.6-0.9,3.4-1.6,5.1-2.2
	c1.9-0.6,3.8-0.9,5.8-1c0.4,0,3.3,0.1,5.4,0.1c0.5-1.1,0.9-2.2,1.1-3.3c2.1-4.4,3.4-9.2,3.8-14.1c0.1-1.5,0.3-4.1,0.5-6.6
	c-0.6,0-1.3,0.1-2.4,0.2c-1,0.1-2,0.1-2.9-0.1c-0.4-0.3-0.9-0.7-0.9-1.2c0,0-2.8,0-2.9,0s-1-0.2-1.7-0.3s-1.5-0.2-1.8,0.1
	c-0.2,0.2-0.3,0.5-0.3,0.8c0,0.3,0,0.7,0.1,1c0.2,0.7,0.2,1.3,0,2c-0.1,0.3-0.5,0.3-0.9,0.4s-0.7,0-0.9,0.2c-0.4,0.4-0.7,0.9-1,1.3
	c-0.3,0.5-0.8,1-1.3,1.3c-0.6,0.2-1.2,0.4-1.8,0.3c-0.7,0-1.4-0.1-2.2-0.2c-1.4-0.3-2.8-0.3-4.1-0.2c-0.6,0.1-1.2,0.4-1.6,0.8
	c-0.4,0.5-1,0.8-1.6,0.9c-0.4,0.1-1.6-0.2-2,0c-0.3,0.2-0.6,0.4-0.9,0.8c-0.2,0.3-0.3,0.7-0.3,1c-0.1,0.8-0.3,1.6-0.6,2.4
	c-0.3,0.5-0.7,0.8-1.2,1c-0.5,0.2-1.1,0.4-1.7,0.7c-1.1,0.1-2.2,0-3.2-0.2c-1-0.1-1.9-0.2-2.8-0.4c-0.2-0.2-0.3-0.6-0.2-0.9
	c0-0.4,0.1-0.9,0.2-1.3c0.1-0.4,0.2-0.9,0.2-1.3c0.1-0.3,0-0.6-0.2-0.9c-0.3-0.3-1.1-0.2-1.8-0.4c-0.3,0-0.6-0.2-0.7-0.5
	c-0.1-0.4-0.1-0.8,0.2-1.2c0.3-0.5,0.7-1,1.2-1.2c0.6-0.2,1-0.6,1.3-1.2c0,0-0.3-0.5-0.5-0.9c-0.1-0.2-0.2-0.5-0.2-0.8
	c0-0.2,0-0.5,0.2-0.6c0.3-0.3,1.1-0.2,1.4-0.6s0.2-0.9,0.6-0.9s0.1-0.3-0.3-0.7c-0.4-0.4-0.9-0.7-1.4-1c-0.2-0.1-0.1-1-0.3-1.2
	c-2.5,0.3-5.1,0.8-7.5,1.4c-0.2,0.1-0.2,1-0.3,1.2c-0.4,0.4-3.6,4.3-3.8,4.6c-0.3,0.4-0.7,0.8-1.1,1.2c-0.2,0.2-0.5,0.4-0.8,0.5
	c-0.3,0.1-0.6,0-0.8-0.2c-0.2-0.2-0.9-1.6-1.4-1.8c-2.2-0.6-4.4-1-6.6-1.2c-2-0.2-3.8-0.4-5.6-0.6c-0.2,0.4-0.5,0.8-0.8,1.2
	c-0.7,0.3-1.4,0.5-2.1,0.4c-0.8,0.1-1.5,0-2.2-0.1c-0.1-0.1-5.4-3.1-5.8-3.5s-1.2-1.3-2.1-2.3S149.6,117.5,149.2,117.5L149.2,117.5z
	"/>
<path id="path3084" class="st0" d="M190.9,96.6c-0.4-0.2-0.7,0.3-1.7,0.3c-1,0-2,0.1-3,0.3c-0.4,0.1-0.8,0.3-1.1,0.7
	c-0.1,0.3-0.2,0.6-0.2,0.9c-0.1,0.3-0.3,0.6-0.7,0.8c-0.5,0.2-1.1,0.4-1.8,0.7c-0.6,0.2-1.2,0.6-1.7,1c-0.7,0.7-0.8,1.7-1.5,2.3
	c-0.3,0.3-5.7,0.4-5.8,0.3c-0.5-0.4-1.1-0.8-1.8-1.2c-0.8-0.3-1.7-0.5-2.6-0.7c-0.8,2.3-1.6,3.8-2.3,6.2c-0.2,0.6-0.2,1.2-0.2,1.9
	c0,0.6,0.1,1.3,0.2,1.9c0.2,2.2,0.2,4.5-0.1,6.8c-0.2,1-0.5,2-1,2.9c-0.4,0.7-0.8,1.3-1.3,1.9c1.7,0.2,3.6,0.4,5.6,0.6
	c2.2,0.2,4.5,0.6,6.6,1.2c0.6,0.2,1.2,1.5,1.4,1.8c0.2,0.2,0.5,0.3,0.8,0.2c0.3-0.1,0.6-0.3,0.8-0.5c0.4-0.3,0.8-0.7,1.1-1.2
	c0.2-0.3,3.4-4.2,3.8-4.6c0.1-0.1,0.1-1,0.3-1.2c2.5-0.6,5-1.1,7.5-1.4c0.1,0.1,0.1,1,0.3,1.2c0.5,0.3,1,0.6,1.4,1
	c0.4,0.4,0.6,0.7,0.3,0.7s-0.4,0.6-0.6,0.9s-1.2,0.3-1.4,0.6c-0.2,0.2-0.2,0.4-0.2,0.6c0,0.3,0.1,0.5,0.2,0.8
	c0.2,0.5,0.6,0.9,0.5,0.9c-0.3,0.5-0.7,0.9-1.2,1.2c-0.5,0.2-1,0.6-1.3,1.2c-0.2,0.3-0.3,0.8-0.2,1.2c0.2,0.3,0.4,0.4,0.7,0.5
	c0.6,0.2,1.5,0.1,1.8,0.4c0.2,0.3,0.2,0.6,0.2,0.9c0,0.4-0.1,0.9-0.2,1.3c-0.1,0.4-0.2,0.8-0.2,1.3c0,0.3,0,0.6,0.2,0.9
	c0.9,0.2,1.9,0.3,2.8,0.4c1.1,0.2,2.2,0.3,3.2,0.2c0.5-0.3,1.1-0.5,1.7-0.7c0.5-0.2,0.9-0.5,1.2-1c0.3-0.7,0.5-1.5,0.6-2.4
	c0-0.3,0.2-0.7,0.3-1c0.2-0.3,0.5-0.6,0.9-0.8c0.4-0.2,1.6,0.1,2,0c0.6-0.1,1.2-0.4,1.6-0.9c0.4-0.4,1-0.7,1.6-0.8
	c1.4-0.1,2.8-0.1,4.1,0.2c0.7,0.1,1.4,0.2,2.2,0.2c0.6,0,1.2-0.1,1.8-0.3c0.5-0.3,1-0.8,1.3-1.3c0.3-0.5,0.6-0.9,1-1.3
	c0.2-0.2,0.5-0.2,0.9-0.2s0.7-0.1,0.9-0.4c0.2-0.7,0.2-1.3,0-2c-0.1-0.3-0.1-0.7-0.1-1c0-0.3,0.1-0.6,0.3-0.8c0.2-0.2,1-0.2,1.8-0.1
	s1.5,0.3,1.7,0.3s2.9,0,2.9,0c0,0.5,0.5,0.8,0.9,1.2c1,0.2,2,0.2,2.9,0.1c1.1-0.1,1.9-0.2,2.4-0.2c0.2-3.4,0.2-6.7-0.6-7.5
	c-0.3-0.3-1.4-5.5-2.4-9.2c-0.8,0-2-0.1-3.6-0.3c-1.4-0.1-2.8-0.4-4.1-0.8c-0.7-0.3-1.5-0.4-2.2-0.3c-0.9,0-2,0.1-3,0.2
	s-2.1,0.3-3,0.3c-0.8,0.1-1.6,0-2.4-0.2c-0.7-0.2-2.1-1.1-3.6-1.8c-0.6-0.3-1.3-0.6-2-0.9c-0.4-0.2-0.9-0.3-1.4-0.2
	c-0.3,0.2-0.6,0.4-0.8,0.8c-0.2,0.4-0.3,0.8-0.4,1.2c-0.1,1-0.2,2-0.1,3.1c0.1,1.1,0,2.2-0.1,3.2c0,0.9-0.4,1.8-1,2.5
	c-0.3,0.3-0.8,0.3-1.4,0.1c-0.7-0.2-1.4-0.5-2-0.9c-1.4-0.8-2.7-1.8-2.9-1.9c-0.6-0.2-1.3-0.4-1.9-0.3c-0.7,0-1.5,0.1-2.3,0.2
	c-0.7,0.1-1.5,0.1-2.2,0c-0.6,0-1.2-0.3-1.7-0.7c-0.4-0.3,0-1-0.3-1.5c-0.3-0.5-0.5-1.1-0.5-1.7c0-0.5,0-1,0.2-1.5
	c0.3-0.9,0.8-1.7,1.4-2.5c0.5-0.6,1.1-1.2,1.5-1.9c0.2-0.2,0.3-0.5,0.3-0.8c0-0.3-0.1-0.5-0.3-0.7C190.8,97,191.2,96.7,190.9,96.6
	L190.9,96.6z"/>
<path id="path3079" class="st0" d="M191.9,74.9c-0.8,0.4-1.6,0.6-2.4,0.6c-1.2,0.1-2.4,0.1-2.9,0.2c-1,0.4-2,0.9-2.9,1.4
	c-0.2,0.1-0.3,0.4-0.3,0.8c-0.1,0.5-0.1,1-0.1,1.5c0.1,0.9,0,1.7-0.1,2.6c-0.3,0.6-0.7,1.1-1.1,1.6c-0.3,0.3-0.5,0.4-0.9,0.8
	c-0.5,0.6-0.9,1.4-1.2,2.2c-0.3,0.9-0.6,1.8-0.9,2.4c-0.5,1.1-1.1,2.1-1.8,3.1c-0.7,1-1.4,1.9-2.2,2.7c-0.2,0.2-1.2,0.1-1.4,0.3
	c-0.8,0.5-1.5,1.1-2.2,1.7c-0.7,0.7-1.2,1.5-1.6,2.3c-0.2,0.6-0.1,1.3-0.3,2c-0.1,0.3-0.2,0.5-0.3,0.8c0.9,0.2,1.7,0.4,2.6,0.7
	c0.6,0.3,1.2,0.7,1.8,1.2c0.1,0.1,5.5,0,5.8-0.3c0.7-0.7,0.8-1.7,1.5-2.3c0.5-0.4,1.1-0.8,1.7-1c0.6-0.3,1.3-0.4,1.8-0.7
	c0.3-0.1,0.6-0.4,0.7-0.8c0.1-0.3,0.1-0.6,0.2-0.9c0.2-0.4,0.6-0.6,1.1-0.7c1-0.2,2-0.3,3-0.3c1,0,1.3-0.5,1.7-0.3
	c0.2,0.1-0.1,0.5,0,0.6c0.2,0.2,0.3,0.4,0.3,0.7c0,0.3-0.1,0.5-0.3,0.8c-0.5,0.7-1,1.3-1.5,1.9c-0.6,0.7-1.1,1.6-1.4,2.5
	c-0.1,0.5-0.2,1-0.2,1.5c0.1,0.6,0.3,1.2,0.5,1.7c0.2,0.5-0.1,1.1,0.3,1.5c0.5,0.4,1.1,0.7,1.7,0.7c0.7,0.1,1.5,0.1,2.2,0
	c0.8-0.1,1.6-0.2,2.3-0.2c0.6,0,1.3,0.1,1.9,0.3c0.2,0.1,1.5,1.1,2.9,1.9c0.6,0.4,1.3,0.7,2,0.9c0.6,0.2,1.1,0.2,1.4-0.1
	c0.6-0.7,1-1.6,1-2.5c0.1-1.1,0.1-2.2,0.1-3.2c-0.1-1,0-2,0.1-3.1c0.1-0.4,0.2-0.8,0.4-1.2c0.2-0.3,0.4-0.6,0.8-0.8
	c0.5-0.1,0.9-0.1,1.4,0.2c0.7,0.3,1.4,0.6,2,0.9c1.4,0.7,2.9,1.6,3.6,1.8c0.8,0.2,1.6,0.3,2.4,0.2c1,0,2-0.2,3-0.3s2.1-0.2,3-0.2
	c0.8-0.1,1.5,0.1,2.2,0.3c1.3,0.4,2.7,0.7,4.1,0.8c1.5,0.2,2.8,0.3,3.6,0.3c-0.2-0.8-0.3-1.3-0.5-1.9c-2.9-6.7-1.9-14.9-8.2-21
	c-6.8-3.4-16,0.4-21.7-2C197.6,77.1,194.1,77.7,191.9,74.9L191.9,74.9z"/>
<path id="path3076" class="st0" d="M143,41c-3.7-0.2-7.4,0.1-11.1,0.8c-2.5,0.3-5.1,0.7-7.7,0.7c-0.6,1.6-1.1,3.3-1.3,5.1
	c-0.2,1.2-0.3,2.5-0.4,3.7c-0.1,0.9,0,1.8,0.2,2.7c0.3,1.3,0.8,2.6,1.4,3.8c0.5,0.9,1,1.7,1.8,3.2c0.2,0.7,0.3,1.4,0.3,2.2
	c0,1,0,2.2,0,3.4c-0.1,2.4-0.3,5-0.3,6c0,0.5,0.1,0.9,0.2,1.4c0.1,0.4,0.1,0.9-0.2,1.2c-0.4,0.5-0.7,1.1-0.8,1.7
	c-0.2,0.8-0.2,1.6-0.1,2.4c0,0.2,0.4-0.1,0.6,0s0.7,0.3,1.1,0.5c0.4,0.1,0.7,0.4,0.9,0.7c0.2,0.7,0.2,1.5,0,2.2
	c-0.2,0.7-0.2,1.5,0,2.2c0.2,0.4,0.5,0.8,0.8,1.2c0.3,0.5,0.6,1.1,0.7,1.7c0.2,1.2,0.3,2.3,0.3,3.5c0,1.2,0,2.4,0,3.6s0,2.5,0.1,3.8
	c0.1,1.3,0.3,2.7,0.7,3.9c0.1,0.2,0.5,0.1,0.6,0.3c0.6,1.2,1.5,2.3,2.4,3.2c1,1,2.1,1.9,3.1,2.9c0.2,0.2,0.9,0,1.2,0.3
	s0.2,5.4,0,6.1c-0.4,1-1,1.8-1.7,2.6c-0.3,0.4-0.6,1-0.9,1.4h7.8c1,0,2.1,0,3.1-0.2c0.5-0.1,0.6-0.3,0.7-0.4c0-0.2,0.2-0.5,0.4-0.6
	c0.7-0.3,1.5-0.5,2.2-0.5c0.4,0,1.3,0.8,2.2,1.8s1.8,2,2.1,2.3s5.7,3.4,5.8,3.5c0.7,0.1,1.5,0.2,2.2,0.1c0.7,0,1.4-0.1,2.1-0.4
	c0.8-0.9,1.5-2,2.1-3.1c0.5-0.9,0.8-1.9,1-2.9c0.3-2.2,0.3-4.5,0.1-6.8c0-0.6-0.1-1.3-0.2-1.9c-0.1-0.6,0-1.3,0.2-1.9
	c0.8-2.7,1.7-4.1,2.6-7c0.2-0.7,0-1.4,0.3-2c0.4-0.9,0.9-1.7,1.6-2.3c0.7-0.6,1.4-1.2,2.1-1.7c0.3-0.2,1.2-0.1,1.4-0.3
	c0.8-0.8,1.6-1.7,2.2-2.7c0.7-1,1.3-2,1.8-3.1c0.3-0.6,0.6-1.6,0.9-2.4c0.2-0.8,0.6-1.5,1.2-2.2c0.4-0.4,0.6-0.5,0.9-0.8
	c0.5-0.4,0.8-0.9,1.1-1.5c0.2-0.8,0.2-1.7,0.1-2.6c0-0.5,0-1,0.1-1.5c0.1-0.4,0.1-0.7,0.3-0.8c0.9-0.6,1.9-1.1,2.9-1.5
	c0.5-0.1,1.7-0.1,2.9-0.2c0.8,0,1.7-0.2,2.4-0.6c-0.5-0.5-0.9-1-1.2-1.7c-5.5-1.2-7.6-6.1-12.5-9.2c-2.7-2.9-4-6.3-7.1-7.5
	c-6.9-3.4-10.4-8.1-17.7-11.3C150.6,42.7,146.9,41.2,143,41L143,41z M146.3,41.3c-0.1,0.1,0,0.2,0.2,0
	C146.4,41.2,146.3,41.3,146.3,41.3z"/>
<path id="path3061" class="st0" d="M115.4,39.3c-0.2,0-0.5,0-0.7,0c0,0.1-0.1,0.1-0.1,0.2c-0.5,1.2-1,2.8-1.5,4.3s-1,3-1.4,4.1
	s-0.8,1.9-1.1,2c-1,0.3-2,0.5-3,0.4c-0.8-0.1-1.4-0.3-2-0.3c-0.6-0.1-1.3,0-1.8,0.3c-0.9,0.6-1.8,1.4-2.4,2.3
	c-0.5,0.7-0.8,2.3-1.2,3.2c-0.3,0.6-1,2.3-1.9,4c-0.6,1.4-1.3,2.6-2.2,3.8c-0.1,0.1-0.8,0.2-0.9,0.3c0.1,1.4,0.3,2.8,0.7,4.1
	c0.4,2,1,4.1,1.1,4.6c0,0.2-0.3,1.6-0.5,3.1c-0.1,0.7-0.2,1.5-0.3,2.2c0,0.6,0,1.1,0.2,1.7c0.4,0.8,1.1,1.5,1.4,2.3
	c0.2,0.4,0.3,0.9,0.2,1.3c-0.1,0.6-0.4,1.1-0.8,1.6c-0.6,0.8-1.4,1.6-2.2,2.2c-0.7,0.6-1.3,1.3-1.6,2.1c-0.1,1.4,0,2.7,0.2,4.1
	c0.1,1.2,0.4,2.3,0.6,3.4c0.2,0.2,1.6,1.2,1.8,1.4s0.5,2.3,0.4,4.3c0.1,1.4-0.1,2.8-0.4,4.1c-0.2,0.2-1,0.2-1.2,0.6
	c-0.2,0.4-0.3,0.8-0.3,1.2c-0.1,0.5-0.3,1-0.6,1.3c-0.3,0-0.6,0-0.9,0h-3.8c-0.3,0-0.5,0.2-0.6,0.5c0,0.3-0.1,0.6-0.2,0.9
	c-0.1,0.3-0.4,0.5-0.7,0.4c-0.8-0.2-1.5-0.5-2.1-1c-0.1-0.5-0.3-0.9-0.5-1.3c-0.3-0.4-0.8-0.7-1.3-0.8c-0.9-0.2-1.8-0.3-2.8-0.2
	c-0.9,0-1.9,0.2-2.8,0.4c-0.5,0.2-0.7,0.4-0.8,0.6s-0.1,0.6-0.3,1c-0.2,0.6-0.6,1.1-1,1.4c-2,1.9-4.3,3.5-6.4,5.2
	c-0.8,0.8-1.7,1.6-2.6,2.3c-5.1,3-7.4,4.4-8.2,4.8c-0.4,0.2-0.4,0.1-0.3,0c0.3-0.3,0.5-0.6,0.8-0.8c0.4-0.3,0.8-0.7,1.1-1.1
	s0.4-0.6,0.3-0.7s-0.5-0.1-1.4,0.2s-2.2,0.8-4.2,1.7c-0.4,0.2-0.7,0.5-0.9,0.9c-0.2,0.4-0.4,0.8-0.6,1.2c-1.3,2.4-2.5,4.8-3.8,7.2
	c-0.9,1.9-1.4,4.8-2.3,6.6c-0.6,0.6-1.3,1.1-2,1.4c-1,0.5-1.8,1.2-2.4,2.1c-0.3,1.1-0.3,2.2-0.1,3.2c0.1,1.1,0.4,2.2,1,3.2
	c0.4,0.3,0.8,0.7,1.2,0.9c0.4,0.2,0.7,0.7,0.8,1.1c0.2,3,0.3,6,0.3,9c0,2.9-0.2,5.8-0.6,8.7c0.4,0,0.7,0,1.1,0
	c0.4,0.1,0.9,0,1.2-0.3c0.2-0.2,1.3-1.5,1.4-1.4c1,0.6,1.8,1.4,2.4,2.4c0.8,1.2,1.4,2.4,2,3.7c0.6,1.3,1.1,2.5,1.5,3.4
	c0.2,0.7,0.6,1.3,1.1,1.8c0.8,0.1,1.6,0.1,2.3,0c0,0,1.2,0.1,2.4,0.1c0.9,0.1,1.7,0.1,2.6-0.1c0.6-0.5,1.3-1,2-1.2
	c0.8-0.3,1.6-0.6,2.4-0.8c1.2-0.1,2.5,0,3.7,0.2c1.4,0.2,2.6,0.4,2.9,0.1c1.9-1.9,3.7-4.1,5.2-6.4c0.4-0.7,0.7-1.5,0.8-2.3
	c0.1-0.8,0.4-1.6,0.6-2.4c0.2-0.3,0.4-0.6,0.8-0.7c0.3-0.1,0.5-0.3,0.7-0.4c0.2-0.2,0.2-0.6,0.1-1.1c-0.2-0.6-0.4-1.2-0.7-1.8
	c-0.4-0.9-0.9-1.8-1.5-2.6c-0.1-0.1,0-0.8,0-0.9c0-1.3,0.1-1.7,0.3-1.9s0.6-0.2,1.1-0.7c0.1-0.1-0.1-0.4,0-0.6s0.4,0.1,0.6,0
	c0.3-0.5,0.5-1.1,0.6-1.6c0.2-0.7,0.4-1.3,0.8-1.6c0.4-0.2,0.9-0.3,1.4-0.2c0.4,0.1,0.8,0.3,1.2,0.6c0.6,0.6,1.3,1,2.1,1.4
	c1.5,0.4,3.1,0.8,4.6,1.2c0.4,0.1,2.4-0.3,2.6,0c0.3,0.8,0.5,1.6,0.8,2.4c0.1,0.4,0.3,0.7,0.7,0.9c0.4,0.2,0.9,0.1,1.2-0.1
	c0.9-0.4,1.8-0.8,2.7-1.3c0.9-0.4,1.7-1,2.5-1.6c0.7-0.7,1-1.7,1.7-2.3c0.4-0.4,0.9-0.8,1.5-1c0.3-0.1,0.6-0.2,0.8-0.4
	c0.4-0.2,0.9-0.3,1.3-0.2c0.7,0,1.5,0.1,2.3,0.2c1.1,0.2,2.2,0.3,3.3,0.3c0.3-0.4,0.4-0.9,0.4-1.4c0-0.5,0.2-1,0.4-1.5
	c1.1-1.3,2.4-2.4,3.8-3.5c0.8-0.6,1.9-0.7,2.3-1.2c1-1,2.1-3,3.5-4.7c1.2-1.2,2.5-2.2,3.9-3c0.7-0.4,1.3-0.9,1.9-1.5
	c1.3-1.1,2-2.8,1.9-4.6c0-1.1,0-2.2-0.1-3.4s-0.2-2.3-0.2-3.3c-0.1-0.8,0.1-1.7,0.4-2.4c0.6-1.1,1.3-2.2,2.1-3.2
	c0.7-0.8,1.2-1.7,1.7-2.6c0.2-0.7,0.3-5.8,0-6.1s-0.9,0-1.2-0.3c-1-1-2.1-1.9-3.1-2.9c-1-0.9-1.8-2-2.4-3.2
	c-0.1-0.2-0.5-0.1-0.6-0.3c-0.4-1.3-0.6-2.6-0.7-3.9c-0.1-1.3-0.1-2.5-0.1-3.8s0-2.4,0-3.6c0-1.2-0.1-2.3-0.3-3.5
	c-0.1-0.6-0.3-1.2-0.7-1.7c-0.3-0.4-0.6-0.8-0.8-1.2c-0.2-0.7-0.2-1.5,0-2.2c0.2-0.7,0.2-1.5,0-2.2c-0.2-0.3-0.5-0.6-0.9-0.7
	c-0.4-0.2-0.8-0.3-1.1-0.5s-0.6,0.2-0.6,0c-0.1-0.8-0.1-1.6,0.1-2.4c0.1-0.6,0.4-1.2,0.8-1.7c0.3-0.3,0.4-0.8,0.2-1.2
	c-0.1-0.5-0.2-0.9-0.2-1.4c0-1.1,0.2-3.6,0.3-6c0-1.2,0.1-2.4,0-3.4c0-0.7-0.1-1.5-0.3-2.2c-0.7-1.5-1.3-2.3-1.8-3.2
	c-0.6-1.2-1.1-2.4-1.4-3.8c-0.2-0.9-0.3-1.8-0.2-2.7c0.1-1.2,0.2-2.5,0.4-3.7c0.2-1.7,0.7-3.4,1.3-5.1c-3.3,0-6.4-0.5-8.9-3.2
	L115.4,39.3z"/>
<path id="path4710" class="st0" d="M43.1,10.3c0-0.2-0.2-0.2-0.5,0.2c0.1,0.6,0.2,1.2,0.2,1.9c-0.1,1.7-0.3,3.4-0.6,5.1
	c-0.7,3.4-1.6,6.8-1.9,9.5c0,0.4,0.4,2.5,0.3,2.6c-0.4,0.4-0.8,0.7-1.3,1c-0.6,0.5-1,1.2-1.3,1.9c-0.3,0.8-0.3,1.7-0.2,2.5
	c0.1,0.6,0.1,1.3,0,1.9c-0.6,0.9-1.3,1.8-2,2.6c-0.4,0.3-0.1,1.8-0.6,2.3c-1.2,1.3-2.2,2.7-3,4.2c-1,1.7-1.9,3.5-2.8,5
	c-0.4,0.7-0.1,1.6-0.3,2.3c-0.4,1.4-0.8,2.5-1.1,3.4c-0.3,0.8-0.8,1.6-1.3,2.4c-0.5,0.7-1.1,1.3-1.8,1.8c-0.9,0.7-1.8,1.4-2.8,2
	c-0.5,0.5-0.9,1.1-1.1,1.8c-0.4,0.9-0.7,2-1,3.1c-0.5,1.9-1.1,3.7-1.9,5.5c-0.1,0.2-0.7,0.2-1.2,0.1c-0.5-0.1-1-0.2-1.1-0.4
	c-0.2-0.5-0.4-0.9-0.6-1.4c-0.2-0.2-0.6-0.1-1.4,0.8s-2.2,2.8-2.9,3.5s-1.6,0.7-2.3,1.2C7.7,77.7,7,78.3,6.5,79
	c-0.4,0.6-0.7,1.1-1,1.4s-0.7-0.1-0.9,0C4.1,81,2.7,82.1,2,82.7c0,0,0.1,0.1,0.1,0.1c0.4,0.1,0.7,0.2,1.1,0.3c1.4,0.2,3,0.4,4.7,0.6
	c1.7,0.2,3.5,0.6,5.1,1.1c0.8,0.3,1.7,0.6,2.4,1.1c0.8,0.5,1.6,1,2.2,1.7c0.2,0.2,0.3,0.2,0.5,0.2c0.1,0,0.2-0.1,0.4-0.1
	c0.1,0,0.5,0.2,1.2,1.6c0.4,0.9,0.6,1.8,0.8,2.8c0.2,1,0.2,2,0.2,3c-0.1,2-0.3,3.9-0.7,5.8c0,0.3-1-0.4-1.5-0.7
	c-0.3-0.1-0.5-0.2-0.5,0.1c0.2,0.6,0.5,1.2,0.9,1.8c-0.4,1.6-0.9,3.3-1.1,4.9c-0.4,2.7-0.6,5.4-0.9,8.1c0-0.1,0.1-0.3,0-0.3
	c-0.3,0-0.5,0.4-0.6,0.8c0,0.4,0.1,0.9,0.3,1.2c0.4,0.5,0.9,0.9,1.4,1.2c0.6,0.3,1.2,0.7,1.7,1c0.2,0.1,0.4,0.2,0.6,0.3
	c0.1,0.1-0.1,0.4,0,0.6c0.7,1.3,1.9,3.2,2.3,4.1c0.2,0.3-0.1,0.8,0,1.2c0.3,0.8,0.7,1.6,1.3,2.2c0.6,0.6,1.4,1.2,2.2,1.6
	c0.3,0.2,0.7,0.2,1,0.2c0.3,0,0.7-0.1,1-0.2c0.6-0.3,1.3-0.7,1.8-1.1c0.6-0.4,1.3-0.7,2-0.7c0.4,0,0.8,0.1,1.2,0.2
	c0.5,0.2,1,0.5,1.4,0.9c0.3,0.3,0.2,0.8,0.1,1.2c-0.2,0.4-0.3,0.9-0.4,1.4c0,0.5,0.1,0.9,0.2,1.4c0.1,0.4,0,0.9-0.2,1.2
	c-0.6,0.6-1.2,1-2,1.2c-0.8,0.2-1.6,0.5-2.3,0.8c-0.6,0.3-1,0.8-1.4,1.3c-0.5,0.7-1,1.4-1.3,2.2c-0.4,0.7-0.6,1.5-0.8,2.3
	c-0.2,0.6-0.1,1.3,0.1,1.9c0.4,0.8,0.8,1.4,1.2,2.2c0.5,0.8,0.8,1.6,1.1,2.4c0.1,0.6,0.2,1.3,0.2,1.9c0,0.6,0.1,1.3,0.4,1.8
	c0.5,0.8,1.2,1.4,2,1.9c0.8,0.5,1.6,1,2.3,1.6c0.2,0.1,0.5-0.2,0.6,0c0.1,0.8,0,1.5-0.1,2.3c-0.1,0.9-0.2,1.8,0.1,2.1
	c0.4,0.3,0.9,0.7,1.4,0.9c0.5,0.3,0.9,0.6,1.2,1.1c0.3,0.7,0.5,1.5,0.8,2.3c0.3,0.8,0.7,1.5,1.2,2.1c1.3,0.7,2.8,1.3,4.2,1.8
	c1.1,0.4,2.2,0.8,3.3,1.3c0.4-2.9,0.6-5.9,0.6-8.8c0-3-0.1-6-0.3-9c-0.1-0.5-0.4-0.9-0.8-1.1c-0.4-0.2-0.8-0.6-1.2-0.9
	c-0.6-1-0.9-2-1-3.2c-0.2-1.1-0.2-2.2,0.1-3.2c0.6-0.9,1.4-1.6,2.3-2.1c0.7-0.4,1.4-0.9,2-1.4c0.9-1.8,1.4-4.8,2.3-6.6
	c1.2-2.4,2.4-4.9,3.8-7.2c0.2-0.4,0.4-0.8,0.6-1.2c0.2-0.4,0.5-0.7,0.9-0.9c2-0.9,3.3-1.4,4.1-1.7s1.3-0.3,1.4-0.2s0,0.4-0.3,0.7
	s-0.7,0.7-1.1,1.1c-0.3,0.3-0.6,0.5-0.8,0.8c-0.1,0.2-0.1,0.2,0.3,0c0.8-0.4,3.2-1.7,8.2-4.8c0.9-0.7,1.8-1.5,2.6-2.3
	c2.1-1.8,4.3-3.4,6.4-5.2c0.4-0.4,0.8-0.9,1-1.4c0.1-0.4,0.2-0.7,0.3-1s0.3-0.4,0.8-0.6c0.9-0.2,1.8-0.4,2.8-0.4
	c0.9-0.1,1.9,0,2.8,0.2c0.5,0.1,1,0.4,1.3,0.8c0.3,0.4,0.5,0.9,0.5,1.3c0.6,0.5,1.3,0.8,2.1,1c0.3,0.1,0.6-0.1,0.7-0.4
	c0.1-0.3,0.1-0.6,0.2-0.9c0-0.3,0.3-0.5,0.6-0.5h3.8c0.3,0,0.6,0,0.9,0c0.3-0.4,0.5-0.9,0.6-1.3c0-0.4,0.1-0.9,0.3-1.2
	c0.2-0.4,0.9-0.3,1.2-0.6c0.4-1.3,0.5-2.7,0.4-4.1c0-2-0.1-3.9-0.4-4.3s-1.5-1.2-1.8-1.4c-0.3-1.1-0.5-2.3-0.6-3.4
	c-0.3-1.3-0.3-2.7-0.2-4.1c0.4-0.8,0.9-1.6,1.6-2.1c0.8-0.7,1.5-1.4,2.2-2.2c0.4-0.5,0.6-1,0.8-1.6c0-0.4,0-0.9-0.2-1.3
	c-0.3-0.8-1-1.5-1.4-2.3c-0.2-0.5-0.3-1.1-0.2-1.7c0.1-0.7,0.1-1.5,0.3-2.2c0.2-1.5,0.6-2.9,0.5-3.1C96.9,72.1,96.4,70,96,68
	c-0.4-1.3-0.6-2.7-0.7-4.1c0.1-0.1,0.8-0.2,0.9-0.3c0.9-1.2,1.6-2.5,2.2-3.8c0.8-1.7,1.6-3.4,1.9-4c0.4-0.9,0.6-2.5,1.2-3.2
	c0.6-0.9,1.5-1.7,2.4-2.3c0.6-0.3,1.2-0.4,1.8-0.3c0.6,0.1,1.2,0.3,2,0.3c1,0.1,2-0.1,3-0.4c0.3-0.1,0.6-0.9,1.1-2s0.9-2.6,1.4-4.1
	s1-3.1,1.5-4.3c0-0.1,0.1-0.1,0.1-0.2c-2.9,0.3-4.4-1.8-7.8-0.2c-2.6,1.3-7.7-5.5-5.3-1.2c-0.7-2.6-7-3.7-11.5-5.6
	c-2.9,1.9-4.5-4.6-6.6,0.6c-3.4,1.6-2.7,4.8-4.8,2.1c-1.5-0.7,2-0.9-0.3-1.1c-1.8,1.6-6.7,1.1-5-1.2c0.7-2.2-2.6-3.6-1.8-6.4
	c-0.4-0.8-0.5-1.6-1.7-1.5c2-2-1.3,0.2-0.5-1.2c0.8-3.1-1.3-0.5-0.9-0.5c0.7-1.1-2.6,0.6-2.2,0.2c-0.1,0-0.1,0,0.1-0.1
	c0.4-0.3,0.8-0.6,1.2-0.9c0.2-1.5-1.6,1-0.9-1.4c2.8-0.3,1.8-1.3,1.1-1.9c-1.3,0.5-1.1,1.5-1.2,1c-1-0.1-2.9-0.7-1.1-2.2
	c1.2-1.4-0.3-1.5-1.6,0.2c-0.4-1.1-3.1,1.1-2.6-1.6c-0.6,3.5-0.2-1-2.4,2.8c-0.6-0.1-1.7,3.6-2,1.8c-0.2,0.6,2-5.4,0.2-3.1
	c-1.4-0.7,2.3-1.1,0.7-3.3c-0.7,0.6-1.2,2.1-2.2,2.5c-0.7,3.4-0.4-2.2,0.6-3c-0.2,0.4-0.6,0.7-1,0.9c-0.2-0.2-0.3,0-0.2,0.2
	c-0.4,0.1-0.5-0.2-0.6-0.5c-1.5,1.6,0.6-2.8-1.5,0.4c0.8-1.6,0.2-1-0.4-0.2c0-0.8-0.8-1.8-1,0.4c0.2,0.1,0.5,0.1,0.7-0.1
	c-0.7,0.8-1.3,1.4-0.8,0.1c0.1-0.3-0.8-1.9,0.3-3.9c-1.6,0-2.3,4.1-1.9,0.5c-1.1,2.6-1.8,0.8-1-0.1c-2.2,2.4,1.7-3.6-0.6-0.7
	c-1,3.4-1.5-0.2-1.4,0c0.6-2.8-1.9,1.8-1.9,1.1c0.1-0.5,0.1-1,0.1-1.5c0.3,0.6,0.4-0.1,0-0.4c-0.2-0.8-1,0.3-1.3,0.2
	C42.5,13.4,43.2,10.9,43.1,10.3z M49.3,11.5C48.2,12.5,50.3,12.2,49.3,11.5z M52.5,12c-0.1-0.3-0.4,0.2-0.5,2.3
	C52.5,13.6,52.6,12.8,52.5,12z M49,12.2L49,12.2z M49.5,12.7C48.9,14,50.4,13.2,49.5,12.7L49.5,12.7z M51.5,12.7
	C50.4,12.7,52.3,15.2,51.5,12.7L51.5,12.7z M51.9,13.7c-0.1,0-0.1,0.1,0.1,0.1C52,13.7,51.9,13.7,51.9,13.7L51.9,13.7z M63.4,14.3
	c0.1,0.4,0.1,0.8-0.1,1.1c-0.3-0.2-1.6-0.7-0.6,0.1c0.4,0.1,0.5,0.1,0.6,0c-0.3,0.8-0.8,1.3,1.2,0.1c-1-1.1,2,0.2-0.6-1.1
	C63.6,14.6,63.7,14,63.4,14.3L63.4,14.3z M62,15.2C61.6,15.5,62.2,15.7,62,15.2z M62,15.5C61.8,15.7,62.6,17.4,62,15.5L62,15.5z
	 M61,15.9c-0.1,0-0.2,0.3,0,0.7C61.3,16.1,61.2,15.9,61,15.9L61,15.9z M56,16.4C55.6,17,56.5,16.5,56,16.4L56,16.4z M61.5,16.8
	C61.1,16.9,61.7,17.7,61.5,16.8L61.5,16.8z M61.4,17.3C60.8,18,62.2,17.9,61.4,17.3L61.4,17.3z M66.9,17.4
	C65.8,18,67.3,20.3,66.9,17.4L66.9,17.4z M66.4,17.9c-0.2,0.1-0.8,2-0.1,0.8C66.5,18.2,66.5,17.9,66.4,17.9L66.4,17.9z M65.8,19.3
	C65.4,19.2,66.3,19.7,65.8,19.3L65.8,19.3z M66.5,19.5c-0.1,0-0.1,0.1,0.1,0.1C66.7,19.5,66.6,19.5,66.5,19.5L66.5,19.5z M67.5,21
	C66.6,21.2,67.8,21.7,67.5,21L67.5,21z M67,21.3C66.6,22.1,68,21.4,67,21.3L67,21.3z M69.4,22.9C69.1,23,69.6,23.2,69.4,22.9
	L69.4,22.9z M72,27C71.5,27.7,72.5,27.3,72,27L72,27z M72.2,27.8C70.4,28.2,72.2,28.4,72.2,27.8L72.2,27.8z M79.6,33.6
	C79.2,33.7,79.9,34.2,79.6,33.6L79.6,33.6z M79.2,33.7c0,0-0.2,0-0.1,0.2C79.3,33.8,79.3,33.8,79.2,33.7L79.2,33.7z M78,34
	C78,34,77.9,33.9,78,34C78,34.2,78.1,34.1,78,34L78,34z"/>
</svg>
