<?xml version="1.0" encoding="utf-8"?>
<!-- Generator: Adobe Illustrator 24.0.0, SVG Export Plug-In . SVG Version: 6.00 Build 0)  -->
<svg version="1.1" id="Layer_1" xmlns="http://www.w3.org/2000/svg" xmlns:xlink="http://www.w3.org/1999/xlink" x="0px" y="0px"
	 viewBox="0 0 512 512" style="enable-background:new 0 0 512 512;" xml:space="preserve">
<style type="text/css">
	.st0{fill:#FFFFFF;}
</style>
<g id="Page-1">
	<g id="_x30_39---Refinery">
		<path id="Shape" class="st0" d="M93.9,388.3H51.2c-9.4,0-17.1,7.6-17.1,17.1V448c0,9.4,7.6,17.1,17.1,17.1h42.7
			c9.4,0,17.1-7.6,17.1-17.1v-42.7C110.9,395.9,103.3,388.3,93.9,388.3z M51.2,448v-42.7h42.7V448H51.2z"/>
		<path id="Shape_1_" class="st0" d="M187.7,388.3h-42.7c-9.4,0-17.1,7.6-17.1,17.1V448c0,9.4,7.6,17.1,17.1,17.1h42.7
			c9.4,0,17.1-7.6,17.1-17.1v-42.7C204.8,395.9,197.2,388.3,187.7,388.3z M145.1,448v-42.7h42.7V448H145.1z"/>
		<path id="Shape_2_" class="st0" d="M281.6,388.3h-42.7c-9.4,0-17.1,7.6-17.1,17.1V448c0,9.4,7.6,17.1,17.1,17.1h42.7
			c9.4,0,17.1-7.6,17.1-17.1v-42.7C298.7,395.9,291,388.3,281.6,388.3z M238.9,448v-42.7h42.7V448H238.9z"/>
		<path id="Shape_3_" class="st0" d="M503.5,277.3c-0.1-39.1-29.4-71.9-68.3-76.3v-9c0-23.6-19.1-42.6-42.7-42.7h-76.8v-17.1h8.5
			c4.7,0,8.5-3.8,8.5-8.5c0-4.7-3.8-8.5-8.5-8.5h-8.5c0.1-25-18-46.4-42.7-50.4V46.9c0-18.9-15.3-34.1-34.1-34.1h-68.3
			c-18.9,0-34.1,15.3-34.1,34.1v17.8c-24.6,4.2-42.6,25.5-42.7,50.4c-4.7,0-8.5,3.8-8.5,8.5c0,4.7,3.8,8.5,8.5,8.5v145.7l-9.5-5.9
			L68.8,54.2c-0.7-8.9-8.1-15.8-17-15.8H33.5c-8.9,0-16.3,6.9-17,15.8L2.7,241c-1.7,2.7-2.6,5.8-2.7,9v232.1
			c0,9.4,7.6,17.1,17.1,17.1h298.7c9.4,0,17.1-7.6,17.1-17.1V328.5c0-9.4-7.6-17.1-17.1-17.1V166.4h76.8c14.1,0,25.6,11.5,25.6,25.6
			v9c-38.8,4.4-68.2,37.2-68.3,76.3c-4.7,0-8.5,3.8-8.5,8.5s3.8,8.5,8.5,8.5v179.2c0,14.1,11.5,25.6,25.6,25.6h102.4
			c14.1,0,25.6-11.5,25.6-25.6V294.4c4.7,0,8.5-3.8,8.5-8.5S508.2,277.3,503.5,277.3z M298.7,115.2h-68.3
			c0-18.9,15.3-34.1,34.1-34.1C283.4,81.1,298.7,96.3,298.7,115.2z M170.7,29.9h68.3c9.4,0,17.1,7.6,17.1,17.1v17.8
			c-24.6,4.2-42.6,25.5-42.7,50.4h-17.1c0.1-25-18-46.4-42.7-50.4V46.9C153.6,37.5,161.2,29.9,170.7,29.9z M277.1,327.2
			c0.3,0.1,0.5,0.3,0.8,0.4c0.3,0.1,0.5,0.2,0.8,0.3c0.9,0.4,1.9,0.6,2.9,0.6h34.1v25.6H17.1v-25.6h51.2c4.7,0,8.5-3.8,8.5-8.5
			s-3.8-8.5-8.5-8.5H17.1v-33.8l2-26.3l121.5,75.9c0.3,0.1,0.6,0.3,0.9,0.4c0.2,0.1,0.5,0.2,0.7,0.3c0.9,0.4,1.9,0.6,2.9,0.6l0.1,0
			h59.7c4.7,0,8.5-3.8,8.5-8.5s-3.8-8.5-8.5-8.5h-51.2V250L277.1,327.2z M196.3,256.6V132.3h17.1v135L196.3,256.6z M145.1,81.1
			c9.1,0,17.8,3.5,24.2,10c6.4,6.4,10,15.1,10,24.2h-68.3C110.9,96.3,126.2,81.1,145.1,81.1z M110.9,132.3h68.3v113.7l-16.6-10.4
			c-5.3-3.3-11.9-3.5-17.3-0.5c-5.4,3-8.8,8.7-8.8,14.9v54.6l-25.6-16L110.9,132.3z M33.5,55.5h18.3l14.7,205.4l-40.4-25.2
			c-1.8-1.1-3.7-1.8-5.8-2.1L33.5,55.5z M17.1,482.1V371.2h298.7v110.9H17.1z M284,311.5l-53.6-33.5V132.3h68.3v179.2H284z
			 M426.7,217.6c33,0,59.7,26.8,59.7,59.7H366.9C367,244.4,393.7,217.6,426.7,217.6z M486.4,473.6c0,4.7-3.8,8.5-8.5,8.5h-8.5v-85.3
			c0-4.7-3.8-8.5-8.5-8.5s-8.5,3.8-8.5,8.5v85.3h-76.8c-4.7,0-8.5-3.8-8.5-8.5V294.4h85.3v51.2c0,4.7,3.8,8.5,8.5,8.5
			s8.5-3.8,8.5-8.5v-51.2h17.1V473.6z"/>
	</g>
</g>
</svg>
