<?xml version="1.0" encoding="iso-8859-1"?>
<!-- Generator: Adobe Illustrator 19.0.0, SVG Export Plug-In . SVG Version: 6.00 Build 0)  -->
<svg version="1.1" id="Capa_1" xmlns="http://www.w3.org/2000/svg" xmlns:xlink="http://www.w3.org/1999/xlink" x="0px" y="0px"
	 viewBox="0 0 511.999 511.999" style="enable-background:new 0 0 511.999 511.999;" xml:space="preserve">
<g>
	<g>
		<path d="M480.452,220.443h-80.677v-17.064h56.629c8.556,0,15.516-6.96,15.516-15.516V67.62c0-8.556-6.96-15.516-15.516-15.516
			H280.048c-8.556,0-15.516,6.96-15.516,15.516v120.242c0,8.556,6.96,15.516,15.516,15.516h56.629v17.064h-169.37v-17.064h56.629
			c8.556,0,15.516-6.96,15.516-15.516V67.62c0-8.556-6.96-15.516-15.516-15.516H47.581c-8.556,0-15.516,6.96-15.516,15.516v120.242
			c0,8.556,6.96,15.516,15.516,15.516h56.629v17.064H31.548C14.152,220.443,0,234.596,0,251.992v176.355
			c0,17.396,14.152,31.548,31.548,31.548h448.903c17.396,0,31.548-14.152,31.548-31.548V251.992
			C512,234.596,497.848,220.443,480.452,220.443z M280.048,188.378c-0.284,0.001-0.516-0.231-0.516-0.515v-16.548h136.792
			c4.142,0,7.5-3.358,7.5-7.5c0-4.142-3.358-7.5-7.5-7.5H279.532V67.62c0-0.285,0.231-0.516,0.516-0.516h176.355
			c0.285,0,0.516,0.231,0.516,0.516v88.693h-8.531c-4.142,0-7.5,3.358-7.5,7.5c0,4.142,3.358,7.5,7.5,7.5h8.531v16.548
			c0,0.285-0.231,0.516-0.516,0.516H280.048z M384.774,203.378v17.064h-33.097v-17.064H384.774z M47.581,188.378
			c-0.285,0.001-0.517-0.231-0.517-0.515v-16.548h136.792c4.142,0,7.5-3.358,7.5-7.5c0-4.142-3.358-7.5-7.5-7.5H47.064V67.62
			c0-0.285,0.231-0.516,0.516-0.516h176.355c0.285,0,0.516,0.231,0.516,0.516v88.693h-8.531c-4.142,0-7.5,3.358-7.5,7.5
			c0,4.142,3.358,7.5,7.5,7.5h8.531v16.548c0,0.285-0.231,0.516-0.516,0.516H47.581z M152.307,203.378v17.064H119.21v-17.064
			H152.307z M480.452,444.894H31.548c-9.125,0-16.548-7.423-16.548-16.548V251.992c0-9.125,7.423-16.548,16.548-16.548h448.903
			c9.125,0,16.548,7.424,16.548,16.548v176.355H497C497,437.471,489.577,444.894,480.452,444.894z"/>
	</g>
</g>
<g>
	<g>
		<path d="M288.064,252.508h-64.129c-12.976,0-23.532,10.557-23.532,23.532c0,4.142,3.358,7.5,7.5,7.5c4.142,0,7.5-3.358,7.5-7.5
			c0-4.705,3.828-8.532,8.532-8.532h64.129c4.705,0,8.532,3.828,8.532,8.532v128.258c0,4.705-3.828,8.532-8.532,8.532h-64.129
			c-4.705,0-8.532-3.828-8.532-8.532v-96.193c0-4.142-3.358-7.5-7.5-7.5c-4.142,0-7.5,3.358-7.5,7.5v96.193
			c0,12.976,10.557,23.532,23.532,23.532h64.129c12.976,0,23.532-10.557,23.532-23.532V276.04
			C311.597,263.065,301.04,252.508,288.064,252.508z"/>
	</g>
</g>
<g>
	<g>
		<path d="M239.968,284.573c-4.142,0-7.5,3.358-7.5,7.5v16.032c0,4.142,3.358,7.5,7.5,7.5c4.142,0,7.5-3.358,7.5-7.5v-16.032
			C247.468,287.93,244.11,284.573,239.968,284.573z"/>
	</g>
</g>
<g>
	<g>
		<path d="M272.034,284.573c-4.142,0-7.5,3.358-7.5,7.5v16.032c0,4.142,3.358,7.5,7.5,7.5c4.142,0,7.5-3.358,7.5-7.5v-16.032
			C279.534,287.93,276.176,284.573,272.034,284.573z"/>
	</g>
</g>
<g>
	<g>
		<path d="M271.954,380.766c-4.142,0-7.5,3.358-7.5,7.5c0,4.142,3.358,7.5,7.5,7.5h0.08c4.142,0,7.46-3.358,7.46-7.5
			C279.494,384.123,276.096,380.766,271.954,380.766z"/>
	</g>
</g>
<g>
	<g>
		<path d="M239.888,380.766c-4.142,0-7.5,3.358-7.5,7.5c0,4.142,3.358,7.5,7.5,7.5h0.08c4.142,0,7.46-3.358,7.46-7.5
			C247.428,384.123,244.03,380.766,239.888,380.766z"/>
	</g>
</g>
<g>
	<g>
		<path d="M256,324.653c-12.976,0-23.532,10.557-23.532,23.532c0,12.975,10.556,23.533,23.532,23.533s23.532-10.557,23.532-23.532
			C279.532,335.21,268.976,324.653,256,324.653z M256,356.717c-4.704,0-8.532-3.828-8.532-8.532c0-4.704,3.827-8.532,8.532-8.532
			s8.532,3.828,8.532,8.532C264.532,352.889,260.704,356.717,256,356.717z"/>
	</g>
</g>
<g>
	<g>
		<path d="M368.226,268.54h-24.048c-4.142,0-7.5,3.358-7.5,7.5c0,4.142,3.358,7.5,7.5,7.5h24.048c4.142,0,7.5-3.358,7.5-7.5
			C375.726,271.898,372.368,268.54,368.226,268.54z"/>
	</g>
</g>
<g>
	<g>
		<path d="M368.226,300.604h-24.048c-4.142,0-7.5,3.358-7.5,7.5c0,4.142,3.358,7.5,7.5,7.5h24.048c4.142,0,7.5-3.358,7.5-7.5
			C375.726,303.963,372.368,300.604,368.226,300.604z"/>
	</g>
</g>
<g>
	<g>
		<path d="M416.323,268.54h-16.032c-4.142,0-7.5,3.358-7.5,7.5c0,4.142,3.358,7.5,7.5,7.5h16.032c4.142,0,7.5-3.358,7.5-7.5
			C423.823,271.898,420.465,268.54,416.323,268.54z"/>
	</g>
</g>
<g>
	<g>
		<path d="M416.323,300.604h-16.032c-4.142,0-7.5,3.358-7.5,7.5c0,4.142,3.358,7.5,7.5,7.5h16.032c4.142,0,7.5-3.358,7.5-7.5
			C423.823,303.963,420.465,300.604,416.323,300.604z"/>
	</g>
</g>
<g>
	<g>
		<path d="M464.419,300.604h-16.032c-4.142,0-7.5,3.358-7.5,7.5c0,4.142,3.358,7.5,7.5,7.5h16.032c4.142,0,7.5-3.358,7.5-7.5
			C471.919,303.963,468.562,300.604,464.419,300.604z"/>
	</g>
</g>
<g>
	<g>
		<path d="M464.419,268.54h-16.032c-4.142,0-7.5,3.358-7.5,7.5c0,4.142,3.358,7.5,7.5,7.5h16.032c4.142,0,7.5-3.358,7.5-7.5
			C471.919,271.898,468.562,268.54,464.419,268.54z"/>
	</g>
</g>
<g>
	<g>
		<path d="M352.193,356.717h-8.016c-4.142,0-7.5,3.358-7.5,7.5c0,4.142,3.358,7.5,7.5,7.5h8.016c4.142,0,7.5-3.358,7.5-7.5
			C359.693,360.076,356.335,356.717,352.193,356.717z"/>
	</g>
</g>
<g>
	<g>
		<path d="M416.323,356.717h-32.064c-4.142,0-7.5,3.358-7.5,7.5c0,4.142,3.358,7.5,7.5,7.5h32.064c4.142,0,7.5-3.358,7.5-7.5
			C423.823,360.076,420.465,356.717,416.323,356.717z"/>
	</g>
</g>
<g>
	<g>
		<path d="M464.419,356.717h-16.032c-4.142,0-7.5,3.358-7.5,7.5c0,4.142,3.358,7.5,7.5,7.5h16.032c4.142,0,7.5-3.358,7.5-7.5
			C471.919,360.076,468.562,356.717,464.419,356.717z"/>
	</g>
</g>
<g>
	<g>
		<path d="M352.193,388.781h-8.016c-4.142,0-7.5,3.358-7.5,7.5c0,4.142,3.358,7.5,7.5,7.5h8.016c4.142,0,7.5-3.358,7.5-7.5
			C359.693,392.14,356.335,388.781,352.193,388.781z"/>
	</g>
</g>
<g>
	<g>
		<path d="M416.323,388.781h-32.064c-4.142,0-7.5,3.358-7.5,7.5c0,4.142,3.358,7.5,7.5,7.5h32.064c4.142,0,7.5-3.358,7.5-7.5
			C423.823,392.14,420.465,388.781,416.323,388.781z"/>
	</g>
</g>
<g>
	<g>
		<path d="M175.839,268.54c-4.142,0-7.5,3.358-7.5,7.5v16.032c0,4.142,3.358,7.5,7.5,7.5c4.142,0,7.5-3.358,7.5-7.5V276.04
			C183.339,271.898,179.981,268.54,175.839,268.54z"/>
	</g>
</g>
<g>
	<g>
		<path d="M143.775,268.54c-4.142,0-7.5,3.358-7.5,7.5v16.032c0,4.142,3.358,7.5,7.5,7.5c4.142,0,7.5-3.358,7.5-7.5V276.04
			C151.275,271.898,147.917,268.54,143.775,268.54z"/>
	</g>
</g>
<g>
	<g>
		<path d="M111.71,268.54c-4.142,0-7.5,3.358-7.5,7.5v16.032c0,4.142,3.358,7.5,7.5,7.5c4.142,0,7.5-3.358,7.5-7.5V276.04
			C119.21,271.898,115.853,268.54,111.71,268.54z"/>
	</g>
</g>
<g>
	<g>
		<path d="M79.646,268.54c-4.142,0-7.5,3.358-7.5,7.5v16.032c0,4.142,3.357,7.5,7.5,7.5c4.142,0,7.5-3.358,7.5-7.5V276.04
			C87.146,271.898,83.788,268.54,79.646,268.54z"/>
	</g>
</g>
<g>
	<g>
		<path d="M47.581,268.54c-4.142,0-7.5,3.358-7.5,7.5v16.032c0,4.142,3.358,7.5,7.5,7.5c4.142,0,7.5-3.358,7.5-7.5V276.04
			C55.081,271.898,51.723,268.54,47.581,268.54z"/>
	</g>
</g>
<g>
	<g>
		<path d="M175.839,324.653h-32.064c-4.142,0-7.5,3.358-7.5,7.5c0,4.142,3.358,7.5,7.5,7.5h32.064c4.142,0,7.5-3.358,7.5-7.5
			C183.339,328.01,179.981,324.653,175.839,324.653z"/>
	</g>
</g>
<g>
	<g>
		<path d="M111.709,324.653H79.645c-4.142,0-7.5,3.358-7.5,7.5c0,4.142,3.358,7.5,7.5,7.5h32.064c4.142,0,7.5-3.358,7.5-7.5
			C119.209,328.01,115.852,324.653,111.709,324.653z"/>
	</g>
</g>
<g>
	<g>
		<path d="M47.581,324.653c-4.142,0-7.5,3.358-7.5,7.5c0,4.142,3.358,7.5,7.5,7.5h0.08c4.142,0,7.46-3.358,7.46-7.5
			C55.121,328.01,51.723,324.653,47.581,324.653z"/>
	</g>
</g>
<g>
	<g>
		<path d="M175.839,356.717h-32.064c-4.142,0-7.5,3.358-7.5,7.5c0,4.142,3.358,7.5,7.5,7.5h32.064c4.142,0,7.5-3.358,7.5-7.5
			C183.339,360.076,179.981,356.717,175.839,356.717z"/>
	</g>
</g>
<g>
	<g>
		<path d="M111.709,356.717H79.645c-4.142,0-7.5,3.358-7.5,7.5c0,4.142,3.358,7.5,7.5,7.5h32.064c4.142,0,7.5-3.358,7.5-7.5
			C119.209,360.076,115.852,356.717,111.709,356.717z"/>
	</g>
</g>
<g>
	<g>
		<path d="M47.581,356.717c-4.142,0-7.5,3.358-7.5,7.5c0,4.142,3.358,7.5,7.5,7.5h0.08c4.142,0,7.46-3.358,7.46-7.5
			C55.121,360.076,51.723,356.717,47.581,356.717z"/>
	</g>
</g>
<g>
	<g>
		<path d="M175.839,388.781h-32.064c-4.142,0-7.5,3.358-7.5,7.5c0,4.142,3.358,7.5,7.5,7.5h32.064c4.142,0,7.5-3.358,7.5-7.5
			C183.339,392.14,179.981,388.781,175.839,388.781z"/>
	</g>
</g>
<g>
	<g>
		<path d="M111.709,388.781H79.645c-4.142,0-7.5,3.358-7.5,7.5c0,4.142,3.358,7.5,7.5,7.5h32.064c4.142,0,7.5-3.358,7.5-7.5
			C119.209,392.14,115.852,388.781,111.709,388.781z"/>
	</g>
</g>
<g>
	<g>
		<path d="M47.581,388.781c-4.142,0-7.5,3.358-7.5,7.5c0,4.142,3.358,7.5,7.5,7.5h0.08c4.142,0,7.46-3.358,7.46-7.5
			C55.121,392.14,51.723,388.781,47.581,388.781z"/>
	</g>
</g>
<g>
</g>
<g>
</g>
<g>
</g>
<g>
</g>
<g>
</g>
<g>
</g>
<g>
</g>
<g>
</g>
<g>
</g>
<g>
</g>
<g>
</g>
<g>
</g>
<g>
</g>
<g>
</g>
<g>
</g>
</svg>
