<?xml version="1.0" encoding="utf-8"?>
<!-- Generator: Adobe Illustrator 24.0.0, SVG Export Plug-In . SVG Version: 6.00 Build 0)  -->
<svg version="1.1" id="Capa_1" xmlns="http://www.w3.org/2000/svg" xmlns:xlink="http://www.w3.org/1999/xlink" x="0px" y="0px"
	 viewBox="0 0 512 512" style="enable-background:new 0 0 512 512;" xml:space="preserve">
<style type="text/css">
	.st0{fill:#FFFFFF;}
</style>
<g>
	<g>
		<path class="st0" d="M456.4,64.1h-48.6V15.5c0-8.6-7-15.5-15.5-15.5h-16c-8.6,0-15.5,7-15.5,15.5v48.6h-225
			c-8.6,0-15.5,7-15.5,15.5v70.1L52.9,82.4c-2.1-2.1-5.4-2.8-8.2-1.6c-2.8,1.2-4.6,3.9-4.6,6.9v304.6c0,4.1,3.4,7.5,7.5,7.5h72.7
			v24.6c0,4.1,3.4,7.5,7.5,7.5s7.5-3.4,7.5-7.5v-24.6h217c3,0,5.8-1.8,6.9-4.6c1.2-2.8,0.5-6-1.6-8.2L135.2,164.7V79.6
			c0-0.3,0.2-0.5,0.5-0.5h225V256c0,0.7,0.1,1.4,0.3,2.1l16,56.1c0.9,3.2,3.9,5.4,7.2,5.4s6.3-2.2,7.2-5.4l16-56.1
			c0.2-0.7,0.3-1.4,0.3-2.1V119.7c0-4.1-3.4-7.5-7.5-7.5s-7.5,3.4-7.5,7.5v120.8h-17.1V47.1h17.1v40.6c0,4.1,3.4,7.5,7.5,7.5
			s7.5-3.4,7.5-7.5v-8.5h48.6c0.3,0,0.5,0.2,0.5,0.5v376.8c0,22.4-18.2,40.6-40.6,40.6c-20.1,0-37.4-15-40.2-34.8
			c-1.1-7.6-7.6-13.3-15.3-13.3H88.5c-4.7,0-9.1,2.1-12.1,5.7c-2.9,3.5-4.1,8-3.2,12.4c5.1,26,28,44.9,54.6,44.9h288.6
			c30.7,0,55.6-24.9,55.6-55.6V79.6C471.9,71.1,465,64.1,456.4,64.1z M334.1,384.8h-279v0v-279L334.1,384.8z M392.6,255.5l-8.4,29.3
			l-8.4-29.3H392.6z M392.8,32.1h-17.1V15.5c0-0.3,0.2-0.5,0.5-0.5h16c0.3,0,0.5,0.2,0.5,0.5V32.1z M127.7,497
			c-19.4,0-36.2-13.8-39.9-32.7c0-0.1,0.3-0.4,0.6-0.4h272.4c0.2,0,0.4,0.2,0.4,0.4c1.8,12.9,8.1,24.3,17.2,32.7L127.7,497
			L127.7,497z"/>
	</g>
</g>
<g>
	<g>
		<path class="st0" d="M245.3,338.9L101,194.6c-2.1-2.1-5.4-2.8-8.2-1.6c-2.8,1.2-4.6,3.9-4.6,6.9v144.3c0,4.1,3.4,7.5,7.5,7.5H240
			c3,0,5.8-1.8,6.9-4.6C248.1,344.2,247.4,341,245.3,338.9z M120.2,336.7h-17.1V218l17.1,17.1V336.7z M135.2,336.7v-86.6l86.6,86.6
			H135.2z"/>
	</g>
</g>
</svg>
