<svg id="Capa_1" enable-background="new 0 0 512 512" height="512" viewBox="0 0 512 512" width="512" xmlns="http://www.w3.org/2000/svg"><g><g><path d="m57.15 385.084h39.51c3.22 10.491 13.011 18.143 24.56 18.143h36.338c11.549 0 21.339-7.651 24.56-18.143h272.732c4.143 0 7.5-3.357 7.5-7.5s-3.357-7.5-7.5-7.5h-272.732c-3.22-10.491-13.011-18.143-24.56-18.143h-36.338c-11.549 0-21.34 7.651-24.56 18.143h-39.51c-4.142 0-7.5 3.357-7.5 7.5s3.358 7.5 7.5 7.5zm64.07-18.143h36.338c5.891 0 10.683 4.774 10.683 10.643s-4.792 10.643-10.683 10.643h-36.338c-5.891 0-10.684-4.774-10.684-10.643s4.793-10.643 10.684-10.643z"/><path d="m454.85 424.484h-62.538c-3.22-10.491-13.011-18.143-24.56-18.143h-36.338c-11.549 0-21.34 7.651-24.56 18.143h-249.704c-4.142 0-7.5 3.357-7.5 7.5s3.358 7.5 7.5 7.5h249.705c3.223 10.476 13.012 18.115 24.558 18.115h36.338c11.546 0 21.335-7.639 24.558-18.115h62.541c4.143 0 7.5-3.357 7.5-7.5s-3.358-7.5-7.5-7.5zm-87.099 18.116h-36.338c-5.891 0-10.684-4.762-10.684-10.615 0-5.868 4.793-10.643 10.684-10.643h36.338c5.891 0 10.684 4.774 10.684 10.643 0 5.853-4.793 10.615-10.684 10.615z"/><path d="m454.85 478.886h-214.219c-3.22-10.492-13.011-18.144-24.56-18.144h-36.338c-11.549 0-21.34 7.652-24.56 18.144h-98.023c-4.142 0-7.5 3.357-7.5 7.5s3.358 7.5 7.5 7.5h98.024c3.223 10.475 13.012 18.114 24.558 18.114h36.338c11.546 0 21.335-7.639 24.558-18.114h214.222c4.143 0 7.5-3.357 7.5-7.5s-3.358-7.5-7.5-7.5zm-238.78 18.114h-36.338c-5.891 0-10.684-4.762-10.684-10.614 0-5.869 4.792-10.644 10.684-10.644h36.338c5.891 0 10.684 4.774 10.684 10.644 0 5.852-4.793 10.614-10.684 10.614z"/><path d="m230.965 283.611c.171.043.343.082.519.113 7.9 1.732 16.102 2.654 24.516 2.654s16.616-.922 24.517-2.654c.175-.031.346-.07.516-.112 50.941-11.419 89.117-56.915 89.117-111.147 0-62.796-51.207-113.884-114.149-113.884-22.046 0-43.41 6.265-61.78 18.118-3.48 2.245-4.481 6.888-2.236 10.368 2.246 3.479 6.888 4.481 10.369 2.235 15.939-10.284 34.49-15.721 53.646-15.721 54.671 0 99.149 44.359 99.149 98.884 0 43.855-28.76 81.129-68.45 94.054v-35.88c11.844-5.482 22.08-14.343 29.185-25.357 2.245-3.48 1.243-8.123-2.237-10.368-3.481-2.243-8.122-1.243-10.368 2.237-6.32 9.799-15.799 17.421-26.688 21.462-2.939 1.091-4.891 3.896-4.891 7.031v44.49c-5.115.815-10.358 1.245-15.699 1.245-5.342 0-10.584-.429-15.7-1.245v-44.49c0-3.138-1.953-5.943-4.895-7.033-21.041-7.793-35.177-28.006-35.177-50.297 0-17.666 8.812-34.219 23.576-44.282.857-.585 1.587-1.033 2.2-1.377-.01.832-.058 1.825-.144 2.976-.058.775-.104 1.387-.104 1.989v36.713c0 16.675 13.063 30.616 29.74 31.74.335.021.673.021 1.008 0 16.677-1.124 29.739-15.065 29.739-31.74v-36.713c0-.603-.046-1.214-.104-1.988-.086-1.151-.134-2.145-.144-2.977.613.344 1.345.794 2.204 1.38 14.76 10.061 23.571 26.613 23.571 44.279 0 4.143 3.357 7.5 7.5 7.5s7.5-3.357 7.5-7.5c0-22.631-11.261-43.817-30.12-56.671-2.862-1.955-11.575-7.902-19.13-3.546-7.412 4.275-6.661 14.349-6.34 18.649.028.379.056.695.062.873v36.713c0 8.643-6.655 15.896-15.243 16.732-8.588-.836-15.244-8.09-15.244-16.732v-36.66c.006-.23.034-.547.063-.926.321-4.301 1.072-14.374-6.339-18.649-7.555-4.355-16.268 1.592-19.127 3.543-18.862 12.856-30.124 34.043-30.124 56.674 0 26.768 15.901 51.187 40.072 62.332v35.873c-39.69-12.925-68.45-50.199-68.45-94.054 0-22.506 7.799-44.543 21.959-62.055 2.605-3.221 2.105-7.943-1.116-10.548-3.22-2.603-7.943-2.106-10.547 1.116-16.313 20.172-25.296 45.56-25.296 71.486-.001 54.232 38.174 99.728 89.114 111.147z"/><path d="m103.778 214.943h9.429c2.917 9.781 6.843 19.238 11.72 28.228l-6.667 6.652c-3.887 3.879-6.028 9.051-6.029 14.564s2.141 10.688 6.029 14.567l31.037 30.967c8.037 8.021 21.113 8.02 29.149.001l6.684-6.669c9.018 4.873 18.502 8.795 28.314 11.707v9.389c0 11.364 9.246 20.609 20.61 20.609h43.891c11.364 0 20.61-9.245 20.61-20.609v-9.389c9.813-2.913 19.298-6.834 28.314-11.707l6.684 6.668c8.036 8.02 21.112 8.021 29.148.001l31.039-30.969c3.888-3.879 6.028-9.053 6.028-14.566s-2.142-10.686-6.029-14.564l-6.667-6.652c4.877-8.99 8.804-18.445 11.721-28.228h9.429c11.38 0 20.639-9.232 20.639-20.581v-43.766c0-11.364-9.259-20.609-20.639-20.609h-9.429c-2.917-9.781-6.844-19.238-11.721-28.228l6.668-6.653c3.888-3.879 6.028-9.053 6.028-14.566s-2.142-10.686-6.031-14.566l-31.036-30.938c-8.036-8.019-21.112-8.018-29.148.001l-6.683 6.668c-9.047-4.894-18.531-8.824-28.315-11.733v-9.39c.001-11.35-9.245-20.582-20.61-20.582h-43.891c-11.364 0-20.61 9.232-20.61 20.581v9.39c-9.784 2.909-19.269 6.84-28.315 11.733l-6.683-6.669c-8.037-8.017-21.113-8.019-29.146-.002l-31.04 30.942c-3.887 3.879-6.028 9.051-6.029 14.564s2.141 10.688 6.029 14.567l6.667 6.652c-4.878 8.99-8.804 18.445-11.72 28.228h-9.429c-11.38 0-20.639 9.245-20.639 20.609v43.766c0 11.35 9.258 20.582 20.639 20.582zm-5.639-64.346c0-3.041 2.583-5.609 5.639-5.609h15.134c3.427 0 6.418-2.323 7.267-5.645 3.14-12.295 8.033-24.077 14.541-35.019 1.755-2.951 1.282-6.718-1.148-9.144l-10.716-10.691c-1.047-1.045-1.624-2.447-1.624-3.948s.577-2.902 1.621-3.944l31.04-30.942c2.157-2.152 5.803-2.151 7.959-.001l10.716 10.693c2.423 2.418 6.175 2.89 9.12 1.145 11.023-6.528 22.834-11.421 35.106-14.541 3.325-.845 5.652-3.838 5.652-7.269v-15.101c0-3.077 2.517-5.581 5.61-5.581h43.891c3.094 0 5.61 2.504 5.61 5.581v15.101c0 3.431 2.327 6.424 5.651 7.269 12.272 3.121 24.084 8.013 35.106 14.541 2.945 1.743 6.695 1.274 9.12-1.145l10.715-10.692c2.158-2.152 5.802-2.152 7.962.002l31.036 30.938c1.047 1.044 1.623 2.445 1.623 3.946s-.576 2.903-1.623 3.947l-10.717 10.693c-2.432 2.426-2.904 6.192-1.148 9.144 6.508 10.941 11.4 22.724 14.541 35.02.848 3.32 3.84 5.644 7.267 5.644h15.134c3.057 0 5.639 2.568 5.639 5.609v43.766c0 3.025-2.582 5.581-5.639 5.581h-15.134c-3.427 0-6.418 2.323-7.267 5.644-3.142 12.297-8.033 24.079-14.541 35.02-1.756 2.951-1.283 6.718 1.148 9.144l10.717 10.692c1.047 1.044 1.623 2.445 1.623 3.946s-.576 2.903-1.623 3.947l-31.039 30.969c-2.157 2.152-5.803 2.152-7.958-.001l-10.716-10.692c-2.423-2.417-6.175-2.889-9.12-1.144-10.967 6.495-22.778 11.378-35.106 14.513-3.324.845-5.651 3.838-5.651 7.269v15.101c0 3.093-2.517 5.609-5.61 5.609h-43.891c-3.093 0-5.61-2.517-5.61-5.609v-15.101c0-3.431-2.327-6.424-5.652-7.269-12.327-3.135-24.138-8.018-35.106-14.513-1.188-.704-2.508-1.047-3.819-1.047-1.937 0-3.855.749-5.3 2.19l-10.717 10.693c-2.157 2.152-5.802 2.153-7.959-.001l-31.037-30.967c-1.047-1.045-1.624-2.447-1.624-3.948s.577-2.902 1.624-3.946l10.716-10.692c2.431-2.426 2.904-6.192 1.148-9.144-6.508-10.941-11.4-22.723-14.541-35.02-.848-3.32-3.839-5.644-7.267-5.644h-15.134c-3.057 0-5.639-2.556-5.639-5.581z"/></g></g></svg>