<?xml version="1.0" encoding="utf-8"?>
<!-- Generator: Adobe Illustrator 24.0.0, SVG Export Plug-In . SVG Version: 6.00 Build 0)  -->
<svg version="1.1" id="Layer_1" xmlns="http://www.w3.org/2000/svg" xmlns:xlink="http://www.w3.org/1999/xlink" x="0px" y="0px"
	 viewBox="0 0 512 512" style="enable-background:new 0 0 512 512;" xml:space="preserve">
<style type="text/css">
	.st0{fill:#FFFFFF;}
</style>
<path d="M486.4,443.7h-8.5V192.4c15.6-7.3,25.6-23,25.6-40.3v-35c0-3.2-0.6-6.4-1.8-9.4l-0.1-0.2c-1-2.4-2.3-4.7-4-6.8l-36.7-44.1
	v-31c0-14.1-11.5-25.6-25.6-25.6H76.8C62.7,0,51.2,11.5,51.2,25.6v31l-36.7,44.1c-1.7,2-3,4.3-4,6.8l-0.1,0.2
	c-1.2,3-1.8,6.2-1.8,9.4v35c0,17.3,10,33,25.6,40.3v251.3h-8.5C11.5,443.8,0,455.2,0,469.3v25.6c0,9.4,7.6,17.1,17.1,17.1H495
	c9.4,0,17.1-7.6,17.1-17.1v-25.6C512,455.2,500.5,443.8,486.4,443.7z M68.3,25.6c0-4.7,3.8-8.5,8.5-8.5h358.4c4.7,0,8.5,3.8,8.5,8.5
	v25.6H68.3V25.6z M25.6,152.1v-32.7h366.9c4.7,0,8.5-3.8,8.5-8.5s-3.8-8.5-8.5-8.5H35.3l28.4-34.1h384.5l28.4,34.1h-50
	c-4.7,0-8.5,3.8-8.5,8.5s3.8,8.5,8.5,8.5h59.7v32.7c0.3,13.5-9.6,25.1-23.1,26.9c-7.2,0.7-14.4-1.6-19.8-6.5
	c-5.3-4.9-8.4-11.7-8.4-18.9v-8.5c0-4.7-3.8-8.5-8.5-8.5s-8.5,3.8-8.5,8.5v8.5c0,14.1-11.5,25.6-25.6,25.6s-25.6-11.5-25.6-25.6
	v-8.5c0-4.7-3.8-8.5-8.5-8.5s-8.5,3.8-8.5,8.5v8.5c0,14.1-11.5,25.6-25.6,25.6s-25.6-11.5-25.6-25.6v-8.5c0-4.7-3.8-8.5-8.5-8.5
	s-8.5,3.8-8.5,8.5v8.5c0,14.1-11.5,25.6-25.6,25.6s-25.6-11.5-25.6-25.6v-8.5c0-4.7-3.8-8.5-8.5-8.5s-8.5,3.8-8.5,8.5v8.5
	c0,14.1-11.5,25.6-25.6,25.6s-25.6-11.5-25.6-25.6v-8.5c0-4.7-3.8-8.5-8.5-8.5s-8.5,3.8-8.5,8.5v8.5c0,14.1-11.5,25.6-25.6,25.6
	S94,167.7,94,153.6v-8.5c0-4.7-3.8-8.5-8.5-8.5s-8.5,3.8-8.5,8.5v8.5c0,7.2-3.1,14.1-8.4,18.9c-5.3,4.9-12.5,7.3-19.8,6.5
	C35.2,177.3,25.3,165.7,25.6,152.1z M418.1,213.3H315.7c-9.4,0-17.1,7.6-17.1,17.1v213.3H51.2V196c13.4,0.2,26.1-6.1,34.1-16.8
	c8,10.8,20.7,17.1,34.1,17.1s26.1-6.3,34.1-17.1c8,10.8,20.7,17.1,34.1,17.1c13.4,0,26.1-6.3,34.1-17.1c8,10.8,20.7,17.1,34.1,17.1
	c13.4,0,26.1-6.3,34.1-17.1c8.1,10.8,20.7,17.1,34.1,17.1s26.1-6.3,34.1-17.1c8,10.8,20.7,17.1,34.1,17.1s26.1-6.3,34.1-17.1
	c8,10.8,20.7,17,34.1,16.8v247.7h-25.6V230.4C435.2,221,427.6,213.3,418.1,213.3z M418.1,230.4v213.3H315.7V230.4H418.1z
	 M17.1,494.9v-25.6c0-4.7,3.8-8.5,8.5-8.5h460.8c4.7,0,8.5,3.8,8.5,8.5v25.6H17.1z"/>
<path d="M247.5,213.3H93.9c-9.4,0-17.1,7.6-17.1,17.1v110.9c0,9.4,7.6,17.1,17.1,17.1h153.6c9.4,0,17.1-7.6,17.1-17.1V230.4
	C264.5,221,256.9,213.3,247.5,213.3z M158.3,341.3l60.9-56.5c3.4-3.2,3.5-8.5,0.3-12c-3.2-3.4-8.5-3.7-11.9-0.6l-74.4,69H93.9v-4.8
	l31.4-29.2c3.5-3.2,3.7-8.6,0.4-12.1c-3.2-3.5-8.6-3.7-12.1-0.4l-19.8,18.4v-82.8H183L139.2,271c-3.5,3.2-3.7,8.6-0.4,12.1
	c3.2,3.5,8.6,3.7,12.1,0.4l57.3-53.2h39.3v4.8l-15.7,14.5c-3.5,3.2-3.7,8.6-0.4,12.1c3.2,3.5,8.6,3.7,12.1,0.4l4-3.8v82.8h-89.2
	V341.3z"/>
<path class="st0" d="M349.9,315.7H384c9.4,0,17.1-7.6,17.1-17.1v-34.1c0-9.4-7.6-17.1-17.1-17.1h-34.1c-9.4,0-17.1,7.6-17.1,17.1
	v34.1C332.8,308.1,340.4,315.7,349.9,315.7z M349.9,264.5H384v34.1h-34.1V264.5z"/>
<path class="st0" d="M341.3,349.9h8.5c4.7,0,8.5-3.8,8.5-8.5s-3.8-8.5-8.5-8.5h-8.5c-4.7,0-8.5,3.8-8.5,8.5
	C332.8,346,336.6,349.9,341.3,349.9z"/>
</svg>
