<?xml version="1.0" encoding="iso-8859-1"?>
<!-- Generator: Adobe Illustrator 19.0.0, SVG Export Plug-In . SVG Version: 6.00 Build 0)  -->
<svg version="1.1" id="Layer_1" xmlns="http://www.w3.org/2000/svg" xmlns:xlink="http://www.w3.org/1999/xlink" x="0px" y="0px"
	 viewBox="0 0 503.607 503.607" style="enable-background:new 0 0 503.607 503.607;" xml:space="preserve">
<g>
	<g>
		<g>
			<path d="M485.703,226.623h-49.244v-15.669c0-9.89-8.013-17.903-17.903-17.903h-31.341c-9.89,0-17.903,8.013-17.903,17.903v15.669
				h-44.544l-16.047-42.801c26.451-18.152,43.804-48.598,43.804-83.101C352.525,45.096,307.429,0,251.803,0
				S151.082,45.096,151.082,100.721c0,34.503,17.353,64.949,43.804,83.101l-16.047,42.801h-44.544v-15.669
				c0-9.89-8.013-17.903-17.903-17.903H85.051c-9.89,0-17.903,8.013-17.903,17.903v15.671H17.903C8.013,226.625,0,234.638,0,244.528
				v64.915c0,9.89,8.013,17.903,17.903,17.903h49.244v15.671c0,9.89,8.013,17.903,17.903,17.903h31.341
				c9.89,0,17.903-8.013,17.903-17.903v-15.672h46.179l165.985,173.668c3.115,3.259,8.248,3.475,11.626,0.49l67.148-59.35
				c3.625-3.204,3.798-8.803,0.376-12.224L323.026,327.344h46.286v15.672c0,9.89,8.013,17.903,17.903,17.903h31.341
				c9.89,0,17.903-8.013,17.903-17.903v-15.672h49.244c9.89,0,17.903-8.013,17.903-17.903v-64.915
				C503.607,234.636,495.593,226.623,485.703,226.623z M17.903,310.559c-0.619,0-1.116-0.498-1.116-1.116v-64.915
				c0-0.619,0.498-1.116,1.116-1.116h49.244v67.148H17.903z M117.508,343.016c0,0.619-0.498,1.116-1.116,1.116H85.051
				c-0.619,0-1.116-0.498-1.116-1.116v-24.064v-83.934v-24.064c0-0.619,0.498-1.116,1.116-1.116h31.341
				c0.619,0,1.116,0.498,1.116,1.116V343.016z M168.288,109.115h16.368c4.636,0,8.393-3.758,8.393-8.393s-3.758-8.393-8.393-8.393
				h-16.368c4.212-42.413,39.994-75.541,83.515-75.541c43.521,0,79.303,33.128,83.515,75.541h-16.368
				c-4.636,0-8.393,3.758-8.393,8.393s3.758,8.393,8.393,8.393h16.368c-3.938,39.652-35.47,71.184-75.122,75.122v-16.368
				c0-4.636-3.758-8.393-8.393-8.393s-8.393,3.758-8.393,8.393v16.368C203.758,180.299,172.226,148.767,168.288,109.115z
				 M209.235,193.366c13.519,5.298,27.873,8.076,42.568,8.076c14.695,0,29.049-2.778,42.568-8.076l12.469,33.257H196.767
				L209.235,193.366z M302.762,310.557c-7.478,0-11.223,9.041-5.935,14.328l110.6,110.6l-54.41,48.092L190.13,313.151
				c-1.584-1.657-3.776-2.594-6.068-2.594h-49.765V243.41h50.358h134.295h50.361v67.148H302.762z M419.672,343.016
				c0,0.619-0.498,1.116-1.116,1.116h-31.341c-0.619,0-1.116-0.498-1.116-1.116V319c0-0.017,0.003-0.033,0.003-0.05v-83.934
				c0-0.017-0.002-0.033-0.003-0.05v-24.013c0-0.619,0.498-1.116,1.116-1.116h31.341c0.619,0,1.116,0.498,1.116,1.116v24.062v83.934
				V343.016z M486.82,309.441c0,0.619-0.498,1.116-1.116,1.116h-49.244V243.41h49.244c0.619,0,1.116,0.498,1.116,1.116V309.441z"/>
			<path d="M251.803,125.902c13.902,0,25.18-11.278,25.18-25.18c0-10.958-7.01-20.282-16.787-23.741v-26.62
				c0-4.636-3.758-8.393-8.393-8.393s-8.393,3.758-8.393,8.393v26.62c-9.777,3.459-16.787,12.782-16.787,23.741
				C226.623,114.623,237.901,125.902,251.803,125.902z M251.803,92.328c4.631,0,8.393,3.763,8.393,8.393s-3.763,8.393-8.393,8.393
				s-8.393-3.763-8.393-8.393S247.172,92.328,251.803,92.328z"/>
		</g>
	</g>
</g>
<g>
</g>
<g>
</g>
<g>
</g>
<g>
</g>
<g>
</g>
<g>
</g>
<g>
</g>
<g>
</g>
<g>
</g>
<g>
</g>
<g>
</g>
<g>
</g>
<g>
</g>
<g>
</g>
<g>
</g>
</svg>
