<?xml version="1.0" encoding="iso-8859-1"?>
<!-- Generator: Adobe Illustrator 19.0.0, SVG Export Plug-In . SVG Version: 6.00 Build 0)  -->
<svg version="1.1" id="Capa_1" xmlns="http://www.w3.org/2000/svg" xmlns:xlink="http://www.w3.org/1999/xlink" x="0px" y="0px"
	 viewBox="0 0 512 512" style="enable-background:new 0 0 512 512;" xml:space="preserve">
<g>
	<g>
		<path d="M434.826,349.828l-43.068-15.201V199.371h16.548c8.556,0,15.516-6.96,15.516-15.516v-24.048
			c0-8.556-6.96-15.516-15.516-15.516h-16.548v-8.533C391.758,60.901,330.857,0,256,0S120.242,60.901,120.242,135.758v8.533h-16.548
			c-8.556,0-15.516,6.96-15.516,15.516v24.048c0,8.556,6.96,15.516,15.516,15.516h16.548v135.256l-43.068,15.201
			c-22.187,7.83-37.093,28.898-37.093,52.427V504.5c0,4.142,3.358,7.5,7.5,7.5c4.142,0,7.5-3.358,7.5-7.5V402.255
			c0-17.18,10.885-32.564,27.085-38.282l38.076-13.439v1.659c0,15.188,6.127,28.967,16.033,39.012v37.746
			c-9.562,5.426-16.033,15.695-16.033,27.453V504.5c0,4.142,3.358,7.5,7.5,7.5c4.142,0,7.5-3.358,7.5-7.5v-48.097
			c0-9.125,7.424-16.548,16.549-16.548h136.275c4.142,0,7.5-3.358,7.5-7.5c0-4.142-3.358-7.5-7.5-7.5H183.339v-17.064h145.325
			v17.064h-8.532c-4.142,0-7.5,3.358-7.5,7.5c0,4.142,3.358,7.5,7.5,7.5h40.077c9.125,0,16.549,7.423,16.549,16.548V504.5
			c0,4.142,3.358,7.5,7.5,7.5c4.142,0,7.5-3.358,7.5-7.5v-48.097c0-11.757-6.469-22.025-16.03-27.451v-37.75
			c9.904-10.044,16.03-23.822,16.03-39.009v-1.659l38.076,13.439c16.201,5.718,27.085,21.102,27.085,38.282V504.5
			c0,4.142,3.358,7.5,7.5,7.5c4.142,0,7.5-3.358,7.5-7.5V402.255C471.919,378.727,457.013,357.658,434.826,349.828z M391.759,159.29
			h16.548v0.001c0.285,0,0.516,0.231,0.516,0.516v24.048c0,0.285-0.231,0.516-0.516,0.516h-16.548V159.29z M120.241,184.372h-16.548
			v-0.001c-0.285,0-0.516-0.231-0.516-0.516v-24.048c0-0.285,0.231-0.516,0.516-0.516h16.548V184.372z M135.242,135.758
			C135.242,69.172,189.414,15,256,15s120.758,54.172,120.758,120.758v8.533h-17.065v-8.532c0-4.142-3.358-7.5-7.5-7.5
			c-4.142,0-7.5,3.358-7.5,7.5v8.532H167.307v-8.532c0-4.142-3.358-7.5-7.5-7.5c-4.142,0-7.5,3.358-7.5,7.5v8.532h-17.065V135.758z
			 M168.339,424.854h-16.548v0.001c-0.173,0-0.344,0.01-0.516,0.013v-22.816c5.273,2.608,11.015,4.398,17.064,5.218V424.854z
			 M360.728,424.868c-0.173-0.003-0.344-0.013-0.519-0.013h-16.545V407.27c6.049-0.82,11.792-2.611,17.064-5.219V424.868z
			 M376.759,352.194c-0.001,22.385-18.213,40.597-40.598,40.597H175.839c-22.385,0-40.597-18.212-40.597-40.597V159.291h241.517
			V352.194z"/>
	</g>
</g>
<g>
	<g>
		<path d="M159.887,456.919h-0.08c-4.142,0-7.46,3.358-7.46,7.5c0,4.142,3.398,7.5,7.54,7.5c4.142,0,7.5-3.358,7.5-7.5
			C167.387,460.277,164.029,456.919,159.887,456.919z"/>
	</g>
</g>
<g>
	<g>
		<path d="M352.193,456.919h-0.08c-4.142,0-7.46,3.358-7.46,7.5c0,4.142,3.398,7.5,7.54,7.5c4.142,0,7.5-3.358,7.5-7.5
			C359.693,460.277,356.335,456.919,352.193,456.919z"/>
	</g>
</g>
<g>
	<g>
		<path d="M344.177,176.355H207.903c-4.142,0-7.5,3.358-7.5,7.5c0,4.142,3.358,7.5,7.5,7.5h136.274c0.285,0,0.516,0.231,0.516,0.516
			v48.097c0,0.285-0.231,0.516-0.516,0.516H167.823c-0.285,0-0.516-0.231-0.516-0.516v-48.097c0-0.285,0.231-0.516,0.516-0.516
			h8.014c4.142,0,7.5-3.358,7.5-7.5c0-4.142-3.358-7.5-7.5-7.5h-8.014c-8.556,0-15.516,6.96-15.516,15.516v48.097
			c0,8.556,6.96,15.516,15.516,15.516h176.354c8.556,0,15.516-6.96,15.516-15.516v-48.097
			C359.693,183.315,352.733,176.355,344.177,176.355z"/>
	</g>
</g>
<g>
	<g>
		<path d="M320.129,208.419H191.871c-4.142,0-7.5,3.358-7.5,7.5c0,4.142,3.358,7.5,7.5,7.5h128.258c4.142,0,7.5-3.358,7.5-7.5
			C327.629,211.777,324.271,208.419,320.129,208.419z"/>
	</g>
</g>
<g>
</g>
<g>
</g>
<g>
</g>
<g>
</g>
<g>
</g>
<g>
</g>
<g>
</g>
<g>
</g>
<g>
</g>
<g>
</g>
<g>
</g>
<g>
</g>
<g>
</g>
<g>
</g>
<g>
</g>
</svg>
