<svg xmlns="http://www.w3.org/2000/svg" viewBox="0 0 106.94 138.88"><defs><style>.cls-1{fill:#9d9d9c;fill-rule:evenodd;}.cls-2{fill:none;stroke:#efe525;stroke-miterlimit:10;}.cls-3{font-size:40.94px;fill:#fff;font-family:UniSansHeavyCAPS, Uni Sans;}</style></defs><title>mapa-nordeste</title><g id="New_Layer" data-name="New Layer"><path class="cls-1" d="M129.92,13.65c0,.73.1,1,.26.63a2.9,2.9,0,0,0,0-1.31C130,12.66,129.92,12.92,129.92,13.65Z" transform="translate(-112.27 -12.84)"/><path class="cls-1" d="M132.11,13.44a4.63,4.63,0,0,0,2,.73c.58,0,1.05.53,1.26,1.31.36,1.36,1.25,1.52,1.67.26.16-.36,0-.52-.31-.31a.87.87,0,0,1-1.05-.52,5.38,5.38,0,0,0-2.51-1.57C131.38,12.76,131.22,12.76,132.11,13.44Z" transform="translate(-112.27 -12.84)"/><path class="cls-1" d="M138.6,15.06c.63.11,1.15.47,1.15.74a.53.53,0,0,0,.57.47c.42,0,.42-.27,0-.79a2.6,2.6,0,0,0-1.78-.73C137.45,14.85,137.45,14.85,138.6,15.06Z" transform="translate(-112.27 -12.84)"/><path class="cls-1" d="M129.39,16.27c-.94,1.51-.78,2,.21.62.47-.68.73-1.3.63-1.41S129.76,15.74,129.39,16.27Z" transform="translate(-112.27 -12.84)"/><path class="cls-1" d="M140.27,17.26c0,.26.47.58,1,.73.94.26,2,2.09,2.3,4,.1.42.78.84,1.52.94s1.41.42,1.41.68.73-.21,1.67-1.15,1.78-1.41,1.89-1,.78.58,1.46.58A13.9,13.9,0,0,1,156,23.59a20.21,20.21,0,0,0,3.77,1.57c.37,0-1-.84-3.19-1.83a21.58,21.58,0,0,0-4.71-1.83,2.37,2.37,0,0,1-1.46-.58c-.37-.36-1-.16-2,.68-2,1.62-3.45,1.31-4.34-.78C142.84,18.2,140.27,15.69,140.27,17.26Z" transform="translate(-112.27 -12.84)"/><path class="cls-1" d="M128.82,19.14a2.94,2.94,0,0,1-.58,1.73c-.26.37-.16.31.32-.11a1.72,1.72,0,0,0,.57-1.67C128.92,18.2,128.87,18.2,128.82,19.14Z" transform="translate(-112.27 -12.84)"/><path class="cls-1" d="M126.88,23.43a4.62,4.62,0,0,0-.84,1.89c.16.62-1.36,4-2.24,4.86a5,5,0,0,0-1.1,2.2,7,7,0,0,1-1.26,2.46,31,31,0,0,0-2,3c-.68,1.1-1.41,2-1.72,2-.74,0-5.71,3.77-5.39,4.08a8,8,0,0,0,2.51-1.67,9.79,9.79,0,0,1,2.88-1.88c.36,0,1.25-1,2-2.2a31.85,31.85,0,0,1,2.4-3.14,3.36,3.36,0,0,0,.89-1.78,10.28,10.28,0,0,1,1.57-3.08,10,10,0,0,0,1.73-3.93c.1-.94.41-1.83.73-2,.47-.37,1.36-2.2,1-2.2A5.78,5.78,0,0,0,126.88,23.43Z" transform="translate(-112.27 -12.84)"/><path class="cls-1" d="M162.66,25c.63.11,1.05.47.89.73s0,.32.42.16a1,1,0,0,1,1.15.26c.16.32.94.58,1.67.58,1.15,0,1.31.21,1.05,1.36-.16.78-.05,1.15.21.89a4.38,4.38,0,0,0,.73-1.62c.16-.95-.05-1.16-1.2-1.16a7.24,7.24,0,0,1-2.72-.78,5,5,0,0,0-2.36-.68C161.61,24.79,161.61,24.79,162.66,25Z" transform="translate(-112.27 -12.84)"/><path class="cls-1" d="M172.34,25.63a7.75,7.75,0,0,0-2.62.78c-.26.21.26.21,1.15,0a28.4,28.4,0,0,1,4.45-.41c2.4,0,3.45.31,6.28,1.93a54.2,54.2,0,0,1,12.29,9.26c2,1.93,4.23,3.71,5,3.87l1.3.31-1.36-.68a26.67,26.67,0,0,1-4.7-4,73,73,0,0,0-13.86-10.15A13.11,13.11,0,0,0,172.34,25.63Z" transform="translate(-112.27 -12.84)"/><path class="cls-1" d="M162.5,28.66a5.87,5.87,0,0,1-2.14,1.73c-1.05,0-3.35,2.14-3.3,3,0,.63.16.53.47-.31a4.83,4.83,0,0,1,2.2-1.94c1.62-.68,5-3.71,4.55-4.08C164.18,27,163.39,27.72,162.5,28.66Z" transform="translate(-112.27 -12.84)"/><path class="cls-1" d="M167.58,32.12c.47,2.09,2.46,6,2.51,4.81a4.19,4.19,0,0,0-.84-1.73c-.42-.63-.68-1.36-.47-1.62a.64.64,0,0,0-.26-.84,1.77,1.77,0,0,1-.52-1.3,1.62,1.62,0,0,0-.48-1.26C167.26,30,167.26,30.86,167.58,32.12Z" transform="translate(-112.27 -12.84)"/><path class="cls-1" d="M155.44,36.14c-.63.84-1,1.57-.84,1.57A7.71,7.71,0,0,0,156,36.14c.63-.89,1-1.57.84-1.57A6.87,6.87,0,0,0,155.44,36.14Z" transform="translate(-112.27 -12.84)"/><path class="cls-1" d="M168.83,38.86c-.63,2.51-.31,4.55.84,5.34a2.56,2.56,0,0,1,1.05,2.35c0,.89.15,1.73.36,1.83.94.63.11-3.45-1-4.65s-1.15-1.62-.89-3.66C169.56,37.56,169.36,36.93,168.83,38.86Z" transform="translate(-112.27 -12.84)"/><path class="cls-1" d="M155.18,40.59a7.42,7.42,0,0,0,.26,2.56c.16.16.26-.78.26-2a7.46,7.46,0,0,0-.26-2.56C155.28,38.44,155.18,39.33,155.18,40.59Z" transform="translate(-112.27 -12.84)"/><path class="cls-1" d="M199.9,42.42a3.6,3.6,0,0,0,1.31.52c.31,0,.16-.26-.26-.52a3.24,3.24,0,0,0-1.31-.52C199.38,41.9,199.48,42.16,199.9,42.42Z" transform="translate(-112.27 -12.84)"/><path class="cls-1" d="M196.35,44c-.47.89-1.42,2.41-2,3.35A11.58,11.58,0,0,0,193,50.06a2.45,2.45,0,0,1-1.2,1.46,7.45,7.45,0,0,0-1.68,1.36c-.78.94-.89,2.83-.16,2.36a1.27,1.27,0,0,1,1.31.26c.94.78,3.09.31,4.34-.94,1-1,4.35-2.31,4.76-1.89.16.16,0,.47-.36.68a8.46,8.46,0,0,0-2.2,3.72c0,.62,2.2,1.2,4.08,1.09,1.2-.1,1.67.11,1.67.68a.78.78,0,0,0,.74.84c.94,0,2-1.41,1.62-2.09-.16-.26,0-.52.26-.52s.47-.37.31-.84c-.41-1.1.16-1.94.89-1.36a8.51,8.51,0,0,0,2.2.84c1.15.26,1.36.21.78-.21a3.69,3.69,0,0,0-1.67-.53,1.14,1.14,0,0,1-1.05-.57c-.1-.26-.57-.37-1.09-.21-.79.31-1.15,1.83-1,3.77.16,1-1,1.36-1.72.36-.52-.68-1.1-.84-2.3-.57-1,.21-1.68.1-1.68-.16s-.36-.52-.78-.52c-.73,0-.73-.16,0-1.47.42-.78,1.1-1.83,1.41-2.3s.47-1,.31-1.26c-.52-.52-4.18.89-5.8,2.2-1.73,1.47-2.83,1.57-4.29.42-1.05-.73-1-.84.84-2.46a14.22,14.22,0,0,0,2.82-3.5c2.46-4.92,2.93-5.7,3.51-5.91s.52-.32,0-.32C197.55,42.42,196.82,43.15,196.35,44Z" transform="translate(-112.27 -12.84)"/><path class="cls-1" d="M203,43.41a4,4,0,0,0,2.09,1.1c.73,0,.32-.31-2.67-1.83C202.05,42.47,202.31,42.84,203,43.41Z" transform="translate(-112.27 -12.84)"/><path class="cls-1" d="M208,44c-1.41.37-1.46.42-.26.42A6.73,6.73,0,0,0,210.1,44C211.41,43.41,210.21,43.41,208,44Z" transform="translate(-112.27 -12.84)"/><path class="cls-1" d="M156,44.93a4.13,4.13,0,0,1-1.1,2.3c-1.26,1.36-1.41,4.71-.26,5.65a3.85,3.85,0,0,1,.83,2.3c.06,1.57.06,1.57.42.32a2.13,2.13,0,0,0-.57-2.41,4.7,4.7,0,0,1,.15-5.75,2.82,2.82,0,0,0,.84-2.41l-.21-1.2Z" transform="translate(-112.27 -12.84)"/><path class="cls-1" d="M211.83,44.36a1.06,1.06,0,0,0,1-.06c.21-.15-.1-.31-.68-.26S211.41,44.2,211.83,44.36Z" transform="translate(-112.27 -12.84)"/><path class="cls-1" d="M214.5,46a17.29,17.29,0,0,1,1.78,4.6c.41,1.67.94,3.45,1.09,4,.53,1.15-1,1.62-3.34.94a3.57,3.57,0,0,0-2.2-.11c-.42.42-.11.47,3.66.73,2.15.16,2.25.21,3,2.52,1.31,4.34.79,1.15-.83-5.08-1.68-6.43-2.72-9.05-3.67-9.05C213.66,44.51,213.92,45.19,214.5,46Z" transform="translate(-112.27 -12.84)"/><path class="cls-1" d="M113.07,45.56a4,4,0,0,0,1.73.52,8.63,8.63,0,0,1,3,1.31c1.36.84,1.94,1,1.78.52a2.61,2.61,0,0,0-1.41-1.1,3.85,3.85,0,0,1-1.42-.73,5.68,5.68,0,0,0-2.35-.68C113,45.19,112.55,45.24,113.07,45.56Z" transform="translate(-112.27 -12.84)"/><path class="cls-1" d="M119.4,51.1a7.55,7.55,0,0,0,.47,2.57c.32.68.37.26.16-1.31C119.66,49.59,119.35,48.91,119.4,51.1Z" transform="translate(-112.27 -12.84)"/><path class="cls-1" d="M171.24,51.05c0,.84.1,1.15.26.63a4.14,4.14,0,0,0,0-1.57C171.34,49.8,171.24,50.16,171.24,51.05Z" transform="translate(-112.27 -12.84)"/><path class="cls-1" d="M119,57.43a7.27,7.27,0,0,1-1.21,2.93c-.73.89-.73,1,.11,1.68.47.31.89.78.89,1,0,.94,3.92,5.28,4.65,5.13,2.51-.53,3.45-.37,3.3.62a3.88,3.88,0,0,1-1.26,1.89c-1.46,1.15-3.14,5.65-2.3,6.17a13.53,13.53,0,0,1,1.88,2.3c.68,1,1.52,1.78,1.78,1.62s.05-.68-.52-1.15a11.78,11.78,0,0,1-1.88-2.25c-.79-1.2-.84-1.67-.27-3.66A4.62,4.62,0,0,1,126,70.93c1.36-.58,1.83-2.67.84-3.51-.58-.47-1.15-.47-2.41,0-.89.32-1.62.58-1.62.47S122,66.8,121,65.54s-1.57-2.46-1.41-2.77-.16-.68-.73-.84c-1-.26-1-.42-.42-1.15s1.73-5.28,1.2-5.28A4.43,4.43,0,0,0,119,57.43Z" transform="translate(-112.27 -12.84)"/><path class="cls-1" d="M172.18,56.49c0,.26.37.63.84.79.73.26.78.2.21-.48C172.49,55.92,172.18,55.81,172.18,56.49Z" transform="translate(-112.27 -12.84)"/><path class="cls-1" d="M188.87,56.54a9.91,9.91,0,0,1-.68,2.25,2.39,2.39,0,0,0,.41,2.2c1.16,1.73,1.1,2-.83,3.87l-1.62,1.62-2.2-2-2.2-2-4.08.16c-4.23.16-5.7.78-4.5,1.93.53.58.58.53.32-.26s-.05-.89,1.88-.89a34.44,34.44,0,0,0,4.24-.31c1.78-.31,2.14-.16,4,1.83s3.19,2.67,3.19,1.67c0-.62,1.57-1.15,2.25-.73a11.9,11.9,0,0,0,2.92.52c2.15.16,2.67,0,5-1.93,2.72-2.3,2.83-2.3,4-1.57.63.37.63.63.1,1.15a2.47,2.47,0,0,0-.62,1.41,3.06,3.06,0,0,1-.89,1.73c-.79.89-.79.94,0,.94a.79.79,0,0,1,.89.73,2,2,0,0,0,.73,1.31c.94.79,2.61,0,4.55-2.09a3.8,3.8,0,0,1,3-1.52,7.82,7.82,0,0,0,5.49-2.14c1.73-1.83,4.19-1,4.71,1.67.21,1.15.21,1.1.31-.26.11-3-3.66-4-5.91-1.57-.94,1-1.93,1.46-3.92,1.67a6.28,6.28,0,0,0-4.76,2.25,9.36,9.36,0,0,1-2.56,2c-.73,0-1.57-2.93-1.26-4.29A4,4,0,0,1,201.84,64c.63-.52.57-.73-.63-1.51s-1.41-.84-3.56.78c-3.08,2.3-4.34,2.88-5.44,2.41a5.49,5.49,0,0,0-2.09-.32c-1.36.16-1.41.06-.63-1.62a2.81,2.81,0,0,0-.26-2.77c-.42-.84-.63-1.78-.36-2,.41-.63.68-2.93.26-2.93C189,56,188.87,56.23,188.87,56.54Z" transform="translate(-112.27 -12.84)"/><path class="cls-1" d="M147.33,57.59a20,20,0,0,0-3.92,3.14c-2.35,2.25-2.51,2.46-.78,1.25a21.26,21.26,0,0,0,3.13-2.77,3.31,3.31,0,0,1,2.93-1.15c4.19.16,5.91,0,6.39-.42.31-.31-.37-.31-1.68,0a4.84,4.84,0,0,1-3.19,0C149.06,57,148.75,57,147.33,57.59Z" transform="translate(-112.27 -12.84)"/><path class="cls-1" d="M174.43,59.79c-.05,2.35,0,2.35.78.05.42-1.2.37-1.73-.05-1.88S174.48,58.48,174.43,59.79Z" transform="translate(-112.27 -12.84)"/><path class="cls-1" d="M139.23,63.34c-.47.32-.53.53-.16.53a1.35,1.35,0,0,0,.94-.53C140.43,62.72,140.22,62.72,139.23,63.34Z" transform="translate(-112.27 -12.84)"/><path class="cls-1" d="M135.72,64.81A12.66,12.66,0,0,0,134,68.57a28.33,28.33,0,0,1-2.15,5c-.78,1.3-.89,1.93-.47,3,.26.73.37,1.36.21,1.36s-.05.31.26.73c.63.79.31,6-.42,6.75s-3.45-.42-3.61-1.62a2.7,2.7,0,0,0-1.3-1.73c-1.1-.57-1.1-.57-.32.37a6.35,6.35,0,0,1,1.2,2.09c.27.78.95,1.26,2.25,1.52,2,.36,2.67-.16,2.83-2.1.05-.57.16-1.83.26-2.82a11.68,11.68,0,0,0-.63-3.82c-.68-1.88-.63-2.25.26-3.5a24,24,0,0,0,2.1-4.76A24.06,24.06,0,0,1,136.19,65C136.82,64.28,136.66,64.23,135.72,64.81Z" transform="translate(-112.27 -12.84)"/><path class="cls-1" d="M173.12,66c1.2,1.41.63,2.56-2.61,5.28a54.6,54.6,0,0,0-5.13,4.66,9.58,9.58,0,0,1-2.88,2.25c-.94.21-.94.26-.05.31.52,0,2-1,3.35-2.3a13.74,13.74,0,0,1,2.77-2.36,8.94,8.94,0,0,1,2.3,1.84c1.47,1.46,1.78,2.14,1.52,3.13s-.11,1.31.68,1.31a4.11,4.11,0,0,0,3.45-2.61c.16-.58,0-1-.21-.74a1.31,1.31,0,0,0-.47,1c0,.78-1.52,1.83-2.61,1.83-.37,0-.47-.42-.27-1,.32-1-.1-1.78-2.51-4.13-1.09-1.1-1.25-1.57-.78-2a2,2,0,0,1,1.25-.63c.89,0,3.35-3,3.35-4.18a2.53,2.53,0,0,0-.89-1.62C172.6,65.33,172.55,65.33,173.12,66Z" transform="translate(-112.27 -12.84)"/><path class="cls-1" d="M217.74,71.19c-1.1,3.61-1.15,3.71-2.82,3.61-3.56-.26-5,.1-7.12,1.78-2.93,2.3-6.12,2.35-8.42.1-.89-.84-1.73-1.36-1.88-1.15s-.74,0-1.15-.31c-.63-.53-.84-.47-1,0-.26.84-2.25,2.72-2.82,2.72-.21,0-.42-.47-.42-1s-.26-1-.58-1a2.12,2.12,0,0,1-1.31-.94c-.52-.63-.68-.68-.73-.16s-.16.57-.78,0-.74-.52-.47.21a1.13,1.13,0,0,0,1.15.73c1-.21,4,4.08,4.5,6.49.15,1,.68,2,1.15,2.2.68.26.68.15-.06-.84-.83-1.2-1-3-.36-3a3.9,3.9,0,0,1,1.36.79,4.18,4.18,0,0,0,1.57.78c.31,0-.68-.73-2.2-1.62l-2.77-1.62,1.72-1.73c.95-.88,1.89-1.46,2-1.15a.65.65,0,0,0,.89.16c.26-.16,1.52.52,2.78,1.52,1.67,1.31,2.45,1.62,2.92,1.2a1.64,1.64,0,0,1,1.47-.21c.94.32,2.51-.42,4.45-2.14a6.2,6.2,0,0,1,4-1.31,7.93,7.93,0,0,1,3.09.26c.42.42-1.41,2.93-5.55,7.69a24.17,24.17,0,0,0-3.19,4.13c-.21.58-.41.58-1.09-.15-1.21-1.16-1.84-1-.74.15.84.94.79,1-.94,2a14.1,14.1,0,0,0-3.66,4c-1.73,2.67-2,2.93-3.61,2.77a2.79,2.79,0,0,1-2.2-1.2c-.31-.58-.94-1.67-1.46-2.46-1.1-1.62-.84-2.51.63-2.14.52.15,1.1,0,1.25-.21s-.47-.42-1.36-.42c-2.09,0-2.4,1.25-.94,3.35.58.78.94,1.62.79,1.72-.53.58,2.45,2.41,3.45,2.15,1.31-.37,1.31-.11,0,2.61-2,4-5.76,8.79-6.65,8.63a4.77,4.77,0,0,0-2.51,1.1c-1.52,1.1-1.62,1.41-1.52,4,.11,3.77.63,4.13.58.42,0-3.19.94-4.66,3.35-5,1.62-.21,6.27-6.23,7.63-9.79a14,14,0,0,1,1.21-2.66,24.28,24.28,0,0,0,2.09-3,11.46,11.46,0,0,1,3.66-3.76,15.07,15.07,0,0,0,4-3.72c1.15-1.51,3.08-3.82,4.29-5.18a21.1,21.1,0,0,0,3.34-5c1.36-3.19,2.72-7.53,2.41-7.9C218.94,67.58,218.37,69.15,217.74,71.19Z" transform="translate(-112.27 -12.84)"/><path class="cls-1" d="M183.48,73c1.31,1,2.09,1,1.25,0a2.36,2.36,0,0,0-1.46-.78C182.59,72.24,182.64,72.39,183.48,73Z" transform="translate(-112.27 -12.84)"/><path class="cls-1" d="M180,74.33c-2.2,2.14-2,2.56.26.47,1-1,1.83-1.83,1.83-1.88C182.12,72.5,181.49,72.92,180,74.33Z" transform="translate(-112.27 -12.84)"/><path class="cls-1" d="M149.64,78.88c-1.89,1.31-2.1,1.83-1.21,3.19a3.29,3.29,0,0,1,.58,2.25c-.16.52,0,.89.21.68.68-.42.57-1.68-.32-3-.78-1.2-.73-1.3.58-2.35,1-.78,1.62-.94,2-.57a3.62,3.62,0,0,0,2,.52c.79,0,1.47.21,1.47.47,0,1.57,4.24.63,5.75-1.31.79-.94.73-.94-.52,0-2.51,1.73-3.71,2-4.71,1.15a3.15,3.15,0,0,0-1.78-.78,4.2,4.2,0,0,1-1.83-.53A2.08,2.08,0,0,0,149.64,78.88Z" transform="translate(-112.27 -12.84)"/><path class="cls-1" d="M199.17,83a3.49,3.49,0,0,0,1.52.73c.31,0,.05-.31-.47-.73a4,4,0,0,0-1.57-.79C198.39,82.17,198.6,82.54,199.17,83Z" transform="translate(-112.27 -12.84)"/><path class="cls-1" d="M202.1,84.79a3.5,3.5,0,0,0,1.46,1.31c.42.21.21-.26-.47-1C201.58,83.48,201.21,83.38,202.1,84.79Z" transform="translate(-112.27 -12.84)"/><path class="cls-1" d="M133.42,85.57c-.42.53-1.41,1.52-2.2,2.31a24.32,24.32,0,0,0-3.34,4.23c-1.89,2.88-1.89,4-.11,4.66.47.15.42,0-.21-.68-1-1-1.15-1.89-.36-1.89a.52.52,0,0,0,.52-.52c0-.78,2-3.4,4.39-5.86,2.2-2.14,2.93-2.09,3.19.37.21,1.52,1.15,2.88,2,2.88.31,0,.16-.32-.37-.68a3.21,3.21,0,0,1-1-2,7,7,0,0,0-.94-2.51C134.15,84.79,134.05,84.79,133.42,85.57Z" transform="translate(-112.27 -12.84)"/><path class="cls-1" d="M195.46,86.88a3.45,3.45,0,0,0-.11,1.88c.16.16.42-.47.63-1.36s.26-1.77.1-1.88S195.67,86,195.46,86.88Z" transform="translate(-112.27 -12.84)"/><path class="cls-1" d="M147.07,87.4c-.68.89-1.62,1.57-2,1.52a4.4,4.4,0,0,0-4,1.31c-.79.68-1.78,1.15-2.2,1s-.68-.15-.68,0c0,.94,1.78.63,3.14-.52a5.87,5.87,0,0,1,3-1.31,4.62,4.62,0,0,0,3.82-2.61C149,85.36,148.43,85.68,147.07,87.4Z" transform="translate(-112.27 -12.84)"/><path class="cls-1" d="M128.4,98.23a11.4,11.4,0,0,0-.21,3c.05.83.16,3.34.21,5.49a17.94,17.94,0,0,0,.47,4.5,10.3,10.3,0,0,1,.16,3.5c-.16,2.62-.06,3,1,3.72s1.21,1.15,1,3l-.16,2.25.47-2.09c.42-1.83.31-2.2-.78-3.19s-1.21-1.57-1-3.61a7,7,0,0,1,.73-3c.89-.89.68-1.36-.47-1-1.36.36-1.46-1.26-.1-2.25.52-.42.62-.68.26-.74-.79,0-.94-2.4-.16-2.87.26-.16.05-.73-.52-1.31-1.31-1.31-1.31-2.56-.11-3.45.53-.42.63-.68.26-.73-1,0-.83-1.57.16-1.57.42,0,.63-.27.47-.53C129.5,96.4,128.82,96.77,128.4,98.23Z" transform="translate(-112.27 -12.84)"/><path class="cls-1" d="M186.41,118.53c0,.83.1,1.15.26.63a4.13,4.13,0,0,0,0-1.57C186.51,117.27,186.41,117.64,186.41,118.53Z" transform="translate(-112.27 -12.84)"/><path class="cls-1" d="M143.15,119.1a10.9,10.9,0,0,0-3.35,2,5.87,5.87,0,0,1-1.93,1.36,3.6,3.6,0,0,0-1.57,1.1c-.84.94-.58.89,1.36-.31,1.25-.84,2.66-1.84,3.08-2.2a7.5,7.5,0,0,1,5.34-1.73c1.93,0,2,0,1.72,1.36-.2.89-.1,1.52.37,1.83,1.15.74,1.83.58.84-.21a2.17,2.17,0,0,1-.79-1.88c.16-1-.15-1.36-1.51-1.62A7.08,7.08,0,0,0,143.15,119.1Z" transform="translate(-112.27 -12.84)"/><path class="cls-1" d="M185.88,121.93a30.73,30.73,0,0,0,.42,4.44c.32,2.1.37,2.25.42.79a30.11,30.11,0,0,0-.42-4.45C186,120.62,185.94,120.46,185.88,121.93Z" transform="translate(-112.27 -12.84)"/><path class="cls-1" d="M153.09,122.29a28,28,0,0,1,4.08,2.1,12.14,12.14,0,0,0,5.07,1.93c2.15.11,5.23,2.36,5.23,3.77a1.23,1.23,0,0,0,.58,1c.78.52,3.08-.16,3.08-.89,0-.47-.15-.47-.62,0-.95.94-2.51.79-2.51-.31a5.37,5.37,0,0,0-1.63-2.51,4.85,4.85,0,0,0-3.76-1.57,11.25,11.25,0,0,1-5.34-2,13.15,13.15,0,0,0-4.18-1.83L152,122Z" transform="translate(-112.27 -12.84)"/><path class="cls-1" d="M150.73,123c-.47.32-.52.53-.15.53a1.31,1.31,0,0,0,.94-.53C151.94,122.35,151.73,122.35,150.73,123Z" transform="translate(-112.27 -12.84)"/><path class="cls-1" d="M131,125.07c0,.73.11,1,.26.62a2.6,2.6,0,0,0,0-1.3C131.07,124.07,131,124.33,131,125.07Z" transform="translate(-112.27 -12.84)"/><path class="cls-1" d="M133,125.38c-.89.47-1,.73-.47.73a2.39,2.39,0,0,0,1.52-.78C134.78,124.39,134.68,124.39,133,125.38Z" transform="translate(-112.27 -12.84)"/><path class="cls-1" d="M174,131.29c5.39,1.78,6,2.56,3.4,5a6.58,6.58,0,0,0-1.57,2c0,.79,3.66-3.35,3.66-4.13,0-1.05-1.88-2.41-4.5-3.19C171.6,130,170.77,130.19,174,131.29Z" transform="translate(-112.27 -12.84)"/><path class="cls-1" d="M186.93,131.34a26.2,26.2,0,0,1-1.05,4.87c-.62,1.93-.88,3.4-.57,3.24a1.7,1.7,0,0,0,.47-1.2,22.48,22.48,0,0,1,1.05-3.77c.57-1.72.78-3.14.52-3.61S186.93,130.4,186.93,131.34Z" transform="translate(-112.27 -12.84)"/><path class="cls-1" d="M175.84,139.76a.29.29,0,0,1-.47.27c-.68-.47-1.46.78-1.73,2.72-.2,1.41.06,2,1.26,3.13a4.89,4.89,0,0,1,1.46,2.57c0,.73.63,1.51,1.78,2.19,2.46,1.57,3,1.36.68-.2-1-.74-1.93-1.78-1.93-2.25a4.8,4.8,0,0,0-1.47-2.36c-1.3-1.25-1.46-1.72-1.15-3.4.21-1.46.53-1.88,1.21-1.78a.68.68,0,0,0,.88-.68c0-.41-.1-.78-.26-.78S175.84,139.45,175.84,139.76Z" transform="translate(-112.27 -12.84)"/><path class="cls-1" d="M184.52,141.91a9.61,9.61,0,0,0,.06,3.19c.26,1.83.1,2.14-1.62,3.71a6.79,6.79,0,0,0-1.89,2.46c0,.37.42.11.89-.57a11.82,11.82,0,0,1,2.09-2.25c1-.79,1.1-1.36,1-4.29,0-1.88-.16-3.4-.16-3.4A6.42,6.42,0,0,0,184.52,141.91Z" transform="translate(-112.27 -12.84)"/><circle class="cls-2" cx="71.74" cy="21.24" r="1.95"/><circle class="cls-2" cx="50.37" cy="42.66" r="1.95"/><circle class="cls-2" cx="101.36" cy="36.96" r="1.95"/><circle class="cls-2" cx="96.5" cy="67.94" r="1.95"/><circle class="cls-2" cx="30.39" cy="14.06" r="1.95"/><text class="cls-3" transform="translate(0 109.14)">+ 400</text></g></svg>