<svg width="612" height="137" viewBox="0 0 612 137" fill="none" xmlns="http://www.w3.org/2000/svg">
<path d="M62.25 46.2266H47.4609V58.3203H64.6406V62H42.9609V27.875H64.4062V31.5781H47.4609V42.5469H62.25V46.2266ZM73.6406 36.6406L73.7578 39.4531C75.6172 37.2656 78.125 36.1719 81.2812 36.1719C84.8281 36.1719 87.2422 37.5312 88.5234 40.25C89.3672 39.0312 90.4609 38.0469 91.8047 37.2969C93.1641 36.5469 94.7656 36.1719 96.6094 36.1719C102.172 36.1719 105 39.1172 105.094 45.0078V62H100.758V45.2656C100.758 43.4531 100.344 42.1016 99.5156 41.2109C98.6875 40.3047 97.2969 39.8516 95.3438 39.8516C93.7344 39.8516 92.3984 40.3359 91.3359 41.3047C90.2734 42.2578 89.6562 43.5469 89.4844 45.1719V62H85.125V45.3828C85.125 41.6953 83.3203 39.8516 79.7109 39.8516C76.8672 39.8516 74.9219 41.0625 73.875 43.4844V62H69.5391V36.6406H73.6406ZM133.078 49.6016C133.078 53.4609 132.195 56.5703 130.43 58.9297C128.664 61.2891 126.273 62.4688 123.258 62.4688C120.18 62.4688 117.758 61.4922 115.992 59.5391V71.75H111.656V36.6406H115.617L115.828 39.4531C117.594 37.2656 120.047 36.1719 123.188 36.1719C126.234 36.1719 128.641 37.3203 130.406 39.6172C132.188 41.9141 133.078 45.1094 133.078 49.2031V49.6016ZM128.742 49.1094C128.742 46.25 128.133 43.9922 126.914 42.3359C125.695 40.6797 124.023 39.8516 121.898 39.8516C119.273 39.8516 117.305 41.0156 115.992 43.3438V55.4609C117.289 57.7734 119.273 58.9297 121.945 58.9297C124.023 58.9297 125.672 58.1094 126.891 56.4688C128.125 54.8125 128.742 52.3594 128.742 49.1094ZM150.867 40.5312C150.211 40.4219 149.5 40.3672 148.734 40.3672C145.891 40.3672 143.961 41.5781 142.945 44V62H138.609V36.6406H142.828L142.898 39.5703C144.32 37.3047 146.336 36.1719 148.945 36.1719C149.789 36.1719 150.43 36.2812 150.867 36.5V40.5312ZM164.93 62.4688C161.492 62.4688 158.695 61.3438 156.539 59.0938C154.383 56.8281 153.305 53.8047 153.305 50.0234V49.2266C153.305 46.7109 153.781 44.4688 154.734 42.5C155.703 40.5156 157.047 38.9688 158.766 37.8594C160.5 36.7344 162.375 36.1719 164.391 36.1719C167.688 36.1719 170.25 37.2578 172.078 39.4297C173.906 41.6016 174.82 44.7109 174.82 48.7578V50.5625H157.641C157.703 53.0625 158.43 55.0859 159.82 56.6328C161.227 58.1641 163.008 58.9297 165.164 58.9297C166.695 58.9297 167.992 58.6172 169.055 57.9922C170.117 57.3672 171.047 56.5391 171.844 55.5078L174.492 57.5703C172.367 60.8359 169.18 62.4688 164.93 62.4688ZM164.391 39.7344C162.641 39.7344 161.172 40.375 159.984 41.6562C158.797 42.9219 158.062 44.7031 157.781 47H170.484V46.6719C170.359 44.4688 169.766 42.7656 168.703 41.5625C167.641 40.3438 166.203 39.7344 164.391 39.7344ZM194.625 55.2734C194.625 54.1016 194.18 53.1953 193.289 52.5547C192.414 51.8984 190.875 51.3359 188.672 50.8672C186.484 50.3984 184.742 49.8359 183.445 49.1797C182.164 48.5234 181.211 47.7422 180.586 46.8359C179.977 45.9297 179.672 44.8516 179.672 43.6016C179.672 41.5234 180.547 39.7656 182.297 38.3281C184.062 36.8906 186.312 36.1719 189.047 36.1719C191.922 36.1719 194.25 36.9141 196.031 38.3984C197.828 39.8828 198.727 41.7812 198.727 44.0938H194.367C194.367 42.9062 193.859 41.8828 192.844 41.0234C191.844 40.1641 190.578 39.7344 189.047 39.7344C187.469 39.7344 186.234 40.0781 185.344 40.7656C184.453 41.4531 184.008 42.3516 184.008 43.4609C184.008 44.5078 184.422 45.2969 185.25 45.8281C186.078 46.3594 187.57 46.8672 189.727 47.3516C191.898 47.8359 193.656 48.4141 195 49.0859C196.344 49.7578 197.336 50.5703 197.977 51.5234C198.633 52.4609 198.961 53.6094 198.961 54.9688C198.961 57.2344 198.055 59.0547 196.242 60.4297C194.43 61.7891 192.078 62.4688 189.188 62.4688C187.156 62.4688 185.359 62.1094 183.797 61.3906C182.234 60.6719 181.008 59.6719 180.117 58.3906C179.242 57.0938 178.805 55.6953 178.805 54.1953H183.141C183.219 55.6484 183.797 56.8047 184.875 57.6641C185.969 58.5078 187.406 58.9297 189.188 58.9297C190.828 58.9297 192.141 58.6016 193.125 57.9453C194.125 57.2734 194.625 56.3828 194.625 55.2734ZM220.266 62C220.016 61.5 219.812 60.6094 219.656 59.3281C217.641 61.4219 215.234 62.4688 212.438 62.4688C209.938 62.4688 207.883 61.7656 206.273 60.3594C204.68 58.9375 203.883 57.1406 203.883 54.9688C203.883 52.3281 204.883 50.2812 206.883 48.8281C208.898 47.3594 211.727 46.625 215.367 46.625H219.586V44.6328C219.586 43.1172 219.133 41.9141 218.227 41.0234C217.32 40.1172 215.984 39.6641 214.219 39.6641C212.672 39.6641 211.375 40.0547 210.328 40.8359C209.281 41.6172 208.758 42.5625 208.758 43.6719H204.398C204.398 42.4062 204.844 41.1875 205.734 40.0156C206.641 38.8281 207.859 37.8906 209.391 37.2031C210.938 36.5156 212.633 36.1719 214.477 36.1719C217.398 36.1719 219.688 36.9062 221.344 38.375C223 39.8281 223.859 41.8359 223.922 44.3984V56.0703C223.922 58.3984 224.219 60.25 224.812 61.625V62H220.266ZM213.07 58.6953C214.43 58.6953 215.719 58.3438 216.938 57.6406C218.156 56.9375 219.039 56.0234 219.586 54.8984V49.6953H216.188C210.875 49.6953 208.219 51.25 208.219 54.3594C208.219 55.7188 208.672 56.7812 209.578 57.5469C210.484 58.3125 211.648 58.6953 213.07 58.6953ZM245.484 55.2734C245.484 54.1016 245.039 53.1953 244.148 52.5547C243.273 51.8984 241.734 51.3359 239.531 50.8672C237.344 50.3984 235.602 49.8359 234.305 49.1797C233.023 48.5234 232.07 47.7422 231.445 46.8359C230.836 45.9297 230.531 44.8516 230.531 43.6016C230.531 41.5234 231.406 39.7656 233.156 38.3281C234.922 36.8906 237.172 36.1719 239.906 36.1719C242.781 36.1719 245.109 36.9141 246.891 38.3984C248.688 39.8828 249.586 41.7812 249.586 44.0938H245.227C245.227 42.9062 244.719 41.8828 243.703 41.0234C242.703 40.1641 241.438 39.7344 239.906 39.7344C238.328 39.7344 237.094 40.0781 236.203 40.7656C235.312 41.4531 234.867 42.3516 234.867 43.4609C234.867 44.5078 235.281 45.2969 236.109 45.8281C236.938 46.3594 238.43 46.8672 240.586 47.3516C242.758 47.8359 244.516 48.4141 245.859 49.0859C247.203 49.7578 248.195 50.5703 248.836 51.5234C249.492 52.4609 249.82 53.6094 249.82 54.9688C249.82 57.2344 248.914 59.0547 247.102 60.4297C245.289 61.7891 242.938 62.4688 240.047 62.4688C238.016 62.4688 236.219 62.1094 234.656 61.3906C233.094 60.6719 231.867 59.6719 230.977 58.3906C230.102 57.0938 229.664 55.6953 229.664 54.1953H234C234.078 55.6484 234.656 56.8047 235.734 57.6641C236.828 58.5078 238.266 58.9297 240.047 58.9297C241.688 58.9297 243 58.6016 243.984 57.9453C244.984 57.2734 245.484 56.3828 245.484 55.2734ZM266.32 49.1094C266.32 45.125 267.234 41.9766 269.062 39.6641C270.891 37.3359 273.344 36.1719 276.422 36.1719C279.422 36.1719 281.789 37.1797 283.523 39.1953L283.711 36.6406H287.695V71.75H283.359V59.6562C281.609 61.5312 279.281 62.4688 276.375 62.4688C273.312 62.4688 270.867 61.2812 269.039 58.9062C267.227 56.5156 266.32 53.3516 266.32 49.4141V49.1094ZM270.656 49.6016C270.656 52.5078 271.266 54.7891 272.484 56.4453C273.719 58.1016 275.375 58.9297 277.453 58.9297C280.031 58.9297 282 57.7891 283.359 55.5078V43.0859C281.984 40.8516 280.031 39.7344 277.5 39.7344C275.406 39.7344 273.742 40.5703 272.508 42.2422C271.273 43.8984 270.656 46.3516 270.656 49.6016ZM310.312 59.4922C308.625 61.4766 306.148 62.4688 302.883 62.4688C300.18 62.4688 298.117 61.6875 296.695 60.125C295.289 58.5469 294.578 56.2188 294.562 53.1406V36.6406H298.898V53.0234C298.898 56.8672 300.461 58.7891 303.586 58.7891C306.898 58.7891 309.102 57.5547 310.195 55.0859V36.6406H314.531V62H310.406L310.312 59.4922ZM331.664 62.4688C328.227 62.4688 325.43 61.3438 323.273 59.0938C321.117 56.8281 320.039 53.8047 320.039 50.0234V49.2266C320.039 46.7109 320.516 44.4688 321.469 42.5C322.438 40.5156 323.781 38.9688 325.5 37.8594C327.234 36.7344 329.109 36.1719 331.125 36.1719C334.422 36.1719 336.984 37.2578 338.812 39.4297C340.641 41.6016 341.555 44.7109 341.555 48.7578V50.5625H324.375C324.438 53.0625 325.164 55.0859 326.555 56.6328C327.961 58.1641 329.742 58.9297 331.898 58.9297C333.43 58.9297 334.727 58.6172 335.789 57.9922C336.852 57.3672 337.781 56.5391 338.578 55.5078L341.227 57.5703C339.102 60.8359 335.914 62.4688 331.664 62.4688ZM331.125 39.7344C329.375 39.7344 327.906 40.375 326.719 41.6562C325.531 42.9219 324.797 44.7031 324.516 47H337.219V46.6719C337.094 44.4688 336.5 42.7656 335.438 41.5625C334.375 40.3438 332.938 39.7344 331.125 39.7344Z" fill="#3D3D3D"/>
<path d="M129.531 114.344C131.198 114.344 132.552 113.885 133.594 112.969C134.635 112.052 135.177 110.833 135.219 109.312H143.688C143.667 111.604 143.042 113.708 141.812 115.625C140.583 117.521 138.896 119 136.75 120.062C134.625 121.104 132.271 121.625 129.688 121.625C124.854 121.625 121.042 120.094 118.25 117.031C115.458 113.948 114.062 109.698 114.062 104.281V103.688C114.062 98.4792 115.448 94.3229 118.219 91.2188C120.99 88.1146 124.792 86.5625 129.625 86.5625C133.854 86.5625 137.24 87.7708 139.781 90.1875C142.344 92.5833 143.646 95.7812 143.688 99.7812H135.219C135.177 98.0312 134.635 96.6146 133.594 95.5312C132.552 94.4271 131.177 93.875 129.469 93.875C127.365 93.875 125.771 94.6458 124.688 96.1875C123.625 97.7083 123.094 100.188 123.094 103.625V104.562C123.094 108.042 123.625 110.542 124.688 112.062C125.75 113.583 127.365 114.344 129.531 114.344ZM147.438 103.781C147.438 100.427 148.083 97.4375 149.375 94.8125C150.667 92.1875 152.521 90.1562 154.938 88.7188C157.375 87.2812 160.198 86.5625 163.406 86.5625C167.969 86.5625 171.688 87.9583 174.562 90.75C177.458 93.5417 179.073 97.3333 179.406 102.125L179.469 104.438C179.469 109.625 178.021 113.792 175.125 116.938C172.229 120.062 168.344 121.625 163.469 121.625C158.594 121.625 154.698 120.062 151.781 116.938C148.885 113.812 147.438 109.562 147.438 104.188V103.781ZM156.469 104.438C156.469 107.646 157.073 110.104 158.281 111.812C159.49 113.5 161.219 114.344 163.469 114.344C165.656 114.344 167.365 113.51 168.594 111.844C169.823 110.156 170.438 107.469 170.438 103.781C170.438 100.635 169.823 98.1979 168.594 96.4688C167.365 94.7396 165.635 93.875 163.406 93.875C161.198 93.875 159.49 94.7396 158.281 96.4688C157.073 98.1771 156.469 100.833 156.469 104.438ZM193.344 87.1875L193.625 91.0938C196.042 88.0729 199.281 86.5625 203.344 86.5625C206.927 86.5625 209.594 87.6146 211.344 89.7188C213.094 91.8229 213.99 94.9688 214.031 99.1562V121H205V99.375C205 97.4583 204.583 96.0729 203.75 95.2188C202.917 94.3438 201.531 93.9062 199.594 93.9062C197.052 93.9062 195.146 94.9896 193.875 97.1562V121H184.844V87.1875H193.344ZM223.094 121V93.8125H218.062V87.1875H223.094V85.625C223.135 81.375 224.438 78.1042 227 75.8125C229.583 73.5 233.219 72.3438 237.906 72.3438C240.719 72.3438 244.135 72.9583 248.156 74.1875L246.844 81.6562C244.802 81.0521 243.219 80.6667 242.094 80.5C240.969 80.3125 239.76 80.2188 238.469 80.2188C234.26 80.2188 232.156 82.0833 232.156 85.8125V87.1875H238.812V93.8125H232.156V121H223.094ZM252.375 121H243.312V87.1875H252.375V121ZM279.438 121C279.021 120.188 278.719 119.177 278.531 117.969C276.344 120.406 273.5 121.625 270 121.625C266.688 121.625 263.938 120.667 261.75 118.75C259.583 116.833 258.5 114.417 258.5 111.5C258.5 107.917 259.823 105.167 262.469 103.25C265.135 101.333 268.979 100.365 274 100.344H278.156V98.4062C278.156 96.8438 277.75 95.5938 276.938 94.6562C276.146 93.7188 274.885 93.25 273.156 93.25C271.635 93.25 270.438 93.6146 269.562 94.3438C268.708 95.0729 268.281 96.0729 268.281 97.3438H259.25C259.25 95.3854 259.854 93.5729 261.062 91.9062C262.271 90.2396 263.979 88.9375 266.188 88C268.396 87.0417 270.875 86.5625 273.625 86.5625C277.792 86.5625 281.094 87.6146 283.531 89.7188C285.99 91.8021 287.219 94.7396 287.219 98.5312V113.188C287.24 116.396 287.688 118.823 288.562 120.469V121H279.438ZM271.969 114.719C273.302 114.719 274.531 114.427 275.656 113.844C276.781 113.24 277.615 112.438 278.156 111.438V105.625H274.781C270.26 105.625 267.854 107.188 267.562 110.312L267.531 110.844C267.531 111.969 267.927 112.896 268.719 113.625C269.51 114.354 270.594 114.719 271.969 114.719ZM302.625 87.1875L302.906 90.9688C305.302 88.0312 308.542 86.5625 312.625 86.5625C316.979 86.5625 319.969 88.2812 321.594 91.7188C323.969 88.2812 327.354 86.5625 331.75 86.5625C335.417 86.5625 338.146 87.6354 339.938 89.7812C341.729 91.9062 342.625 95.1146 342.625 99.4062V121H333.562V99.4375C333.562 97.5208 333.188 96.125 332.438 95.25C331.688 94.3542 330.365 93.9062 328.469 93.9062C325.76 93.9062 323.885 95.1979 322.844 97.7812L322.875 121H313.844V99.4688C313.844 97.5104 313.458 96.0938 312.688 95.2188C311.917 94.3438 310.604 93.9062 308.75 93.9062C306.188 93.9062 304.333 94.9688 303.188 97.0938V121H294.156V87.1875H302.625ZM373.844 87.1875L374.125 91.0938C376.542 88.0729 379.781 86.5625 383.844 86.5625C387.427 86.5625 390.094 87.6146 391.844 89.7188C393.594 91.8229 394.49 94.9688 394.531 99.1562V121H385.5V99.375C385.5 97.4583 385.083 96.0729 384.25 95.2188C383.417 94.3438 382.031 93.9062 380.094 93.9062C377.552 93.9062 375.646 94.9896 374.375 97.1562V121H365.344V87.1875H373.844ZM421 121C420.583 120.188 420.281 119.177 420.094 117.969C417.906 120.406 415.062 121.625 411.562 121.625C408.25 121.625 405.5 120.667 403.312 118.75C401.146 116.833 400.062 114.417 400.062 111.5C400.062 107.917 401.385 105.167 404.031 103.25C406.698 101.333 410.542 100.365 415.562 100.344H419.719V98.4062C419.719 96.8438 419.312 95.5938 418.5 94.6562C417.708 93.7188 416.448 93.25 414.719 93.25C413.198 93.25 412 93.6146 411.125 94.3438C410.271 95.0729 409.844 96.0729 409.844 97.3438H400.812C400.812 95.3854 401.417 93.5729 402.625 91.9062C403.833 90.2396 405.542 88.9375 407.75 88C409.958 87.0417 412.438 86.5625 415.188 86.5625C419.354 86.5625 422.656 87.6146 425.094 89.7188C427.552 91.8021 428.781 94.7396 428.781 98.5312V113.188C428.802 116.396 429.25 118.823 430.125 120.469V121H421ZM413.531 114.719C414.865 114.719 416.094 114.427 417.219 113.844C418.344 113.24 419.177 112.438 419.719 111.438V105.625H416.344C411.823 105.625 409.417 107.188 409.125 110.312L409.094 110.844C409.094 111.969 409.49 112.896 410.281 113.625C411.073 114.354 412.156 114.719 413.531 114.719ZM450.344 103.844C450.344 98.6562 451.573 94.4792 454.031 91.3125C456.51 88.1458 459.844 86.5625 464.031 86.5625C467.74 86.5625 470.625 87.8333 472.688 90.375L473.062 87.1875H481.25V119.875C481.25 122.833 480.573 125.406 479.219 127.594C477.885 129.781 476 131.448 473.562 132.594C471.125 133.74 468.271 134.312 465 134.312C462.521 134.312 460.104 133.812 457.75 132.812C455.396 131.833 453.615 130.562 452.406 129L456.406 123.5C458.656 126.021 461.385 127.281 464.594 127.281C466.99 127.281 468.854 126.635 470.188 125.344C471.521 124.073 472.188 122.26 472.188 119.906V118.094C470.104 120.448 467.365 121.625 463.969 121.625C459.906 121.625 456.615 120.042 454.094 116.875C451.594 113.688 450.344 109.469 450.344 104.219V103.844ZM459.375 104.5C459.375 107.562 459.99 109.969 461.219 111.719C462.448 113.448 464.135 114.312 466.281 114.312C469.031 114.312 471 113.281 472.188 111.219V97C470.979 94.9375 469.031 93.9062 466.344 93.9062C464.177 93.9062 462.469 94.7917 461.219 96.5625C459.99 98.3333 459.375 100.979 459.375 104.5ZM503.781 121.625C498.823 121.625 494.781 120.104 491.656 117.062C488.552 114.021 487 109.969 487 104.906V104.031C487 100.635 487.656 97.6042 488.969 94.9375C490.281 92.25 492.135 90.1875 494.531 88.75C496.948 87.2917 499.698 86.5625 502.781 86.5625C507.406 86.5625 511.042 88.0208 513.688 90.9375C516.354 93.8542 517.688 97.9896 517.688 103.344V107.031H496.156C496.448 109.24 497.323 111.01 498.781 112.344C500.26 113.677 502.125 114.344 504.375 114.344C507.854 114.344 510.573 113.083 512.531 110.562L516.969 115.531C515.615 117.448 513.781 118.948 511.469 120.031C509.156 121.094 506.594 121.625 503.781 121.625ZM502.75 93.875C500.958 93.875 499.5 94.4792 498.375 95.6875C497.271 96.8958 496.562 98.625 496.25 100.875H508.812V100.156C508.771 98.1562 508.229 96.6146 507.188 95.5312C506.146 94.4271 504.667 93.875 502.75 93.875ZM531.156 87.1875L531.438 91.0938C533.854 88.0729 537.094 86.5625 541.156 86.5625C544.74 86.5625 547.406 87.6146 549.156 89.7188C550.906 91.8229 551.802 94.9688 551.844 99.1562V121H542.812V99.375C542.812 97.4583 542.396 96.0729 541.562 95.2188C540.729 94.3438 539.344 93.9062 537.406 93.9062C534.865 93.9062 532.958 94.9896 531.688 97.1562V121H522.656V87.1875H531.156ZM569.531 78.875V87.1875H575.312V93.8125H569.531V110.688C569.531 111.938 569.771 112.833 570.25 113.375C570.729 113.917 571.646 114.188 573 114.188C574 114.188 574.885 114.115 575.656 113.969V120.812C573.885 121.354 572.062 121.625 570.188 121.625C563.854 121.625 560.625 118.427 560.5 112.031V93.8125H555.562V87.1875H560.5V78.875H569.531ZM595.906 121.625C590.948 121.625 586.906 120.104 583.781 117.062C580.677 114.021 579.125 109.969 579.125 104.906V104.031C579.125 100.635 579.781 97.6042 581.094 94.9375C582.406 92.25 584.26 90.1875 586.656 88.75C589.073 87.2917 591.823 86.5625 594.906 86.5625C599.531 86.5625 603.167 88.0208 605.812 90.9375C608.479 93.8542 609.812 97.9896 609.812 103.344V107.031H588.281C588.573 109.24 589.448 111.01 590.906 112.344C592.385 113.677 594.25 114.344 596.5 114.344C599.979 114.344 602.698 113.083 604.656 110.562L609.094 115.531C607.74 117.448 605.906 118.948 603.594 120.031C601.281 121.094 598.719 121.625 595.906 121.625ZM594.875 93.875C593.083 93.875 591.625 94.4792 590.5 95.6875C589.396 96.8958 588.688 98.625 588.375 100.875H600.938V100.156C600.896 98.1562 600.354 96.6146 599.312 95.5312C598.271 94.4271 596.792 93.875 594.875 93.875Z" fill="black"/>
<line x1="23" y1="8.74228e-08" x2="23" y2="110" stroke="#FF9901" stroke-width="4"/>
<line y1="15" x2="166" y2="15" stroke="#FF9901" stroke-width="4"/>
</svg>
