<svg width="496" height="63" viewBox="0 0 496 63" fill="none" xmlns="http://www.w3.org/2000/svg">
<path d="M15.5312 42.3438C17.1979 42.3438 18.5521 41.8854 19.5938 40.9688C20.6354 40.0521 21.1771 38.8333 21.2188 37.3125H29.6875C29.6667 39.6042 29.0417 41.7083 27.8125 43.625C26.5833 45.5208 24.8958 47 22.75 48.0625C20.625 49.1042 18.2708 49.625 15.6875 49.625C10.8542 49.625 7.04167 48.0938 4.25 45.0312C1.45833 41.9479 0.0625 37.6979 0.0625 32.2812V31.6875C0.0625 26.4792 1.44792 22.3229 4.21875 19.2188C6.98958 16.1146 10.7917 14.5625 15.625 14.5625C19.8542 14.5625 23.2396 15.7708 25.7812 18.1875C28.3438 20.5833 29.6458 23.7812 29.6875 27.7812H21.2188C21.1771 26.0312 20.6354 24.6146 19.5938 23.5312C18.5521 22.4271 17.1771 21.875 15.4688 21.875C13.3646 21.875 11.7708 22.6458 10.6875 24.1875C9.625 25.7083 9.09375 28.1875 9.09375 31.625V32.5625C9.09375 36.0417 9.625 38.5417 10.6875 40.0625C11.75 41.5833 13.3646 42.3438 15.5312 42.3438ZM33.4375 31.7812C33.4375 28.4271 34.0833 25.4375 35.375 22.8125C36.6667 20.1875 38.5208 18.1562 40.9375 16.7188C43.375 15.2812 46.1979 14.5625 49.4062 14.5625C53.9688 14.5625 57.6875 15.9583 60.5625 18.75C63.4583 21.5417 65.0729 25.3333 65.4062 30.125L65.4688 32.4375C65.4688 37.625 64.0208 41.7917 61.125 44.9375C58.2292 48.0625 54.3438 49.625 49.4688 49.625C44.5938 49.625 40.6979 48.0625 37.7812 44.9375C34.8854 41.8125 33.4375 37.5625 33.4375 32.1875V31.7812ZM42.4688 32.4375C42.4688 35.6458 43.0729 38.1042 44.2812 39.8125C45.4896 41.5 47.2188 42.3438 49.4688 42.3438C51.6562 42.3438 53.3646 41.5104 54.5938 39.8438C55.8229 38.1562 56.4375 35.4688 56.4375 31.7812C56.4375 28.6354 55.8229 26.1979 54.5938 24.4688C53.3646 22.7396 51.6354 21.875 49.4062 21.875C47.1979 21.875 45.4896 22.7396 44.2812 24.4688C43.0729 26.1771 42.4688 28.8333 42.4688 32.4375ZM79.3438 15.1875L79.625 19.0938C82.0417 16.0729 85.2812 14.5625 89.3438 14.5625C92.9271 14.5625 95.5938 15.6146 97.3438 17.7188C99.0938 19.8229 99.9896 22.9688 100.031 27.1562V49H91V27.375C91 25.4583 90.5833 24.0729 89.75 23.2188C88.9167 22.3438 87.5312 21.9062 85.5938 21.9062C83.0521 21.9062 81.1458 22.9896 79.875 25.1562V49H70.8438V15.1875H79.3438ZM109.094 49V21.8125H104.062V15.1875H109.094V13.625C109.135 9.375 110.438 6.10417 113 3.8125C115.583 1.5 119.219 0.34375 123.906 0.34375C126.719 0.34375 130.135 0.958333 134.156 2.1875L132.844 9.65625C130.802 9.05208 129.219 8.66667 128.094 8.5C126.969 8.3125 125.76 8.21875 124.469 8.21875C120.26 8.21875 118.156 10.0833 118.156 13.8125V15.1875H124.812V21.8125H118.156V49H109.094ZM138.375 49H129.312V15.1875H138.375V49ZM165.438 49C165.021 48.1875 164.719 47.1771 164.531 45.9688C162.344 48.4062 159.5 49.625 156 49.625C152.688 49.625 149.938 48.6667 147.75 46.75C145.583 44.8333 144.5 42.4167 144.5 39.5C144.5 35.9167 145.823 33.1667 148.469 31.25C151.135 29.3333 154.979 28.3646 160 28.3438H164.156V26.4062C164.156 24.8438 163.75 23.5938 162.938 22.6562C162.146 21.7188 160.885 21.25 159.156 21.25C157.635 21.25 156.438 21.6146 155.562 22.3438C154.708 23.0729 154.281 24.0729 154.281 25.3438H145.25C145.25 23.3854 145.854 21.5729 147.062 19.9062C148.271 18.2396 149.979 16.9375 152.188 16C154.396 15.0417 156.875 14.5625 159.625 14.5625C163.792 14.5625 167.094 15.6146 169.531 17.7188C171.99 19.8021 173.219 22.7396 173.219 26.5312V41.1875C173.24 44.3958 173.688 46.8229 174.562 48.4688V49H165.438ZM157.969 42.7188C159.302 42.7188 160.531 42.4271 161.656 41.8438C162.781 41.2396 163.615 40.4375 164.156 39.4375V33.625H160.781C156.26 33.625 153.854 35.1875 153.562 38.3125L153.531 38.8438C153.531 39.9688 153.927 40.8958 154.719 41.625C155.51 42.3542 156.594 42.7188 157.969 42.7188ZM188.625 15.1875L188.906 18.9688C191.302 16.0312 194.542 14.5625 198.625 14.5625C202.979 14.5625 205.969 16.2812 207.594 19.7188C209.969 16.2812 213.354 14.5625 217.75 14.5625C221.417 14.5625 224.146 15.6354 225.938 17.7812C227.729 19.9062 228.625 23.1146 228.625 27.4062V49H219.562V27.4375C219.562 25.5208 219.188 24.125 218.438 23.25C217.688 22.3542 216.365 21.9062 214.469 21.9062C211.76 21.9062 209.885 23.1979 208.844 25.7812L208.875 49H199.844V27.4688C199.844 25.5104 199.458 24.0938 198.688 23.2188C197.917 22.3438 196.604 21.9062 194.75 21.9062C192.188 21.9062 190.333 22.9688 189.188 25.0938V49H180.156V15.1875H188.625ZM259.844 15.1875L260.125 19.0938C262.542 16.0729 265.781 14.5625 269.844 14.5625C273.427 14.5625 276.094 15.6146 277.844 17.7188C279.594 19.8229 280.49 22.9688 280.531 27.1562V49H271.5V27.375C271.5 25.4583 271.083 24.0729 270.25 23.2188C269.417 22.3438 268.031 21.9062 266.094 21.9062C263.552 21.9062 261.646 22.9896 260.375 25.1562V49H251.344V15.1875H259.844ZM307 49C306.583 48.1875 306.281 47.1771 306.094 45.9688C303.906 48.4062 301.062 49.625 297.562 49.625C294.25 49.625 291.5 48.6667 289.312 46.75C287.146 44.8333 286.062 42.4167 286.062 39.5C286.062 35.9167 287.385 33.1667 290.031 31.25C292.698 29.3333 296.542 28.3646 301.562 28.3438H305.719V26.4062C305.719 24.8438 305.312 23.5938 304.5 22.6562C303.708 21.7188 302.448 21.25 300.719 21.25C299.198 21.25 298 21.6146 297.125 22.3438C296.271 23.0729 295.844 24.0729 295.844 25.3438H286.812C286.812 23.3854 287.417 21.5729 288.625 19.9062C289.833 18.2396 291.542 16.9375 293.75 16C295.958 15.0417 298.438 14.5625 301.188 14.5625C305.354 14.5625 308.656 15.6146 311.094 17.7188C313.552 19.8021 314.781 22.7396 314.781 26.5312V41.1875C314.802 44.3958 315.25 46.8229 316.125 48.4688V49H307ZM299.531 42.7188C300.865 42.7188 302.094 42.4271 303.219 41.8438C304.344 41.2396 305.177 40.4375 305.719 39.4375V33.625H302.344C297.823 33.625 295.417 35.1875 295.125 38.3125L295.094 38.8438C295.094 39.9688 295.49 40.8958 296.281 41.625C297.073 42.3542 298.156 42.7188 299.531 42.7188ZM336.344 31.8438C336.344 26.6562 337.573 22.4792 340.031 19.3125C342.51 16.1458 345.844 14.5625 350.031 14.5625C353.74 14.5625 356.625 15.8333 358.688 18.375L359.062 15.1875H367.25V47.875C367.25 50.8333 366.573 53.4062 365.219 55.5938C363.885 57.7812 362 59.4479 359.562 60.5938C357.125 61.7396 354.271 62.3125 351 62.3125C348.521 62.3125 346.104 61.8125 343.75 60.8125C341.396 59.8333 339.615 58.5625 338.406 57L342.406 51.5C344.656 54.0208 347.385 55.2812 350.594 55.2812C352.99 55.2812 354.854 54.6354 356.188 53.3438C357.521 52.0729 358.188 50.2604 358.188 47.9062V46.0938C356.104 48.4479 353.365 49.625 349.969 49.625C345.906 49.625 342.615 48.0417 340.094 44.875C337.594 41.6875 336.344 37.4688 336.344 32.2188V31.8438ZM345.375 32.5C345.375 35.5625 345.99 37.9688 347.219 39.7188C348.448 41.4479 350.135 42.3125 352.281 42.3125C355.031 42.3125 357 41.2812 358.188 39.2188V25C356.979 22.9375 355.031 21.9062 352.344 21.9062C350.177 21.9062 348.469 22.7917 347.219 24.5625C345.99 26.3333 345.375 28.9792 345.375 32.5ZM389.781 49.625C384.823 49.625 380.781 48.1042 377.656 45.0625C374.552 42.0208 373 37.9688 373 32.9062V32.0312C373 28.6354 373.656 25.6042 374.969 22.9375C376.281 20.25 378.135 18.1875 380.531 16.75C382.948 15.2917 385.698 14.5625 388.781 14.5625C393.406 14.5625 397.042 16.0208 399.688 18.9375C402.354 21.8542 403.688 25.9896 403.688 31.3438V35.0312H382.156C382.448 37.2396 383.323 39.0104 384.781 40.3438C386.26 41.6771 388.125 42.3438 390.375 42.3438C393.854 42.3438 396.573 41.0833 398.531 38.5625L402.969 43.5312C401.615 45.4479 399.781 46.9479 397.469 48.0312C395.156 49.0938 392.594 49.625 389.781 49.625ZM388.75 21.875C386.958 21.875 385.5 22.4792 384.375 23.6875C383.271 24.8958 382.562 26.625 382.25 28.875H394.812V28.1562C394.771 26.1562 394.229 24.6146 393.188 23.5312C392.146 22.4271 390.667 21.875 388.75 21.875ZM417.156 15.1875L417.438 19.0938C419.854 16.0729 423.094 14.5625 427.156 14.5625C430.74 14.5625 433.406 15.6146 435.156 17.7188C436.906 19.8229 437.802 22.9688 437.844 27.1562V49H428.812V27.375C428.812 25.4583 428.396 24.0729 427.562 23.2188C426.729 22.3438 425.344 21.9062 423.406 21.9062C420.865 21.9062 418.958 22.9896 417.688 25.1562V49H408.656V15.1875H417.156ZM455.531 6.875V15.1875H461.312V21.8125H455.531V38.6875C455.531 39.9375 455.771 40.8333 456.25 41.375C456.729 41.9167 457.646 42.1875 459 42.1875C460 42.1875 460.885 42.1146 461.656 41.9688V48.8125C459.885 49.3542 458.062 49.625 456.188 49.625C449.854 49.625 446.625 46.4271 446.5 40.0312V21.8125H441.562V15.1875H446.5V6.875H455.531ZM481.906 49.625C476.948 49.625 472.906 48.1042 469.781 45.0625C466.677 42.0208 465.125 37.9688 465.125 32.9062V32.0312C465.125 28.6354 465.781 25.6042 467.094 22.9375C468.406 20.25 470.26 18.1875 472.656 16.75C475.073 15.2917 477.823 14.5625 480.906 14.5625C485.531 14.5625 489.167 16.0208 491.812 18.9375C494.479 21.8542 495.812 25.9896 495.812 31.3438V35.0312H474.281C474.573 37.2396 475.448 39.0104 476.906 40.3438C478.385 41.6771 480.25 42.3438 482.5 42.3438C485.979 42.3438 488.698 41.0833 490.656 38.5625L495.094 43.5312C493.74 45.4479 491.906 46.9479 489.594 48.0312C487.281 49.0938 484.719 49.625 481.906 49.625ZM480.875 21.875C479.083 21.875 477.625 22.4792 476.5 23.6875C475.396 24.8958 474.688 26.625 474.375 28.875H486.938V28.1562C486.896 26.1562 486.354 24.6146 485.312 23.5312C484.271 22.4271 482.792 21.875 480.875 21.875Z" fill="black"/>
</svg>
