<svg width="300" height="45" viewBox="0 0 300 45" fill="none" xmlns="http://www.w3.org/2000/svg">
<path d="M20.25 19.2266H5.46094V31.3203H22.6406V35H0.960938V0.875H22.4062V4.57812H5.46094V15.5469H20.25V19.2266ZM31.6406 9.64062L31.7578 12.4531C33.6172 10.2656 36.125 9.17188 39.2812 9.17188C42.8281 9.17188 45.2422 10.5312 46.5234 13.25C47.3672 12.0312 48.4609 11.0469 49.8047 10.2969C51.1641 9.54688 52.7656 9.17188 54.6094 9.17188C60.1719 9.17188 63 12.1172 63.0938 18.0078V35H58.7578V18.2656C58.7578 16.4531 58.3438 15.1016 57.5156 14.2109C56.6875 13.3047 55.2969 12.8516 53.3438 12.8516C51.7344 12.8516 50.3984 13.3359 49.3359 14.3047C48.2734 15.2578 47.6562 16.5469 47.4844 18.1719V35H43.125V18.3828C43.125 14.6953 41.3203 12.8516 37.7109 12.8516C34.8672 12.8516 32.9219 14.0625 31.875 16.4844V35H27.5391V9.64062H31.6406ZM91.0781 22.6016C91.0781 26.4609 90.1953 29.5703 88.4297 31.9297C86.6641 34.2891 84.2734 35.4688 81.2578 35.4688C78.1797 35.4688 75.7578 34.4922 73.9922 32.5391V44.75H69.6562V9.64062H73.6172L73.8281 12.4531C75.5938 10.2656 78.0469 9.17188 81.1875 9.17188C84.2344 9.17188 86.6406 10.3203 88.4062 12.6172C90.1875 14.9141 91.0781 18.1094 91.0781 22.2031V22.6016ZM86.7422 22.1094C86.7422 19.25 86.1328 16.9922 84.9141 15.3359C83.6953 13.6797 82.0234 12.8516 79.8984 12.8516C77.2734 12.8516 75.3047 14.0156 73.9922 16.3438V28.4609C75.2891 30.7734 77.2734 31.9297 79.9453 31.9297C82.0234 31.9297 83.6719 31.1094 84.8906 29.4688C86.125 27.8125 86.7422 25.3594 86.7422 22.1094ZM108.867 13.5312C108.211 13.4219 107.5 13.3672 106.734 13.3672C103.891 13.3672 101.961 14.5781 100.945 17V35H96.6094V9.64062H100.828L100.898 12.5703C102.32 10.3047 104.336 9.17188 106.945 9.17188C107.789 9.17188 108.43 9.28125 108.867 9.5V13.5312ZM122.93 35.4688C119.492 35.4688 116.695 34.3438 114.539 32.0938C112.383 29.8281 111.305 26.8047 111.305 23.0234V22.2266C111.305 19.7109 111.781 17.4688 112.734 15.5C113.703 13.5156 115.047 11.9688 116.766 10.8594C118.5 9.73438 120.375 9.17188 122.391 9.17188C125.688 9.17188 128.25 10.2578 130.078 12.4297C131.906 14.6016 132.82 17.7109 132.82 21.7578V23.5625H115.641C115.703 26.0625 116.43 28.0859 117.82 29.6328C119.227 31.1641 121.008 31.9297 123.164 31.9297C124.695 31.9297 125.992 31.6172 127.055 30.9922C128.117 30.3672 129.047 29.5391 129.844 28.5078L132.492 30.5703C130.367 33.8359 127.18 35.4688 122.93 35.4688ZM122.391 12.7344C120.641 12.7344 119.172 13.375 117.984 14.6562C116.797 15.9219 116.062 17.7031 115.781 20H128.484V19.6719C128.359 17.4688 127.766 15.7656 126.703 14.5625C125.641 13.3438 124.203 12.7344 122.391 12.7344ZM152.625 28.2734C152.625 27.1016 152.18 26.1953 151.289 25.5547C150.414 24.8984 148.875 24.3359 146.672 23.8672C144.484 23.3984 142.742 22.8359 141.445 22.1797C140.164 21.5234 139.211 20.7422 138.586 19.8359C137.977 18.9297 137.672 17.8516 137.672 16.6016C137.672 14.5234 138.547 12.7656 140.297 11.3281C142.062 9.89062 144.312 9.17188 147.047 9.17188C149.922 9.17188 152.25 9.91406 154.031 11.3984C155.828 12.8828 156.727 14.7812 156.727 17.0938H152.367C152.367 15.9062 151.859 14.8828 150.844 14.0234C149.844 13.1641 148.578 12.7344 147.047 12.7344C145.469 12.7344 144.234 13.0781 143.344 13.7656C142.453 14.4531 142.008 15.3516 142.008 16.4609C142.008 17.5078 142.422 18.2969 143.25 18.8281C144.078 19.3594 145.57 19.8672 147.727 20.3516C149.898 20.8359 151.656 21.4141 153 22.0859C154.344 22.7578 155.336 23.5703 155.977 24.5234C156.633 25.4609 156.961 26.6094 156.961 27.9688C156.961 30.2344 156.055 32.0547 154.242 33.4297C152.43 34.7891 150.078 35.4688 147.188 35.4688C145.156 35.4688 143.359 35.1094 141.797 34.3906C140.234 33.6719 139.008 32.6719 138.117 31.3906C137.242 30.0938 136.805 28.6953 136.805 27.1953H141.141C141.219 28.6484 141.797 29.8047 142.875 30.6641C143.969 31.5078 145.406 31.9297 147.188 31.9297C148.828 31.9297 150.141 31.6016 151.125 30.9453C152.125 30.2734 152.625 29.3828 152.625 28.2734ZM178.266 35C178.016 34.5 177.812 33.6094 177.656 32.3281C175.641 34.4219 173.234 35.4688 170.438 35.4688C167.938 35.4688 165.883 34.7656 164.273 33.3594C162.68 31.9375 161.883 30.1406 161.883 27.9688C161.883 25.3281 162.883 23.2812 164.883 21.8281C166.898 20.3594 169.727 19.625 173.367 19.625H177.586V17.6328C177.586 16.1172 177.133 14.9141 176.227 14.0234C175.32 13.1172 173.984 12.6641 172.219 12.6641C170.672 12.6641 169.375 13.0547 168.328 13.8359C167.281 14.6172 166.758 15.5625 166.758 16.6719H162.398C162.398 15.4062 162.844 14.1875 163.734 13.0156C164.641 11.8281 165.859 10.8906 167.391 10.2031C168.938 9.51562 170.633 9.17188 172.477 9.17188C175.398 9.17188 177.688 9.90625 179.344 11.375C181 12.8281 181.859 14.8359 181.922 17.3984V29.0703C181.922 31.3984 182.219 33.25 182.812 34.625V35H178.266ZM171.07 31.6953C172.43 31.6953 173.719 31.3438 174.938 30.6406C176.156 29.9375 177.039 29.0234 177.586 27.8984V22.6953H174.188C168.875 22.6953 166.219 24.25 166.219 27.3594C166.219 28.7188 166.672 29.7812 167.578 30.5469C168.484 31.3125 169.648 31.6953 171.07 31.6953ZM203.484 28.2734C203.484 27.1016 203.039 26.1953 202.148 25.5547C201.273 24.8984 199.734 24.3359 197.531 23.8672C195.344 23.3984 193.602 22.8359 192.305 22.1797C191.023 21.5234 190.07 20.7422 189.445 19.8359C188.836 18.9297 188.531 17.8516 188.531 16.6016C188.531 14.5234 189.406 12.7656 191.156 11.3281C192.922 9.89062 195.172 9.17188 197.906 9.17188C200.781 9.17188 203.109 9.91406 204.891 11.3984C206.688 12.8828 207.586 14.7812 207.586 17.0938H203.227C203.227 15.9062 202.719 14.8828 201.703 14.0234C200.703 13.1641 199.438 12.7344 197.906 12.7344C196.328 12.7344 195.094 13.0781 194.203 13.7656C193.312 14.4531 192.867 15.3516 192.867 16.4609C192.867 17.5078 193.281 18.2969 194.109 18.8281C194.938 19.3594 196.43 19.8672 198.586 20.3516C200.758 20.8359 202.516 21.4141 203.859 22.0859C205.203 22.7578 206.195 23.5703 206.836 24.5234C207.492 25.4609 207.82 26.6094 207.82 27.9688C207.82 30.2344 206.914 32.0547 205.102 33.4297C203.289 34.7891 200.938 35.4688 198.047 35.4688C196.016 35.4688 194.219 35.1094 192.656 34.3906C191.094 33.6719 189.867 32.6719 188.977 31.3906C188.102 30.0938 187.664 28.6953 187.664 27.1953H192C192.078 28.6484 192.656 29.8047 193.734 30.6641C194.828 31.5078 196.266 31.9297 198.047 31.9297C199.688 31.9297 201 31.6016 201.984 30.9453C202.984 30.2734 203.484 29.3828 203.484 28.2734ZM224.32 22.1094C224.32 18.125 225.234 14.9766 227.062 12.6641C228.891 10.3359 231.344 9.17188 234.422 9.17188C237.422 9.17188 239.789 10.1797 241.523 12.1953L241.711 9.64062H245.695V44.75H241.359V32.6562C239.609 34.5312 237.281 35.4688 234.375 35.4688C231.312 35.4688 228.867 34.2812 227.039 31.9062C225.227 29.5156 224.32 26.3516 224.32 22.4141V22.1094ZM228.656 22.6016C228.656 25.5078 229.266 27.7891 230.484 29.4453C231.719 31.1016 233.375 31.9297 235.453 31.9297C238.031 31.9297 240 30.7891 241.359 28.5078V16.0859C239.984 13.8516 238.031 12.7344 235.5 12.7344C233.406 12.7344 231.742 13.5703 230.508 15.2422C229.273 16.8984 228.656 19.3516 228.656 22.6016ZM268.312 32.4922C266.625 34.4766 264.148 35.4688 260.883 35.4688C258.18 35.4688 256.117 34.6875 254.695 33.125C253.289 31.5469 252.578 29.2188 252.562 26.1406V9.64062H256.898V26.0234C256.898 29.8672 258.461 31.7891 261.586 31.7891C264.898 31.7891 267.102 30.5547 268.195 28.0859V9.64062H272.531V35H268.406L268.312 32.4922ZM289.664 35.4688C286.227 35.4688 283.43 34.3438 281.273 32.0938C279.117 29.8281 278.039 26.8047 278.039 23.0234V22.2266C278.039 19.7109 278.516 17.4688 279.469 15.5C280.438 13.5156 281.781 11.9688 283.5 10.8594C285.234 9.73438 287.109 9.17188 289.125 9.17188C292.422 9.17188 294.984 10.2578 296.812 12.4297C298.641 14.6016 299.555 17.7109 299.555 21.7578V23.5625H282.375C282.438 26.0625 283.164 28.0859 284.555 29.6328C285.961 31.1641 287.742 31.9297 289.898 31.9297C291.43 31.9297 292.727 31.6172 293.789 30.9922C294.852 30.3672 295.781 29.5391 296.578 28.5078L299.227 30.5703C297.102 33.8359 293.914 35.4688 289.664 35.4688ZM289.125 12.7344C287.375 12.7344 285.906 13.375 284.719 14.6562C283.531 15.9219 282.797 17.7031 282.516 20H295.219V19.6719C295.094 17.4688 294.5 15.7656 293.438 14.5625C292.375 13.3438 290.938 12.7344 289.125 12.7344Z" fill="#3D3D3D"/>
</svg>
