<svg width="753" height="231" viewBox="0 0 753 231" fill="none" xmlns="http://www.w3.org/2000/svg">
<path d="M71.6914 87.2002V107.239H64.9414V56.0518H83.8203C89.4219 56.0518 93.8047 57.4814 96.9688 60.3408C100.156 63.2002 101.75 66.9854 101.75 71.6963C101.75 76.665 100.191 80.4971 97.0742 83.1924C93.9805 85.8643 89.5391 87.2002 83.75 87.2002H71.6914ZM71.6914 81.6807H83.8203C87.4297 81.6807 90.1953 80.8369 92.1172 79.1494C94.0391 77.4385 95 74.9775 95 71.7666C95 68.7197 94.0391 66.2822 92.1172 64.4541C90.1953 62.626 87.5586 61.6768 84.207 61.6064H71.6914V81.6807ZM107.129 87.8682C107.129 84.1416 107.855 80.79 109.309 77.8135C110.785 74.8369 112.824 72.54 115.426 70.9229C118.051 69.3057 121.039 68.4971 124.391 68.4971C129.57 68.4971 133.754 70.29 136.941 73.876C140.152 77.4619 141.758 82.2314 141.758 88.1846V88.6416C141.758 92.3447 141.043 95.6729 139.613 98.626C138.207 101.556 136.18 103.841 133.531 105.481C130.906 107.122 127.883 107.942 124.461 107.942C119.305 107.942 115.121 106.149 111.91 102.563C108.723 98.9775 107.129 94.2314 107.129 88.3252V87.8682ZM113.668 88.6416C113.668 92.8604 114.641 96.2471 116.586 98.8018C118.555 101.356 121.18 102.634 124.461 102.634C127.766 102.634 130.391 101.345 132.336 98.7666C134.281 96.165 135.254 92.5322 135.254 87.8682C135.254 83.6963 134.258 80.3213 132.266 77.7432C130.297 75.1416 127.672 73.8408 124.391 73.8408C121.18 73.8408 118.59 75.1182 116.621 77.6729C114.652 80.2275 113.668 83.8838 113.668 88.6416ZM168.301 75.0361C167.316 74.8721 166.25 74.79 165.102 74.79C160.836 74.79 157.941 76.6064 156.418 80.2393V107.239H149.914V69.2002H156.242L156.348 73.5947C158.48 70.1963 161.504 68.4971 165.418 68.4971C166.684 68.4971 167.645 68.6611 168.301 68.9893V75.0361ZM172.027 87.9033C172.027 81.9268 173.398 77.2041 176.141 73.7354C178.883 70.2432 182.562 68.4971 187.18 68.4971C191.68 68.4971 195.23 70.0088 197.832 73.0322L198.113 69.2002H204.09V121.864H197.586V103.724C194.961 106.536 191.469 107.942 187.109 107.942C182.516 107.942 178.848 106.161 176.105 102.599C173.387 99.0127 172.027 94.2666 172.027 88.3604V87.9033ZM178.531 88.6416C178.531 93.001 179.445 96.4229 181.273 98.9072C183.125 101.392 185.609 102.634 188.727 102.634C192.594 102.634 195.547 100.923 197.586 97.501V78.8682C195.523 75.5166 192.594 73.8408 188.797 73.8408C185.656 73.8408 183.16 75.0947 181.309 77.6025C179.457 80.0869 178.531 83.7666 178.531 88.6416ZM238.016 103.478C235.484 106.454 231.77 107.942 226.871 107.942C222.816 107.942 219.723 106.771 217.59 104.427C215.48 102.06 214.414 98.5674 214.391 93.9502V69.2002H220.895V93.7744C220.895 99.54 223.238 102.423 227.926 102.423C232.895 102.423 236.199 100.571 237.84 96.8682V69.2002H244.344V107.239H238.156L238.016 103.478ZM270.043 107.942C264.887 107.942 260.691 106.255 257.457 102.88C254.223 99.4814 252.605 94.9463 252.605 89.2744V88.0791C252.605 84.3057 253.32 80.9424 254.75 77.9893C256.203 75.0127 258.219 72.6924 260.797 71.0283C263.398 69.3408 266.211 68.4971 269.234 68.4971C274.18 68.4971 278.023 70.126 280.766 73.3838C283.508 76.6416 284.879 81.3057 284.879 87.376V90.083H259.109C259.203 93.833 260.293 96.8682 262.379 99.1885C264.488 101.485 267.16 102.634 270.395 102.634C272.691 102.634 274.637 102.165 276.23 101.228C277.824 100.29 279.219 99.0479 280.414 97.501L284.387 100.595C281.199 105.493 276.418 107.942 270.043 107.942ZM269.234 73.8408C266.609 73.8408 264.406 74.8018 262.625 76.7236C260.844 78.6221 259.742 81.2939 259.32 84.7393H278.375V84.2471C278.188 80.9424 277.297 78.3877 275.703 76.583C274.109 74.7549 271.953 73.8408 269.234 73.8408ZM326.082 107.942C320.926 107.942 316.73 106.255 313.496 102.88C310.262 99.4814 308.645 94.9463 308.645 89.2744V88.0791C308.645 84.3057 309.359 80.9424 310.789 77.9893C312.242 75.0127 314.258 72.6924 316.836 71.0283C319.438 69.3408 322.25 68.4971 325.273 68.4971C330.219 68.4971 334.062 70.126 336.805 73.3838C339.547 76.6416 340.918 81.3057 340.918 87.376V90.083H315.148C315.242 93.833 316.332 96.8682 318.418 99.1885C320.527 101.485 323.199 102.634 326.434 102.634C328.73 102.634 330.676 102.165 332.27 101.228C333.863 100.29 335.258 99.0479 336.453 97.501L340.426 100.595C337.238 105.493 332.457 107.942 326.082 107.942ZM325.273 73.8408C322.648 73.8408 320.445 74.8018 318.664 76.7236C316.883 78.6221 315.781 81.2939 315.359 84.7393H334.414V84.2471C334.227 80.9424 333.336 78.3877 331.742 76.583C330.148 74.7549 327.992 73.8408 325.273 73.8408ZM370.625 97.1494C370.625 95.3916 369.957 94.0322 368.621 93.0713C367.309 92.0869 365 91.2432 361.695 90.54C358.414 89.8369 355.801 88.9932 353.855 88.0088C351.934 87.0244 350.504 85.8525 349.566 84.4932C348.652 83.1338 348.195 81.5166 348.195 79.6416C348.195 76.5244 349.508 73.8877 352.133 71.7314C354.781 69.5752 358.156 68.4971 362.258 68.4971C366.57 68.4971 370.062 69.6104 372.734 71.8369C375.43 74.0635 376.777 76.9111 376.777 80.3799H370.238C370.238 78.5986 369.477 77.0635 367.953 75.7744C366.453 74.4854 364.555 73.8408 362.258 73.8408C359.891 73.8408 358.039 74.3564 356.703 75.3877C355.367 76.4189 354.699 77.7666 354.699 79.4307C354.699 81.001 355.32 82.1846 356.562 82.9814C357.805 83.7783 360.043 84.54 363.277 85.2666C366.535 85.9932 369.172 86.8604 371.188 87.8682C373.203 88.876 374.691 90.0947 375.652 91.5244C376.637 92.9307 377.129 94.6533 377.129 96.6924C377.129 100.091 375.77 102.821 373.051 104.884C370.332 106.923 366.805 107.942 362.469 107.942C359.422 107.942 356.727 107.403 354.383 106.325C352.039 105.247 350.199 103.747 348.863 101.825C347.551 99.8799 346.895 97.7822 346.895 95.5322H353.398C353.516 97.7119 354.383 99.4463 356 100.735C357.641 102.001 359.797 102.634 362.469 102.634C364.93 102.634 366.898 102.142 368.375 101.157C369.875 100.149 370.625 98.8135 370.625 97.1494ZM400.859 102.634C403.18 102.634 405.207 101.931 406.941 100.524C408.676 99.1182 409.637 97.3604 409.824 95.251H415.977C415.859 97.4307 415.109 99.5049 413.727 101.474C412.344 103.442 410.492 105.013 408.172 106.185C405.875 107.356 403.438 107.942 400.859 107.942C395.68 107.942 391.555 106.22 388.484 102.774C385.438 99.3057 383.914 94.5713 383.914 88.5713V87.4814C383.914 83.7783 384.594 80.4854 385.953 77.6025C387.312 74.7197 389.258 72.4814 391.789 70.8877C394.344 69.2939 397.355 68.4971 400.824 68.4971C405.09 68.4971 408.629 69.7744 411.441 72.3291C414.277 74.8838 415.789 78.2002 415.977 82.2783H409.824C409.637 79.8174 408.699 77.8018 407.012 76.2314C405.348 74.6377 403.285 73.8408 400.824 73.8408C397.52 73.8408 394.953 75.0361 393.125 77.4268C391.32 79.7939 390.418 83.2275 390.418 87.7275V88.958C390.418 93.3408 391.32 96.7158 393.125 99.083C394.93 101.45 397.508 102.634 400.859 102.634ZM421.566 87.8682C421.566 84.1416 422.293 80.79 423.746 77.8135C425.223 74.8369 427.262 72.54 429.863 70.9229C432.488 69.3057 435.477 68.4971 438.828 68.4971C444.008 68.4971 448.191 70.29 451.379 73.876C454.59 77.4619 456.195 82.2314 456.195 88.1846V88.6416C456.195 92.3447 455.48 95.6729 454.051 98.626C452.645 101.556 450.617 103.841 447.969 105.481C445.344 107.122 442.32 107.942 438.898 107.942C433.742 107.942 429.559 106.149 426.348 102.563C423.16 98.9775 421.566 94.2314 421.566 88.3252V87.8682ZM428.105 88.6416C428.105 92.8604 429.078 96.2471 431.023 98.8018C432.992 101.356 435.617 102.634 438.898 102.634C442.203 102.634 444.828 101.345 446.773 98.7666C448.719 96.165 449.691 92.5322 449.691 87.8682C449.691 83.6963 448.695 80.3213 446.703 77.7432C444.734 75.1416 442.109 73.8408 438.828 73.8408C435.617 73.8408 433.027 75.1182 431.059 77.6729C429.09 80.2275 428.105 83.8838 428.105 88.6416ZM471.418 107.239H464.914V53.2393H471.418V107.239ZM488.363 73.8057C491.246 70.2666 494.996 68.4971 499.613 68.4971C507.652 68.4971 511.707 73.0322 511.777 82.1025V107.239H505.273V82.0674C505.25 79.3252 504.617 77.2979 503.375 75.9854C502.156 74.6729 500.246 74.0166 497.645 74.0166C495.535 74.0166 493.684 74.5791 492.09 75.7041C490.496 76.8291 489.254 78.3057 488.363 80.1338V107.239H481.859V53.2393H488.363V73.8057ZM537.301 107.942C532.145 107.942 527.949 106.255 524.715 102.88C521.48 99.4814 519.863 94.9463 519.863 89.2744V88.0791C519.863 84.3057 520.578 80.9424 522.008 77.9893C523.461 75.0127 525.477 72.6924 528.055 71.0283C530.656 69.3408 533.469 68.4971 536.492 68.4971C541.438 68.4971 545.281 70.126 548.023 73.3838C550.766 76.6416 552.137 81.3057 552.137 87.376V90.083H526.367C526.461 93.833 527.551 96.8682 529.637 99.1885C531.746 101.485 534.418 102.634 537.652 102.634C539.949 102.634 541.895 102.165 543.488 101.228C545.082 100.29 546.477 99.0479 547.672 97.501L551.645 100.595C548.457 105.493 543.676 107.942 537.301 107.942ZM536.492 73.8408C533.867 73.8408 531.664 74.8018 529.883 76.7236C528.102 78.6221 527 81.2939 526.578 84.7393H545.633V84.2471C545.445 80.9424 544.555 78.3877 542.961 76.583C541.367 74.7549 539.211 73.8408 536.492 73.8408ZM578.082 75.0361C577.098 74.8721 576.031 74.79 574.883 74.79C570.617 74.79 567.723 76.6064 566.199 80.2393V107.239H559.695V69.2002H566.023L566.129 73.5947C568.262 70.1963 571.285 68.4971 575.199 68.4971C576.465 68.4971 577.426 68.6611 578.082 68.9893V75.0361ZM625.438 107.239C625.062 106.489 624.758 105.153 624.523 103.231C621.5 106.372 617.891 107.942 613.695 107.942C609.945 107.942 606.863 106.888 604.449 104.778C602.059 102.646 600.863 99.9502 600.863 96.6924C600.863 92.7314 602.363 89.6611 605.363 87.4814C608.387 85.2783 612.629 84.1768 618.09 84.1768H624.418V81.1885C624.418 78.915 623.738 77.1104 622.379 75.7744C621.02 74.415 619.016 73.7354 616.367 73.7354C614.047 73.7354 612.102 74.3213 610.531 75.4932C608.961 76.665 608.176 78.083 608.176 79.7471H601.637C601.637 77.8486 602.305 76.0205 603.641 74.2627C605 72.4814 606.828 71.0752 609.125 70.0439C611.445 69.0127 613.988 68.4971 616.754 68.4971C621.137 68.4971 624.57 69.5986 627.055 71.8018C629.539 73.9814 630.828 76.9932 630.922 80.8369V98.3447C630.922 101.837 631.367 104.614 632.258 106.677V107.239H625.438ZM614.645 102.282C616.684 102.282 618.617 101.755 620.445 100.7C622.273 99.6455 623.598 98.2744 624.418 96.5869V88.7822H619.32C611.352 88.7822 607.367 91.1143 607.367 95.7783C607.367 97.8174 608.047 99.4111 609.406 100.56C610.766 101.708 612.512 102.282 614.645 102.282Z" fill="#3D3D3D"/>
<path d="M222.094 197.758C219.562 200.789 215.984 203.149 211.359 204.836C206.734 206.493 201.609 207.321 195.984 207.321C190.078 207.321 184.891 206.039 180.422 203.477C175.984 200.883 172.547 197.133 170.109 192.227C167.703 187.321 166.469 181.555 166.406 174.93V170.289C166.406 163.477 167.547 157.586 169.828 152.618C172.141 147.618 175.453 143.805 179.766 141.18C184.109 138.524 189.188 137.196 195 137.196C203.094 137.196 209.422 139.133 213.984 143.008C218.547 146.852 221.25 152.461 222.094 159.836H208.406C207.781 155.93 206.391 153.071 204.234 151.258C202.109 149.446 199.172 148.539 195.422 148.539C190.641 148.539 187 150.336 184.5 153.93C182 157.524 180.734 162.868 180.703 169.961V174.321C180.703 181.477 182.062 186.883 184.781 190.539C187.5 194.196 191.484 196.024 196.734 196.024C202.016 196.024 205.781 194.899 208.031 192.649V180.883H195.234V170.524H222.094V197.758ZM245.859 166.258H253.078C256.516 166.258 259.062 165.399 260.719 163.68C262.375 161.961 263.203 159.68 263.203 156.836C263.203 154.086 262.375 151.946 260.719 150.414C259.094 148.883 256.844 148.118 253.969 148.118C251.375 148.118 249.203 148.836 247.453 150.274C245.703 151.68 244.828 153.524 244.828 155.805H231.281C231.281 152.243 232.234 149.055 234.141 146.243C236.078 143.399 238.766 141.18 242.203 139.586C245.672 137.993 249.484 137.196 253.641 137.196C260.859 137.196 266.516 138.93 270.609 142.399C274.703 145.836 276.75 150.586 276.75 156.649C276.75 159.774 275.797 162.649 273.891 165.274C271.984 167.899 269.484 169.914 266.391 171.321C270.234 172.696 273.094 174.758 274.969 177.508C276.875 180.258 277.828 183.508 277.828 187.258C277.828 193.321 275.609 198.18 271.172 201.836C266.766 205.493 260.922 207.321 253.641 207.321C246.828 207.321 241.25 205.524 236.906 201.93C232.594 198.336 230.438 193.586 230.438 187.68H243.984C243.984 190.243 244.938 192.336 246.844 193.961C248.781 195.586 251.156 196.399 253.969 196.399C257.188 196.399 259.703 195.555 261.516 193.868C263.359 192.149 264.281 189.883 264.281 187.071C264.281 180.258 260.531 176.852 253.031 176.852H245.859V166.258ZM347.953 188.477C347.953 185.821 347.016 183.789 345.141 182.383C343.266 180.946 339.891 179.446 335.016 177.883C330.141 176.289 326.281 174.727 323.438 173.196C315.688 169.008 311.812 163.368 311.812 156.274C311.812 152.586 312.844 149.305 314.906 146.43C317 143.524 319.984 141.258 323.859 139.633C327.766 138.008 332.141 137.196 336.984 137.196C341.859 137.196 346.203 138.086 350.016 139.868C353.828 141.618 356.781 144.102 358.875 147.321C361 150.539 362.062 154.196 362.062 158.289H348C348 155.164 347.016 152.743 345.047 151.024C343.078 149.274 340.312 148.399 336.75 148.399C333.312 148.399 330.641 149.133 328.734 150.602C326.828 152.039 325.875 153.946 325.875 156.321C325.875 158.539 326.984 160.399 329.203 161.899C331.453 163.399 334.75 164.805 339.094 166.118C347.094 168.524 352.922 171.508 356.578 175.071C360.234 178.633 362.062 183.071 362.062 188.383C362.062 194.289 359.828 198.93 355.359 202.305C350.891 205.649 344.875 207.321 337.312 207.321C332.062 207.321 327.281 206.368 322.969 204.461C318.656 202.524 315.359 199.883 313.078 196.539C310.828 193.196 309.703 189.321 309.703 184.914H323.812C323.812 192.446 328.312 196.211 337.312 196.211C340.656 196.211 343.266 195.539 345.141 194.196C347.016 192.821 347.953 190.914 347.953 188.477ZM368.625 180.555C368.625 175.524 369.594 171.039 371.531 167.102C373.469 163.164 376.25 160.118 379.875 157.961C383.531 155.805 387.766 154.727 392.578 154.727C399.422 154.727 405 156.821 409.312 161.008C413.656 165.196 416.078 170.883 416.578 178.071L416.672 181.539C416.672 189.321 414.5 195.571 410.156 200.289C405.812 204.977 399.984 207.321 392.672 207.321C385.359 207.321 379.516 204.977 375.141 200.289C370.797 195.602 368.625 189.227 368.625 181.164V180.555ZM382.172 181.539C382.172 186.352 383.078 190.039 384.891 192.602C386.703 195.133 389.297 196.399 392.672 196.399C395.953 196.399 398.516 195.149 400.359 192.649C402.203 190.118 403.125 186.086 403.125 180.555C403.125 175.836 402.203 172.18 400.359 169.586C398.516 166.993 395.922 165.696 392.578 165.696C389.266 165.696 386.703 166.993 384.891 169.586C383.078 172.149 382.172 176.133 382.172 181.539ZM439.312 206.383H425.719V134.383H439.312V206.383ZM480.891 201.227C477.547 205.289 472.922 207.321 467.016 207.321C461.578 207.321 457.422 205.758 454.547 202.633C451.703 199.508 450.25 194.93 450.188 188.899V155.664H463.734V188.43C463.734 193.711 466.141 196.352 470.953 196.352C475.547 196.352 478.703 194.758 480.422 191.571V155.664H494.016V206.383H481.266L480.891 201.227ZM525.328 196.399C527.828 196.399 529.859 195.711 531.422 194.336C532.984 192.961 533.797 191.133 533.859 188.852H546.562C546.531 192.289 545.594 195.446 543.75 198.321C541.906 201.164 539.375 203.383 536.156 204.977C532.969 206.539 529.438 207.321 525.562 207.321C518.312 207.321 512.594 205.024 508.406 200.43C504.219 195.805 502.125 189.43 502.125 181.305V180.414C502.125 172.602 504.203 166.368 508.359 161.711C512.516 157.055 518.219 154.727 525.469 154.727C531.812 154.727 536.891 156.539 540.703 160.164C544.547 163.758 546.5 168.555 546.562 174.555H533.859C533.797 171.93 532.984 169.805 531.422 168.18C529.859 166.524 527.797 165.696 525.234 165.696C522.078 165.696 519.688 166.852 518.062 169.164C516.469 171.446 515.672 175.164 515.672 180.321V181.727C515.672 186.946 516.469 190.696 518.062 192.977C519.656 195.258 522.078 196.399 525.328 196.399ZM530.25 206.102L529.734 208.821C534.422 209.664 536.766 212.368 536.766 216.93C536.766 220.368 535.328 223.086 532.453 225.086C529.609 227.086 525.594 228.086 520.406 228.086L520.078 220.258C523.578 220.258 525.328 218.993 525.328 216.461C525.328 215.149 524.797 214.243 523.734 213.743C522.703 213.274 521.016 212.961 518.672 212.805L520.125 206.102H530.25ZM552.188 180.555C552.188 175.524 553.156 171.039 555.094 167.102C557.031 163.164 559.812 160.118 563.438 157.961C567.094 155.805 571.328 154.727 576.141 154.727C582.984 154.727 588.562 156.821 592.875 161.008C597.219 165.196 599.641 170.883 600.141 178.071L600.234 181.539C600.234 189.321 598.062 195.571 593.719 200.289C589.375 204.977 583.547 207.321 576.234 207.321C568.922 207.321 563.078 204.977 558.703 200.289C554.359 195.602 552.188 189.227 552.188 181.164V180.555ZM565.734 181.539C565.734 186.352 566.641 190.039 568.453 192.602C570.266 195.133 572.859 196.399 576.234 196.399C579.516 196.399 582.078 195.149 583.922 192.649C585.766 190.118 586.688 186.086 586.688 180.555C586.688 175.836 585.766 172.18 583.922 169.586C582.078 166.993 579.484 165.696 576.141 165.696C572.828 165.696 570.266 166.993 568.453 169.586C566.641 172.149 565.734 176.133 565.734 181.539ZM593.719 134.993C593.719 138.524 592.688 141.493 590.625 143.899C588.562 146.274 586.047 147.461 583.078 147.461C581.891 147.461 580.828 147.336 579.891 147.086C578.984 146.805 577.719 146.227 576.094 145.352C574.469 144.477 573.297 143.946 572.578 143.758C571.859 143.539 571.078 143.43 570.234 143.43C569.141 143.43 568.203 143.821 567.422 144.602C566.672 145.383 566.297 146.493 566.297 147.93L558.422 147.461C558.422 143.993 559.438 141.039 561.469 138.602C563.531 136.164 566.047 134.946 569.016 134.946C569.953 134.946 570.828 135.071 571.641 135.321C572.484 135.539 573.844 136.102 575.719 137.008C577.594 137.914 578.891 138.461 579.609 138.649C580.328 138.836 581.078 138.93 581.859 138.93C582.953 138.93 583.891 138.555 584.672 137.805C585.484 137.024 585.891 135.914 585.891 134.477L593.719 134.993ZM631.922 207.321C624.484 207.321 618.422 205.039 613.734 200.477C609.078 195.914 606.75 189.836 606.75 182.243V180.93C606.75 175.836 607.734 171.289 609.703 167.289C611.672 163.258 614.453 160.164 618.047 158.008C621.672 155.821 625.797 154.727 630.422 154.727C637.359 154.727 642.812 156.914 646.781 161.289C650.781 165.664 652.781 171.868 652.781 179.899V185.43H620.484C620.922 188.743 622.234 191.399 624.422 193.399C626.641 195.399 629.438 196.399 632.812 196.399C638.031 196.399 642.109 194.508 645.047 190.727L651.703 198.18C649.672 201.055 646.922 203.305 643.453 204.93C639.984 206.524 636.141 207.321 631.922 207.321ZM630.375 165.696C627.688 165.696 625.5 166.602 623.812 168.414C622.156 170.227 621.094 172.821 620.625 176.196H639.469V175.118C639.406 172.118 638.594 169.805 637.031 168.18C635.469 166.524 633.25 165.696 630.375 165.696ZM687.984 192.368C687.984 190.711 687.156 189.414 685.5 188.477C683.875 187.508 681.25 186.649 677.625 185.899C665.562 183.368 659.531 178.243 659.531 170.524C659.531 166.024 661.391 162.274 665.109 159.274C668.859 156.243 673.75 154.727 679.781 154.727C686.219 154.727 691.359 156.243 695.203 159.274C699.078 162.305 701.016 166.243 701.016 171.086H687.469C687.469 169.149 686.844 167.555 685.594 166.305C684.344 165.024 682.391 164.383 679.734 164.383C677.453 164.383 675.688 164.899 674.438 165.93C673.188 166.961 672.562 168.274 672.562 169.868C672.562 171.368 673.266 172.586 674.672 173.524C676.109 174.43 678.516 175.227 681.891 175.914C685.266 176.571 688.109 177.321 690.422 178.164C697.578 180.789 701.156 185.336 701.156 191.805C701.156 196.43 699.172 200.18 695.203 203.055C691.234 205.899 686.109 207.321 679.828 207.321C675.578 207.321 671.797 206.571 668.484 205.071C665.203 203.539 662.625 201.461 660.75 198.836C658.875 196.18 657.938 193.321 657.938 190.258H670.781C670.906 192.664 671.797 194.508 673.453 195.789C675.109 197.071 677.328 197.711 680.109 197.711C682.703 197.711 684.656 197.227 685.969 196.258C687.312 195.258 687.984 193.961 687.984 192.368ZM720.984 185.43C720.984 181.055 721.516 177.571 722.578 174.977C723.641 172.383 725.578 169.836 728.391 167.336C731.234 164.805 733.125 162.758 734.062 161.196C735 159.602 735.469 157.93 735.469 156.18C735.469 150.899 733.031 148.258 728.156 148.258C725.844 148.258 723.984 148.977 722.578 150.414C721.203 151.821 720.484 153.774 720.422 156.274H706.828C706.891 150.305 708.812 145.633 712.594 142.258C716.406 138.883 721.594 137.196 728.156 137.196C734.781 137.196 739.922 138.805 743.578 142.024C747.234 145.211 749.062 149.727 749.062 155.571C749.062 158.227 748.469 160.743 747.281 163.118C746.094 165.461 744.016 168.071 741.047 170.946L737.25 174.555C734.875 176.836 733.516 179.508 733.172 182.571L732.984 185.43H720.984ZM719.625 199.821C719.625 197.727 720.328 196.008 721.734 194.664C723.172 193.289 725 192.602 727.219 192.602C729.438 192.602 731.25 193.289 732.656 194.664C734.094 196.008 734.812 197.727 734.812 199.821C734.812 201.883 734.109 203.586 732.703 204.93C731.328 206.274 729.5 206.946 727.219 206.946C724.938 206.946 723.094 206.274 721.688 204.93C720.312 203.586 719.625 201.883 719.625 199.821Z" fill="black"/>
<line x1="33" y1="0.16449" x2="33" y2="166.475" stroke="#FF9901" stroke-width="4"/>
<line y1="26.2168" x2="166" y2="26.2168" stroke="#FF9901" stroke-width="4"/>
</svg>
