<svg xmlns="http://www.w3.org/2000/svg" viewBox="0 0 30 30"><defs><style>.cls-1{fill:#ce1c30;}.cls-2{fill:#e89319;}.cls-3{fill:#d9d9d9;}</style></defs><title>G3S_logo_Z</title><g id="Logos"><path class="cls-1" d="M15.17,21.56a6.92,6.92,0,0,0,1.34-1.31,4.57,4.57,0,0,0,.76-1.49,3.9,3.9,0,0,0,.13-1.44,8.84,8.84,0,0,0-.76-2.75c-.39-.93-.81-1.85-1.2-2.78a.36.36,0,0,1,0-.09H11.72l-.37,2.35a1.37,1.37,0,0,0,1.34,1.6h2.47A4.36,4.36,0,0,1,10.63,19C7.35,19,6,16,6.51,13s2.67-6.11,6-6.11a3.63,3.63,0,0,1,2.26.71s0-.07,0-.1a6.23,6.23,0,0,1,.79-2.1,6.31,6.31,0,0,1,1.38-1.62h0a.38.38,0,0,0-.11-.64,9.66,9.66,0,0,0-3.46-.58,11.9,11.9,0,0,0-12,10.43C.38,19,3.92,23.15,9.94,23.15a11.83,11.83,0,0,0,3.42-.48A9.67,9.67,0,0,0,15.17,21.56Z"/><path d="M7,25.49a.38.38,0,0,0-.23-.08.24.24,0,0,0-.24.26.32.32,0,0,0,.08.22l.2.22a.72.72,0,0,1,.29.59.49.49,0,0,1-.48.53.45.45,0,0,1-.29-.1v-.27a.42.42,0,0,0,.26.1c.17,0,.24-.13.24-.28,0-.4-.57-.48-.57-1a.46.46,0,0,1,.46-.52.53.53,0,0,1,.28.07Z"/><path d="M9.7,26.19c0,.36,0,1-.53,1s-.53-.68-.53-1,0-1,.53-1S9.7,25.83,9.7,26.19Zm-.77,0c0,.43,0,.78.24.78s.24-.35.24-.78,0-.78-.24-.78S8.93,25.76,8.93,26.19Z"/><path d="M11.58,25.18V27H12v.23h-.73v-2Z"/><path d="M13.82,25.18v1.48c0,.26.08.31.19.31s.2-.11.2-.28V25.18h.27v1.43c0,.27,0,.62-.46.62s-.47-.29-.47-.66V25.18Z"/><path d="M16.94,25.46a.37.37,0,0,0-.18-.05c-.37,0-.38.54-.38.79s0,.77.39.77a.33.33,0,0,0,.17,0v.24a.43.43,0,0,1-.22.06c-.55,0-.62-.58-.62-1s0-1.07.6-1.07a.5.5,0,0,1,.24.06Zm-.2,2-.23.36-.12-.06.17-.38Z"/><path d="M19.49,26.19c0,.36,0,1-.53,1s-.53-.68-.53-1,0-1,.53-1S19.49,25.83,19.49,26.19Zm-.19-1.5c0,.14,0,.27-.2.27s-.18-.09-.25-.09-.06,0-.06.08h-.17c0-.13.06-.27.21-.27s.19.09.27.09,0,0,0-.08Zm-.58,1.5c0,.43,0,.78.24.78s.24-.35.24-.78,0-.78-.24-.78S18.72,25.76,18.72,26.19Z"/><path d="M21.83,25.18v.23h-.45v.64h.41v.23h-.41V27h.45v.23h-.72v-2Z"/><path d="M24,25.49a.38.38,0,0,0-.23-.08.24.24,0,0,0-.24.26.32.32,0,0,0,.08.22l.2.22a.75.75,0,0,1,.29.59.49.49,0,0,1-.48.53.45.45,0,0,1-.29-.1v-.27a.42.42,0,0,0,.26.1c.17,0,.24-.13.24-.28,0-.4-.57-.48-.57-1a.46.46,0,0,1,.46-.52.53.53,0,0,1,.28.07Z"/><path class="cls-2" d="M28.64,8c.59-3.58-1.8-5.56-5.23-5.56a8,8,0,0,0-1,.05h0l-.55.16a7.14,7.14,0,0,0-2.11.94A4.52,4.52,0,0,0,18.4,4.91,7.15,7.15,0,0,0,17.88,6a4.22,4.22,0,0,0-.29,1.4,10.26,10.26,0,0,0,0,1.24h1.21a1.53,1.53,0,0,0,1.37-.86,2.35,2.35,0,0,1,2.12-1.35A1.56,1.56,0,0,1,24,8.39a2.43,2.43,0,0,1-2.51,2.11h0a.59.59,0,0,0-.59.5l-.45,2.83a3.19,3.19,0,0,1,.89-.15,2.18,2.18,0,0,1,2.23,2.56,3,3,0,0,1-3.07,2.57h-.29a1.35,1.35,0,0,0-1.29.65l-.18.29a7.8,7.8,0,0,1-2.06,2c-.21.14-.42.27-.64.39a7.68,7.68,0,0,0,3.92.92c3.82,0,7.81-2.16,8.47-6.35.3-2-.41-4.3-2.37-4.83A5.28,5.28,0,0,0,28.64,8Z"/><path class="cls-3" d="M23,2.39l-.6.16A8.46,8.46,0,0,0,20,3.5a4.86,4.86,0,0,0-1.49,1.36A8,8,0,0,0,18,6a3.85,3.85,0,0,0-.32,1.4,9.62,9.62,0,0,0,0,1.42,9.25,9.25,0,0,0,.51,2.26c.26.79.6,1.56.87,2.34s.47,1.38.65,2.08a5.22,5.22,0,0,1,.1,2,5,5,0,0,1-1,2.28,8.37,8.37,0,0,1-2.27,2A8.75,8.75,0,0,1,14,22.88a7.5,7.5,0,0,1-2.36.16s0,0-.07,0l.52-.16A11,11,0,0,0,15,21.39a7.66,7.66,0,0,0,1.47-1.31,4.08,4.08,0,0,0,.85-1.5,3.6,3.6,0,0,0,.12-1.53,8.26,8.26,0,0,0-.81-2.61c-.44-.92-.89-1.83-1.32-2.76a9,9,0,0,1-.8-2.43,5.39,5.39,0,0,1,0-1.88,5.82,5.82,0,0,1,.86-2.08,6.73,6.73,0,0,1,1.53-1.62,7.28,7.28,0,0,1,2.49-1.2,6.41,6.41,0,0,1,1.74-.24c.54,0,1.08.07,1.62.11l.19,0Z"/></g></svg>